<?xml version="1.0" encoding="UTF-8" standalone="no"?>
<!DOCTYPE svg PUBLIC "-//W3C//DTD SVG 1.1//EN"
 "http://www.w3.org/Graphics/SVG/1.1/DTD/svg11.dtd">
<!-- Generated by graphviz version 2.42.4 (0)
 -->
<!-- Title: img2num_ImageToSvgConfig Pages: 1 -->
<svg width="330pt" height="209pt"
 viewBox="0.00 0.00 330.00 209.00" xmlns="http://www.w3.org/2000/svg" xmlns:xlink="http://www.w3.org/1999/xlink">
<g id="graph0" class="graph" transform="scale(1 1) rotate(0) translate(4 205)">
<title>img2num_ImageToSvgConfig</title>
<!-- Node1 -->
<g id="Node000001" class="node">
<title>Node1</title>
<g id="a_Node000001"><a xlink:title="Configuration options for image_to_svg.">
<polygon fill="#999999" stroke="transparent" points="237,-79 85,-79 85,0 237,0 237,-79"/>
<text text-anchor="start" x="90" y="-66.5" font-family="Helvetica,sans-Serif" font-size="10.00">img2num_ImageToSvgConfig</text>
<text text-anchor="start" x="100.5" y="-51.5" font-family="Helvetica,sans-Serif" font-size="10.00">+</text>
<text text-anchor="start" x="125" y="-51.5" font-family="Helvetica,sans-Serif" font-size="10.00">min_cluster_area</text>
<text text-anchor="start" x="100.5" y="-36.5" font-family="Helvetica,sans-Serif" font-size="10.00">+</text>
<text text-anchor="start" x="125" y="-36.5" font-family="Helvetica,sans-Serif" font-size="10.00">min_thickness</text>
<text text-anchor="start" x="100.5" y="-21.5" font-family="Helvetica,sans-Serif" font-size="10.00">+</text>
<text text-anchor="start" x="125" y="-21.5" font-family="Helvetica,sans-Serif" font-size="10.00">color_space</text>
<text text-anchor="start" x="159" y="-6.5" font-family="Helvetica,sans-Serif" font-size="10.00"> </text>
<polygon fill="#666666" stroke="#666666" points="85,-61.5 85,-61.5 237,-61.5 237,-61.5 85,-61.5"/>
<polygon fill="#666666" stroke="#666666" points="85,-16.5 85,-16.5 123,-16.5 123,-16.5 85,-16.5"/>
<polygon fill="#666666" stroke="#666666" points="123,-16.5 123,-16.5 237,-16.5 237,-16.5 123,-16.5"/>
<polygon fill="none" stroke="#666666" points="85,0 85,-79 237,-79 237,0 85,0"/>
</a>
</g>
</g>
<!-- Node2 -->
<g id="Node000002" class="node">
<title>Node2</title>
<g id="a_Node000002"><a xlink:href="structimg2num__ImageToSvgConfig_1_1BilateralFilterConfig.html" target="_top" xlink:title="Configuration settings for the bilateral filter in image_to_svg.">
<polygon fill="white" stroke="transparent" points="152,-201 0,-201 0,-126 152,-126 152,-201"/>
<text text-anchor="start" x="5" y="-188.5" font-family="Helvetica,sans-Serif" font-size="10.00">img2num_ImageToSvgConfig</text>
<text text-anchor="start" x="24.5" y="-177.5" font-family="Helvetica,sans-Serif" font-size="10.00">::BilateralFilterConfig</text>
<text text-anchor="start" x="19.5" y="-162.5" font-family="Helvetica,sans-Serif" font-size="10.00">+</text>
<text text-anchor="start" x="48" y="-162.5" font-family="Helvetica,sans-Serif" font-size="10.00">sigma_spatial</text>
<text text-anchor="start" x="19.5" y="-147.5" font-family="Helvetica,sans-Serif" font-size="10.00">+</text>
<text text-anchor="start" x="48" y="-147.5" font-family="Helvetica,sans-Serif" font-size="10.00">sigma_range</text>
<text text-anchor="start" x="74" y="-132.5" font-family="Helvetica,sans-Serif" font-size="10.00"> </text>
<polygon fill="#666666" stroke="#666666" points="0,-172.5 0,-172.5 152,-172.5 152,-172.5 0,-172.5"/>
<polygon fill="#666666" stroke="#666666" points="0,-142.5 0,-142.5 46,-142.5 46,-142.5 0,-142.5"/>
<polygon fill="#666666" stroke="#666666" points="46,-142.5 46,-142.5 152,-142.5 152,-142.5 46,-142.5"/>
<polygon fill="none" stroke="#666666" points="0,-126 0,-201 152,-201 152,-126 0,-126"/>
</a>
</g>
</g>
<!-- Node2&#45;&gt;Node1 -->
<g id="edge1_Node000001_Node000002" class="edge">
<title>Node2&#45;&gt;Node1</title>
<g id="a_edge1_Node000001_Node000002"><a xlink:title=" ">
<path fill="none" stroke="#63b8ff" d="M101.5,-125.9C109.53,-114.38 118.52,-101.48 127.03,-89.26"/>
<polygon fill="none" stroke="#63b8ff" points="127.18,-89.04 127.33,-81.83 134.04,-79.2 133.89,-86.41 127.18,-89.04"/>
</a>
</g>
<text text-anchor="middle" x="162" y="-100" font-family="Helvetica,sans-Serif" font-size="10.00" fill="grey"> +bilateral_filter</text>
</g>
<!-- Node3 -->
<g id="Node000003" class="node">
<title>Node3</title>
<g id="a_Node000003"><a xlink:href="structimg2num__ImageToSvgConfig_1_1KMeansConfig.html" target="_top" xlink:title="Configuration settings for K&#45;Means in image_to_svg.">
<polygon fill="white" stroke="transparent" points="322,-201 170,-201 170,-126 322,-126 322,-201"/>
<text text-anchor="start" x="175" y="-188.5" font-family="Helvetica,sans-Serif" font-size="10.00">img2num_ImageToSvgConfig</text>
<text text-anchor="start" x="208" y="-177.5" font-family="Helvetica,sans-Serif" font-size="10.00">::KMeansConfig</text>
<text text-anchor="start" x="195.5" y="-162.5" font-family="Helvetica,sans-Serif" font-size="10.00">+</text>
<text text-anchor="start" x="230" y="-162.5" font-family="Helvetica,sans-Serif" font-size="10.00">k</text>
<text text-anchor="start" x="195.5" y="-147.5" font-family="Helvetica,sans-Serif" font-size="10.00">+</text>
<text text-anchor="start" x="230" y="-147.5" font-family="Helvetica,sans-Serif" font-size="10.00">max_iter</text>
<text text-anchor="start" x="244" y="-132.5" font-family="Helvetica,sans-Serif" font-size="10.00"> </text>
<polygon fill="#666666" stroke="#666666" points="170,-172.5 170,-172.5 322,-172.5 322,-172.5 170,-172.5"/>
<polygon fill="#666666" stroke="#666666" points="170,-142.5 170,-142.5 228,-142.5 228,-142.5 170,-142.5"/>
<polygon fill="#666666" stroke="#666666" points="228,-142.5 228,-142.5 322,-142.5 322,-142.5 228,-142.5"/>
<polygon fill="none" stroke="#666666" points="170,-126 170,-201 322,-201 322,-126 170,-126"/>
</a>
</g>
</g>
<!-- Node3&#45;&gt;Node1 -->
<g id="edge2_Node000001_Node000003" class="edge">
<title>Node3&#45;&gt;Node1</title>
<g id="a_edge2_Node000001_Node000003"><a xlink:title=" ">
<path fill="none" stroke="#63b8ff" d="M224.78,-125.95C218.93,-116.38 212.42,-106.17 206,-97 204.14,-94.35 202.2,-91.65 200.22,-88.95"/>
<polygon fill="none" stroke="#63b8ff" points="200.1,-88.8 193.3,-86.43 192.87,-79.23 199.68,-81.61 200.1,-88.8"/>
</a>
</g>
<text text-anchor="middle" x="238.5" y="-100" font-family="Helvetica,sans-Serif" font-size="10.00" fill="grey"> +kmeans</text>
</g>
</g>
</svg>
