<?xml version="1.0" encoding="UTF-8" standalone="no"?>
<!DOCTYPE svg PUBLIC "-//W3C//DTD SVG 1.1//EN"
 "http://www.w3.org/Graphics/SVG/1.1/DTD/svg11.dtd">
<!-- Generated by graphviz version 2.42.4 (0)
 -->
<!-- Title: Graph Pages: 1 -->
<svg width="262pt" height="703pt"
 viewBox="0.00 0.00 261.50 703.00" xmlns="http://www.w3.org/2000/svg" xmlns:xlink="http://www.w3.org/1999/xlink">
<g id="graph0" class="graph" transform="scale(1 1) rotate(0) translate(4 699)">
<title>Graph</title>
<!-- Node1 -->
<g id="Node000001" class="node">
<title>Node1</title>
<g id="a_Node000001"><a xlink:title=" ">
<polygon fill="#999999" stroke="transparent" points="209,-285 54,-285 54,0 209,0 209,-285"/>
<text text-anchor="start" x="117" y="-272.5" font-family="Helvetica,sans-Serif" font-size="10.00">Graph</text>
<text text-anchor="start" x="58.5" y="-257.5" font-family="Helvetica,sans-Serif" font-size="10.00">#</text>
<text text-anchor="start" x="71.5" y="-257.5" font-family="Helvetica,sans-Serif" font-size="10.00">m_width</text>
<text text-anchor="start" x="58.5" y="-242.5" font-family="Helvetica,sans-Serif" font-size="10.00">#</text>
<text text-anchor="start" x="71.5" y="-242.5" font-family="Helvetica,sans-Serif" font-size="10.00">m_height</text>
<text text-anchor="start" x="58.5" y="-227.5" font-family="Helvetica,sans-Serif" font-size="10.00">+</text>
<text text-anchor="start" x="71.5" y="-227.5" font-family="Helvetica,sans-Serif" font-size="10.00">Graph()</text>
<text text-anchor="start" x="58.5" y="-212.5" font-family="Helvetica,sans-Serif" font-size="10.00">+</text>
<text text-anchor="start" x="71.5" y="-212.5" font-family="Helvetica,sans-Serif" font-size="10.00">~Graph()</text>
<text text-anchor="start" x="58.5" y="-197.5" font-family="Helvetica,sans-Serif" font-size="10.00">+</text>
<text text-anchor="start" x="71.5" y="-197.5" font-family="Helvetica,sans-Serif" font-size="10.00">add_edge()</text>
<text text-anchor="start" x="58.5" y="-182.5" font-family="Helvetica,sans-Serif" font-size="10.00">+</text>
<text text-anchor="start" x="71.5" y="-182.5" font-family="Helvetica,sans-Serif" font-size="10.00">merge_nodes()</text>
<text text-anchor="start" x="58.5" y="-167.5" font-family="Helvetica,sans-Serif" font-size="10.00">+</text>
<text text-anchor="start" x="71.5" y="-167.5" font-family="Helvetica,sans-Serif" font-size="10.00">clear_unconnected_nodes()</text>
<text text-anchor="start" x="58.5" y="-152.5" font-family="Helvetica,sans-Serif" font-size="10.00">+</text>
<text text-anchor="start" x="71.5" y="-152.5" font-family="Helvetica,sans-Serif" font-size="10.00">get_nodes()</text>
<text text-anchor="start" x="58.5" y="-137.5" font-family="Helvetica,sans-Serif" font-size="10.00">+</text>
<text text-anchor="start" x="71.5" y="-137.5" font-family="Helvetica,sans-Serif" font-size="10.00">all_areas_bigger_than()</text>
<text text-anchor="start" x="58.5" y="-122.5" font-family="Helvetica,sans-Serif" font-size="10.00">+</text>
<text text-anchor="start" x="71.5" y="-122.5" font-family="Helvetica,sans-Serif" font-size="10.00">size()</text>
<text text-anchor="start" x="58.5" y="-107.5" font-family="Helvetica,sans-Serif" font-size="10.00">+</text>
<text text-anchor="start" x="71.5" y="-107.5" font-family="Helvetica,sans-Serif" font-size="10.00">discover_edges()</text>
<text text-anchor="start" x="58.5" y="-92.5" font-family="Helvetica,sans-Serif" font-size="10.00">+</text>
<text text-anchor="start" x="71.5" y="-92.5" font-family="Helvetica,sans-Serif" font-size="10.00">merge_small_area_nodes()</text>
<text text-anchor="start" x="58.5" y="-77.5" font-family="Helvetica,sans-Serif" font-size="10.00">+</text>
<text text-anchor="start" x="71.5" y="-77.5" font-family="Helvetica,sans-Serif" font-size="10.00">compute_contours()</text>
<text text-anchor="start" x="58.5" y="-62.5" font-family="Helvetica,sans-Serif" font-size="10.00">#</text>
<text text-anchor="start" x="71.5" y="-62.5" font-family="Helvetica,sans-Serif" font-size="10.00">hash_node_ids()</text>
<text text-anchor="start" x="58.5" y="-47.5" font-family="Helvetica,sans-Serif" font-size="10.00">#</text>
<text text-anchor="start" x="71.5" y="-47.5" font-family="Helvetica,sans-Serif" font-size="10.00">process_overlapping</text>
<text text-anchor="start" x="71.5" y="-36.5" font-family="Helvetica,sans-Serif" font-size="10.00">_edges()</text>
<text text-anchor="start" x="58.5" y="-21.5" font-family="Helvetica,sans-Serif" font-size="10.00">#</text>
<text text-anchor="start" x="71.5" y="-21.5" font-family="Helvetica,sans-Serif" font-size="10.00">getPixel()</text>
<text text-anchor="start" x="58.5" y="-6.5" font-family="Helvetica,sans-Serif" font-size="10.00">#</text>
<text text-anchor="start" x="71.5" y="-6.5" font-family="Helvetica,sans-Serif" font-size="10.00">analyzeJunctions()</text>
<polygon fill="#666666" stroke="#666666" points="54.5,-267.5 54.5,-267.5 209.5,-267.5 209.5,-267.5 54.5,-267.5"/>
<polygon fill="#666666" stroke="#666666" points="54.5,-237.5 54.5,-237.5 69.5,-237.5 69.5,-237.5 54.5,-237.5"/>
<polygon fill="#666666" stroke="#666666" points="69.5,-237.5 69.5,-237.5 209.5,-237.5 209.5,-237.5 69.5,-237.5"/>
<polygon fill="none" stroke="#666666" points="54,0 54,-285 209,-285 209,0 54,0"/>
</a>
</g>
</g>
<!-- Node2 -->
<g id="Node000002" class="node">
<title>Node2</title>
<g id="a_Node000002"><a xlink:title=" ">
<polygon fill="white" stroke="transparent" points="127,-399.5 2,-399.5 2,-339.5 127,-339.5 127,-399.5"/>
<text text-anchor="start" x="7.5" y="-387.5" font-family="Helvetica,sans-Serif" font-size="10.00">std::unique_ptr&lt; std</text>
<text text-anchor="start" x="7.5" y="-376.5" font-family="Helvetica,sans-Serif" font-size="10.00">::vector&lt; Node_ptr &gt; &gt;</text>
<text text-anchor="start" x="63" y="-361.5" font-family="Helvetica,sans-Serif" font-size="10.00"> </text>
<text text-anchor="start" x="17" y="-346.5" font-family="Helvetica,sans-Serif" font-size="10.00">+</text>
<text text-anchor="start" x="40.5" y="-346.5" font-family="Helvetica,sans-Serif" font-size="10.00">operator&#45;&gt;()</text>
<polygon fill="#666666" stroke="#666666" points="2.5,-371.5 2.5,-371.5 127.5,-371.5 127.5,-371.5 2.5,-371.5"/>
<polygon fill="#666666" stroke="#666666" points="2.5,-356.5 2.5,-356.5 127.5,-356.5 127.5,-356.5 2.5,-356.5"/>
<polygon fill="none" stroke="#666666" points="2,-339.5 2,-399.5 127,-399.5 127,-339.5 2,-339.5"/>
</a>
</g>
</g>
<!-- Node2&#45;&gt;Node1 -->
<g id="edge1_Node000001_Node000002" class="edge">
<title>Node2&#45;&gt;Node1</title>
<g id="a_edge1_Node000001_Node000002"><a xlink:title=" ">
<path fill="none" stroke="#63b8ff" d="M73.26,-339.09C76.77,-327.3 81.1,-312.75 85.8,-296.97"/>
<polygon fill="none" stroke="#63b8ff" points="85.86,-296.77 83.74,-289.88 89.28,-285.27 91.4,-292.16 85.86,-296.77"/>
</a>
</g>
<text text-anchor="middle" x="110.5" y="-306" font-family="Helvetica,sans-Serif" font-size="10.00" fill="grey"> #m_nodes</text>
</g>
<!-- Node3 -->
<g id="Node000003" class="node">
<title>Node3</title>
<g id="a_Node000003"><a xlink:title=" ">
<polygon fill="white" stroke="transparent" points="129,-503 0,-503 0,-454 129,-454 129,-503"/>
<text text-anchor="start" x="5.5" y="-490.5" font-family="Helvetica,sans-Serif" font-size="10.00">std::vector&lt; Node_ptr &gt;</text>
<text text-anchor="start" x="63" y="-475.5" font-family="Helvetica,sans-Serif" font-size="10.00"> </text>
<text text-anchor="start" x="63" y="-460.5" font-family="Helvetica,sans-Serif" font-size="10.00"> </text>
<polygon fill="#666666" stroke="#666666" points="0.5,-485.5 0.5,-485.5 129.5,-485.5 129.5,-485.5 0.5,-485.5"/>
<polygon fill="#666666" stroke="#666666" points="0.5,-470.5 0.5,-470.5 129.5,-470.5 129.5,-470.5 0.5,-470.5"/>
<polygon fill="none" stroke="#666666" points="0,-454 0,-503 129,-503 129,-454 0,-454"/>
</a>
</g>
</g>
<!-- Node3&#45;&gt;Node2 -->
<g id="edge2_Node000002_Node000003" class="edge">
<title>Node3&#45;&gt;Node2</title>
<g id="a_edge2_Node000002_Node000003"><a xlink:title=" ">
<path fill="none" stroke="#63b8ff" d="M64.5,-453.75C64.5,-441.37 64.5,-425.87 64.5,-411.62"/>
<polygon fill="none" stroke="#63b8ff" points="64.5,-411.52 60.5,-405.52 64.5,-399.52 68.5,-405.52 64.5,-411.52"/>
</a>
</g>
<text text-anchor="middle" x="77" y="-428" font-family="Helvetica,sans-Serif" font-size="10.00" fill="grey"> +ptr</text>
</g>
<!-- Node4 -->
<g id="Node000004" class="node">
<title>Node4</title>
<g id="a_Node000004"><a xlink:title=" ">
<polygon fill="white" stroke="transparent" points="120.5,-599 8.5,-599 8.5,-550 120.5,-550 120.5,-599"/>
<text text-anchor="start" x="13.5" y="-586.5" font-family="Helvetica,sans-Serif" font-size="10.00">std::shared_ptr&lt; T &gt;</text>
<text text-anchor="start" x="62.5" y="-571.5" font-family="Helvetica,sans-Serif" font-size="10.00"> </text>
<text text-anchor="start" x="20" y="-556.5" font-family="Helvetica,sans-Serif" font-size="10.00">+</text>
<text text-anchor="start" x="40.5" y="-556.5" font-family="Helvetica,sans-Serif" font-size="10.00">operator&#45;&gt;()</text>
<polygon fill="#666666" stroke="#666666" points="8.5,-581.5 8.5,-581.5 120.5,-581.5 120.5,-581.5 8.5,-581.5"/>
<polygon fill="#666666" stroke="#666666" points="8.5,-566.5 8.5,-566.5 120.5,-566.5 120.5,-566.5 8.5,-566.5"/>
<polygon fill="none" stroke="#666666" points="8.5,-550 8.5,-599 120.5,-599 120.5,-550 8.5,-550"/>
</a>
</g>
</g>
<!-- Node4&#45;&gt;Node3 -->
<g id="edge3_Node000003_Node000004" class="edge">
<title>Node4&#45;&gt;Node3</title>
<g id="a_edge3_Node000003_Node000004"><a xlink:title=" ">
<path fill="none" stroke="#63b8ff" d="M64.5,-549.78C64.5,-539.32 64.5,-526.79 64.5,-515.23"/>
<polygon fill="none" stroke="#63b8ff" points="64.5,-515.21 60.5,-509.21 64.5,-503.21 68.5,-509.21 64.5,-515.21"/>
</a>
</g>
<text text-anchor="middle" x="93.5" y="-524" font-family="Helvetica,sans-Serif" font-size="10.00" fill="grey"> +elements</text>
</g>
<!-- Node5 -->
<g id="Node000005" class="node">
<title>Node5</title>
<g id="a_Node000005"><a xlink:title=" ">
<polygon fill="white" stroke="transparent" points="73,-695 56,-695 56,-646 73,-646 73,-695"/>
<text text-anchor="start" x="61.5" y="-682.5" font-family="Helvetica,sans-Serif" font-size="10.00">T</text>
<text text-anchor="start" x="63" y="-667.5" font-family="Helvetica,sans-Serif" font-size="10.00"> </text>
<text text-anchor="start" x="63" y="-652.5" font-family="Helvetica,sans-Serif" font-size="10.00"> </text>
<polygon fill="#bfbfbf" stroke="#bfbfbf" points="56.5,-677.5 56.5,-677.5 73.5,-677.5 73.5,-677.5 56.5,-677.5"/>
<polygon fill="#bfbfbf" stroke="#bfbfbf" points="56.5,-662.5 56.5,-662.5 73.5,-662.5 73.5,-662.5 56.5,-662.5"/>
<polygon fill="none" stroke="#bfbfbf" points="56,-646 56,-695 73,-695 73,-646 56,-646"/>
</a>
</g>
</g>
<!-- Node5&#45;&gt;Node4 -->
<g id="edge4_Node000004_Node000005" class="edge">
<title>Node5&#45;&gt;Node4</title>
<g id="a_edge4_Node000004_Node000005"><a xlink:title=" ">
<path fill="none" stroke="#63b8ff" d="M64.5,-645.78C64.5,-635.32 64.5,-622.79 64.5,-611.23"/>
<polygon fill="none" stroke="#63b8ff" points="64.5,-611.21 60.5,-605.21 64.5,-599.21 68.5,-605.21 64.5,-611.21"/>
</a>
</g>
<text text-anchor="middle" x="77" y="-620" font-family="Helvetica,sans-Serif" font-size="10.00" fill="grey"> +ptr</text>
</g>
<!-- Node6 -->
<g id="Node000006" class="node">
<title>Node6</title>
<g id="a_Node000006"><a xlink:title=" ">
<polygon fill="white" stroke="transparent" points="253.5,-407 145.5,-407 145.5,-332 253.5,-332 253.5,-407"/>
<text text-anchor="start" x="150.5" y="-394.5" font-family="Helvetica,sans-Serif" font-size="10.00">std::unordered_map</text>
<text text-anchor="start" x="151" y="-383.5" font-family="Helvetica,sans-Serif" font-size="10.00">&lt; int32_t, int32_t &gt;</text>
<text text-anchor="start" x="159.5" y="-368.5" font-family="Helvetica,sans-Serif" font-size="10.00">+</text>
<text text-anchor="start" x="182.5" y="-368.5" font-family="Helvetica,sans-Serif" font-size="10.00">keys</text>
<text text-anchor="start" x="159.5" y="-353.5" font-family="Helvetica,sans-Serif" font-size="10.00">+</text>
<text text-anchor="start" x="182.5" y="-353.5" font-family="Helvetica,sans-Serif" font-size="10.00">elements</text>
<text text-anchor="start" x="197.5" y="-338.5" font-family="Helvetica,sans-Serif" font-size="10.00"> </text>
<polygon fill="#666666" stroke="#666666" points="145.5,-378.5 145.5,-378.5 253.5,-378.5 253.5,-378.5 145.5,-378.5"/>
<polygon fill="#666666" stroke="#666666" points="145.5,-348.5 145.5,-348.5 180.5,-348.5 180.5,-348.5 145.5,-348.5"/>
<polygon fill="#666666" stroke="#666666" points="180.5,-348.5 180.5,-348.5 253.5,-348.5 253.5,-348.5 180.5,-348.5"/>
<polygon fill="none" stroke="#666666" points="145.5,-332 145.5,-407 253.5,-407 253.5,-332 145.5,-332"/>
</a>
</g>
</g>
<!-- Node6&#45;&gt;Node1 -->
<g id="edge5_Node000001_Node000006" class="edge">
<title>Node6&#45;&gt;Node1</title>
<g id="a_edge5_Node000001_Node000006"><a xlink:title=" ">
<path fill="none" stroke="#63b8ff" d="M188.42,-331.85C185.31,-321.55 181.72,-309.67 177.89,-296.98"/>
<polygon fill="none" stroke="#63b8ff" points="177.77,-296.61 172.21,-292.02 174.3,-285.12 179.87,-289.71 177.77,-296.61"/>
</a>
</g>
<text text-anchor="middle" x="215.5" y="-306" font-family="Helvetica,sans-Serif" font-size="10.00" fill="grey"> #m_node_ids</text>
</g>
</g>
</svg>
