<?xml version="1.0" encoding="UTF-8" standalone="no"?>
<!DOCTYPE svg PUBLIC "-//W3C//DTD SVG 1.1//EN"
 "http://www.w3.org/Graphics/SVG/1.1/DTD/svg11.dtd">
<!-- Generated by graphviz version 2.43.0 (0)
 -->
<!-- Title: src Pages: 1 -->
<svg width="180pt" height="132pt"
 viewBox="0.00 0.00 180.00 132.00" xmlns="http://www.w3.org/2000/svg" xmlns:xlink="http://www.w3.org/1999/xlink">
<g id="graph0" class="graph" transform="scale(1 1) rotate(0) translate(4 128)">
<title>src</title>
<polygon fill="white" stroke="transparent" points="-4,4 -4,-128 176,-128 176,4 -4,4"/>
<g id="clust1" class="cluster">
<title>clusterdir_62d1aedd6e29c199f7a3054c69201ebe</title>
<g id="a_clust1"><a xlink:href="dir_62d1aedd6e29c199f7a3054c69201ebe.html" target="_top">
<polygon fill="#eeeeff" stroke="black" points="8,-64 8,-116 164,-116 164,-64 8,-64"/>
</a>
</g>
</g>
<!-- dir_62d1aedd6e29c199f7a3054c69201ebe -->
<g id="node1" class="node">
<title>dir_62d1aedd6e29c199f7a3054c69201ebe</title>
<text text-anchor="middle" x="129" y="-87.5" font-family="Helvetica,sans-Serif" font-size="10.00">src</text>
</g>
<!-- dir_b77d4148b5c2232a759ebed9590e1b7d -->
<g id="node2" class="node">
<title>dir_b77d4148b5c2232a759ebed9590e1b7d</title>
<g id="a_node2"><a xlink:href="dir_b77d4148b5c2232a759ebed9590e1b7d.html" target="_top" xlink:title="cimg2num">
<polygon fill="white" stroke="black" points="84,-108 16,-108 16,-72 84,-72 84,-108"/>
<text text-anchor="middle" x="50" y="-87.5" font-family="Helvetica,sans-Serif" font-size="10.00">cimg2num</text>
</a>
</g>
</g>
<!-- dir_c5bd9479356315758215f331b902faba -->
<g id="node3" class="node">
<title>dir_c5bd9479356315758215f331b902faba</title>
<g id="a_node3"><a xlink:href="dir_c5bd9479356315758215f331b902faba.html" target="_top" xlink:title="include">
<polygon fill="white" stroke="red" points="77,-36 23,-36 23,0 77,0 77,-36"/>
<text text-anchor="middle" x="50" y="-15.5" font-family="Helvetica,sans-Serif" font-size="10.00">include</text>
</a>
</g>
</g>
<!-- dir_b77d4148b5c2232a759ebed9590e1b7d&#45;&gt;dir_c5bd9479356315758215f331b902faba -->
<g id="edge1" class="edge">
<title>dir_b77d4148b5c2232a759ebed9590e1b7d&#45;&gt;dir_c5bd9479356315758215f331b902faba</title>
<path fill="none" stroke="black" d="M50,-71.7C50,-63.98 50,-54.71 50,-46.11"/>
<polygon fill="black" stroke="black" points="53.5,-46.1 50,-36.1 46.5,-46.1 53.5,-46.1"/>
<g id="a_edge1&#45;headlabel"><a xlink:href="dir_000004_000001.html" target="_top" xlink:title="1">
<text text-anchor="middle" x="56.34" y="-47.2" font-family="Helvetica,sans-Serif" font-size="10.00">1</text>
</a>
</g>
</g>
</g>
</svg>
