<?xml version="1.0" encoding="UTF-8" standalone="no"?>
<!DOCTYPE svg PUBLIC "-//W3C//DTD SVG 1.1//EN"
 "http://www.w3.org/Graphics/SVG/1.1/DTD/svg11.dtd">
<!-- Generated by graphviz version 2.43.0 (0)
 -->
<!-- Title: Graph Pages: 1 -->
<svg width="272pt" height="314pt"
 viewBox="0.00 0.00 271.50 314.00" xmlns="http://www.w3.org/2000/svg" xmlns:xlink="http://www.w3.org/1999/xlink">
<g id="graph0" class="graph" transform="scale(1 1) rotate(0) translate(4 310)">
<title>Graph</title>
<polygon fill="white" stroke="transparent" points="-4,4 -4,-310 267.5,-310 267.5,4 -4,4"/>
<!-- Node1 -->
<g id="node1" class="node">
<title>Node1</title>
<g id="a_node1"><a xlink:title=" ">
<polygon fill="#bfbfbf" stroke="black" points="55,-0.5 55,-178.5 216,-178.5 216,-0.5 55,-0.5"/>
<text text-anchor="middle" x="135.5" y="-166.5" font-family="Helvetica,sans-Serif" font-size="10.00">Graph</text>
<polyline fill="none" stroke="black" points="55,-159.5 216,-159.5 "/>
<text text-anchor="start" x="63" y="-147.5" font-family="Helvetica,sans-Serif" font-size="10.00"># m_width</text>
<text text-anchor="start" x="63" y="-136.5" font-family="Helvetica,sans-Serif" font-size="10.00"># m_height</text>
<polyline fill="none" stroke="black" points="55,-129.5 216,-129.5 "/>
<text text-anchor="start" x="63" y="-117.5" font-family="Helvetica,sans-Serif" font-size="10.00">+ Graph()</text>
<text text-anchor="start" x="63" y="-106.5" font-family="Helvetica,sans-Serif" font-size="10.00">+ add_edge()</text>
<text text-anchor="start" x="63" y="-95.5" font-family="Helvetica,sans-Serif" font-size="10.00">+ merge_nodes()</text>
<text text-anchor="start" x="63" y="-84.5" font-family="Helvetica,sans-Serif" font-size="10.00">+ clear_unconnected_nodes()</text>
<text text-anchor="start" x="63" y="-73.5" font-family="Helvetica,sans-Serif" font-size="10.00">+ get_nodes()</text>
<text text-anchor="start" x="63" y="-62.5" font-family="Helvetica,sans-Serif" font-size="10.00">+ all_areas_bigger_than()</text>
<text text-anchor="start" x="63" y="-51.5" font-family="Helvetica,sans-Serif" font-size="10.00">+ size()</text>
<text text-anchor="start" x="63" y="-40.5" font-family="Helvetica,sans-Serif" font-size="10.00">+ discover_edges()</text>
<text text-anchor="start" x="63" y="-29.5" font-family="Helvetica,sans-Serif" font-size="10.00">+ merge_small_area_nodes()</text>
<text text-anchor="start" x="63" y="-18.5" font-family="Helvetica,sans-Serif" font-size="10.00">+ compute_contours()</text>
<text text-anchor="start" x="63" y="-7.5" font-family="Helvetica,sans-Serif" font-size="10.00"># hash_node_ids()</text>
</a>
</g>
</g>
<!-- Node2 -->
<g id="node2" class="node">
<title>Node2</title>
<g id="a_node2"><a xlink:title=" ">
<polygon fill="white" stroke="#bfbfbf" points="0,-232 0,-300 131,-300 131,-232 0,-232"/>
<text text-anchor="start" x="8" y="-288" font-family="Helvetica,sans-Serif" font-size="10.00">std::unique_ptr&lt; std</text>
<text text-anchor="middle" x="65.5" y="-277" font-family="Helvetica,sans-Serif" font-size="10.00">::vector&lt; Node_ptr &gt; &gt;</text>
<polyline fill="none" stroke="#bfbfbf" points="0,-270 131,-270 "/>
<text text-anchor="start" x="8" y="-258" font-family="Helvetica,sans-Serif" font-size="10.00">+ ptr</text>
<polyline fill="none" stroke="#bfbfbf" points="0,-251 131,-251 "/>
<text text-anchor="start" x="8" y="-239" font-family="Helvetica,sans-Serif" font-size="10.00">+ operator&#45;&gt;()</text>
</a>
</g>
</g>
<!-- Node2&#45;&gt;Node1 -->
<g id="edge1" class="edge">
<title>Node2&#45;&gt;Node1</title>
<path fill="none" stroke="#404040" d="M78.83,-231.77C83.7,-219.63 89.49,-205.2 95.48,-190.27"/>
<polygon fill="none" stroke="#404040" points="95.62,-189.92 94.14,-182.86 100.09,-178.78 101.57,-185.84 95.62,-189.92"/>
<text text-anchor="middle" x="120.5" y="-200" font-family="Helvetica,sans-Serif" font-size="10.00"> #m_nodes</text>
</g>
<!-- Node3 -->
<g id="node3" class="node">
<title>Node3</title>
<g id="a_node3"><a xlink:title=" ">
<polygon fill="white" stroke="#bfbfbf" points="149.5,-226.5 149.5,-305.5 263.5,-305.5 263.5,-226.5 149.5,-226.5"/>
<text text-anchor="start" x="157.5" y="-293.5" font-family="Helvetica,sans-Serif" font-size="10.00">std::unordered_map</text>
<text text-anchor="middle" x="206.5" y="-282.5" font-family="Helvetica,sans-Serif" font-size="10.00">&lt; int32_t, int32_t &gt;</text>
<polyline fill="none" stroke="#bfbfbf" points="149.5,-275.5 263.5,-275.5 "/>
<text text-anchor="start" x="157.5" y="-263.5" font-family="Helvetica,sans-Serif" font-size="10.00">+ keys</text>
<text text-anchor="start" x="157.5" y="-252.5" font-family="Helvetica,sans-Serif" font-size="10.00">+ elements</text>
<polyline fill="none" stroke="#bfbfbf" points="149.5,-245.5 263.5,-245.5 "/>
<text text-anchor="middle" x="206.5" y="-233.5" font-family="Helvetica,sans-Serif" font-size="10.00"> </text>
</a>
</g>
</g>
<!-- Node3&#45;&gt;Node1 -->
<g id="edge2" class="edge">
<title>Node3&#45;&gt;Node1</title>
<path fill="none" stroke="#404040" d="M190.74,-226.27C186.29,-215.32 181.22,-202.88 176.01,-190.07"/>
<polygon fill="none" stroke="#404040" points="175.93,-189.87 169.96,-185.82 171.41,-178.75 177.37,-182.8 175.93,-189.87"/>
<text text-anchor="middle" x="216.5" y="-200" font-family="Helvetica,sans-Serif" font-size="10.00"> #m_node_ids</text>
</g>
</g>
</svg>
