<?xml version="1.0" encoding="UTF-8" standalone="no"?>
<!DOCTYPE svg PUBLIC "-//W3C//DTD SVG 1.1//EN"
 "http://www.w3.org/Graphics/SVG/1.1/DTD/svg11.dtd">
<!-- Generated by graphviz version 2.42.4 (0)
 -->
<!-- Title: Graph Pages: 1 -->
<svg width="262pt" height="632pt"
 viewBox="0.00 0.00 261.50 632.00" xmlns="http://www.w3.org/2000/svg" xmlns:xlink="http://www.w3.org/1999/xlink">
<g id="graph0" class="graph" transform="scale(1 1) rotate(0) translate(4 628)">
<title>Graph</title>
<!-- Node1 -->
<g id="Node000001" class="node">
<title>Node1</title>
<g id="a_Node000001"><a xlink:title=" ">
<polygon fill="#999999" stroke="transparent" points="209,-214 54,-214 54,0 209,0 209,-214"/>
<text text-anchor="start" x="117" y="-202" font-family="Helvetica,sans-Serif" font-size="10.00">Graph</text>
<text text-anchor="start" x="58.5" y="-187" font-family="Helvetica,sans-Serif" font-size="10.00">#</text>
<text text-anchor="start" x="71.5" y="-187" font-family="Helvetica,sans-Serif" font-size="10.00">m_width</text>
<text text-anchor="start" x="58.5" y="-172" font-family="Helvetica,sans-Serif" font-size="10.00">#</text>
<text text-anchor="start" x="71.5" y="-172" font-family="Helvetica,sans-Serif" font-size="10.00">m_height</text>
<text text-anchor="start" x="58.5" y="-157" font-family="Helvetica,sans-Serif" font-size="10.00">+</text>
<text text-anchor="start" x="71.5" y="-157" font-family="Helvetica,sans-Serif" font-size="10.00">Graph()</text>
<text text-anchor="start" x="58.5" y="-142" font-family="Helvetica,sans-Serif" font-size="10.00">+</text>
<text text-anchor="start" x="71.5" y="-142" font-family="Helvetica,sans-Serif" font-size="10.00">add_edge()</text>
<text text-anchor="start" x="58.5" y="-127" font-family="Helvetica,sans-Serif" font-size="10.00">+</text>
<text text-anchor="start" x="71.5" y="-127" font-family="Helvetica,sans-Serif" font-size="10.00">merge_nodes()</text>
<text text-anchor="start" x="58.5" y="-112" font-family="Helvetica,sans-Serif" font-size="10.00">+</text>
<text text-anchor="start" x="71.5" y="-112" font-family="Helvetica,sans-Serif" font-size="10.00">clear_unconnected_nodes()</text>
<text text-anchor="start" x="58.5" y="-97" font-family="Helvetica,sans-Serif" font-size="10.00">+</text>
<text text-anchor="start" x="71.5" y="-97" font-family="Helvetica,sans-Serif" font-size="10.00">get_nodes()</text>
<text text-anchor="start" x="58.5" y="-82" font-family="Helvetica,sans-Serif" font-size="10.00">+</text>
<text text-anchor="start" x="71.5" y="-82" font-family="Helvetica,sans-Serif" font-size="10.00">all_areas_bigger_than()</text>
<text text-anchor="start" x="58.5" y="-67" font-family="Helvetica,sans-Serif" font-size="10.00">+</text>
<text text-anchor="start" x="71.5" y="-67" font-family="Helvetica,sans-Serif" font-size="10.00">size()</text>
<text text-anchor="start" x="58.5" y="-52" font-family="Helvetica,sans-Serif" font-size="10.00">+</text>
<text text-anchor="start" x="71.5" y="-52" font-family="Helvetica,sans-Serif" font-size="10.00">discover_edges()</text>
<text text-anchor="start" x="58.5" y="-37" font-family="Helvetica,sans-Serif" font-size="10.00">+</text>
<text text-anchor="start" x="71.5" y="-37" font-family="Helvetica,sans-Serif" font-size="10.00">merge_small_area_nodes()</text>
<text text-anchor="start" x="58.5" y="-22" font-family="Helvetica,sans-Serif" font-size="10.00">+</text>
<text text-anchor="start" x="71.5" y="-22" font-family="Helvetica,sans-Serif" font-size="10.00">compute_contours()</text>
<text text-anchor="start" x="58.5" y="-7" font-family="Helvetica,sans-Serif" font-size="10.00">#</text>
<text text-anchor="start" x="71.5" y="-7" font-family="Helvetica,sans-Serif" font-size="10.00">hash_node_ids()</text>
<polygon fill="#666666" stroke="#666666" points="54.5,-197 54.5,-197 209.5,-197 209.5,-197 54.5,-197"/>
<polygon fill="#666666" stroke="#666666" points="54.5,-167 54.5,-167 69.5,-167 69.5,-167 54.5,-167"/>
<polygon fill="#666666" stroke="#666666" points="69.5,-167 69.5,-167 209.5,-167 209.5,-167 69.5,-167"/>
<polygon fill="none" stroke="#666666" points="54,0 54,-214 209,-214 209,0 54,0"/>
</a>
</g>
</g>
<!-- Node2 -->
<g id="Node000002" class="node">
<title>Node2</title>
<g id="a_Node000002"><a xlink:title=" ">
<polygon fill="white" stroke="transparent" points="127,-328.5 2,-328.5 2,-268.5 127,-268.5 127,-328.5"/>
<text text-anchor="start" x="7.5" y="-316.5" font-family="Helvetica,sans-Serif" font-size="10.00">std::unique_ptr&lt; std</text>
<text text-anchor="start" x="7.5" y="-305.5" font-family="Helvetica,sans-Serif" font-size="10.00">::vector&lt; Node_ptr &gt; &gt;</text>
<text text-anchor="start" x="63" y="-290.5" font-family="Helvetica,sans-Serif" font-size="10.00"> </text>
<text text-anchor="start" x="17" y="-275.5" font-family="Helvetica,sans-Serif" font-size="10.00">+</text>
<text text-anchor="start" x="40.5" y="-275.5" font-family="Helvetica,sans-Serif" font-size="10.00">operator&#45;&gt;()</text>
<polygon fill="#666666" stroke="#666666" points="2.5,-300.5 2.5,-300.5 127.5,-300.5 127.5,-300.5 2.5,-300.5"/>
<polygon fill="#666666" stroke="#666666" points="2.5,-285.5 2.5,-285.5 127.5,-285.5 127.5,-285.5 2.5,-285.5"/>
<polygon fill="none" stroke="#666666" points="2,-268.5 2,-328.5 127,-328.5 127,-268.5 2,-268.5"/>
</a>
</g>
</g>
<!-- Node2&#45;&gt;Node1 -->
<g id="edge1_Node000001_Node000002" class="edge">
<title>Node2&#45;&gt;Node1</title>
<g id="a_edge1_Node000001_Node000002"><a xlink:title=" ">
<path fill="none" stroke="#63b8ff" d="M74.82,-268.31C79.08,-256.28 84.31,-241.48 89.86,-225.79"/>
<polygon fill="none" stroke="#63b8ff" points="89.94,-225.54 88.17,-218.55 93.94,-214.23 95.71,-221.22 89.94,-225.54"/>
</a>
</g>
<text text-anchor="middle" x="114.5" y="-235" font-family="Helvetica,sans-Serif" font-size="10.00" fill="grey"> #m_nodes</text>
</g>
<!-- Node3 -->
<g id="Node000003" class="node">
<title>Node3</title>
<g id="a_Node000003"><a xlink:title=" ">
<polygon fill="white" stroke="transparent" points="129,-432 0,-432 0,-383 129,-383 129,-432"/>
<text text-anchor="start" x="5.5" y="-419.5" font-family="Helvetica,sans-Serif" font-size="10.00">std::vector&lt; Node_ptr &gt;</text>
<text text-anchor="start" x="63" y="-404.5" font-family="Helvetica,sans-Serif" font-size="10.00"> </text>
<text text-anchor="start" x="63" y="-389.5" font-family="Helvetica,sans-Serif" font-size="10.00"> </text>
<polygon fill="#666666" stroke="#666666" points="0.5,-414.5 0.5,-414.5 129.5,-414.5 129.5,-414.5 0.5,-414.5"/>
<polygon fill="#666666" stroke="#666666" points="0.5,-399.5 0.5,-399.5 129.5,-399.5 129.5,-399.5 0.5,-399.5"/>
<polygon fill="none" stroke="#666666" points="0,-383 0,-432 129,-432 129,-383 0,-383"/>
</a>
</g>
</g>
<!-- Node3&#45;&gt;Node2 -->
<g id="edge2_Node000002_Node000003" class="edge">
<title>Node3&#45;&gt;Node2</title>
<g id="a_edge2_Node000002_Node000003"><a xlink:title=" ">
<path fill="none" stroke="#63b8ff" d="M64.5,-382.75C64.5,-370.37 64.5,-354.87 64.5,-340.62"/>
<polygon fill="none" stroke="#63b8ff" points="64.5,-340.52 60.5,-334.52 64.5,-328.52 68.5,-334.52 64.5,-340.52"/>
</a>
</g>
<text text-anchor="middle" x="77" y="-357" font-family="Helvetica,sans-Serif" font-size="10.00" fill="grey"> +ptr</text>
</g>
<!-- Node4 -->
<g id="Node000004" class="node">
<title>Node4</title>
<g id="a_Node000004"><a xlink:title=" ">
<polygon fill="white" stroke="transparent" points="120.5,-528 8.5,-528 8.5,-479 120.5,-479 120.5,-528"/>
<text text-anchor="start" x="13.5" y="-515.5" font-family="Helvetica,sans-Serif" font-size="10.00">std::shared_ptr&lt; T &gt;</text>
<text text-anchor="start" x="62.5" y="-500.5" font-family="Helvetica,sans-Serif" font-size="10.00"> </text>
<text text-anchor="start" x="20" y="-485.5" font-family="Helvetica,sans-Serif" font-size="10.00">+</text>
<text text-anchor="start" x="40.5" y="-485.5" font-family="Helvetica,sans-Serif" font-size="10.00">operator&#45;&gt;()</text>
<polygon fill="#666666" stroke="#666666" points="8.5,-510.5 8.5,-510.5 120.5,-510.5 120.5,-510.5 8.5,-510.5"/>
<polygon fill="#666666" stroke="#666666" points="8.5,-495.5 8.5,-495.5 120.5,-495.5 120.5,-495.5 8.5,-495.5"/>
<polygon fill="none" stroke="#666666" points="8.5,-479 8.5,-528 120.5,-528 120.5,-479 8.5,-479"/>
</a>
</g>
</g>
<!-- Node4&#45;&gt;Node3 -->
<g id="edge3_Node000003_Node000004" class="edge">
<title>Node4&#45;&gt;Node3</title>
<g id="a_edge3_Node000003_Node000004"><a xlink:title=" ">
<path fill="none" stroke="#63b8ff" d="M64.5,-478.78C64.5,-468.32 64.5,-455.79 64.5,-444.23"/>
<polygon fill="none" stroke="#63b8ff" points="64.5,-444.21 60.5,-438.21 64.5,-432.21 68.5,-438.21 64.5,-444.21"/>
</a>
</g>
<text text-anchor="middle" x="93.5" y="-453" font-family="Helvetica,sans-Serif" font-size="10.00" fill="grey"> +elements</text>
</g>
<!-- Node5 -->
<g id="Node000005" class="node">
<title>Node5</title>
<g id="a_Node000005"><a xlink:title=" ">
<polygon fill="white" stroke="transparent" points="73,-624 56,-624 56,-575 73,-575 73,-624"/>
<text text-anchor="start" x="61.5" y="-611.5" font-family="Helvetica,sans-Serif" font-size="10.00">T</text>
<text text-anchor="start" x="63" y="-596.5" font-family="Helvetica,sans-Serif" font-size="10.00"> </text>
<text text-anchor="start" x="63" y="-581.5" font-family="Helvetica,sans-Serif" font-size="10.00"> </text>
<polygon fill="#bfbfbf" stroke="#bfbfbf" points="56.5,-606.5 56.5,-606.5 73.5,-606.5 73.5,-606.5 56.5,-606.5"/>
<polygon fill="#bfbfbf" stroke="#bfbfbf" points="56.5,-591.5 56.5,-591.5 73.5,-591.5 73.5,-591.5 56.5,-591.5"/>
<polygon fill="none" stroke="#bfbfbf" points="56,-575 56,-624 73,-624 73,-575 56,-575"/>
</a>
</g>
</g>
<!-- Node5&#45;&gt;Node4 -->
<g id="edge4_Node000004_Node000005" class="edge">
<title>Node5&#45;&gt;Node4</title>
<g id="a_edge4_Node000004_Node000005"><a xlink:title=" ">
<path fill="none" stroke="#63b8ff" d="M64.5,-574.78C64.5,-564.32 64.5,-551.79 64.5,-540.23"/>
<polygon fill="none" stroke="#63b8ff" points="64.5,-540.21 60.5,-534.21 64.5,-528.21 68.5,-534.21 64.5,-540.21"/>
</a>
</g>
<text text-anchor="middle" x="77" y="-549" font-family="Helvetica,sans-Serif" font-size="10.00" fill="grey"> +ptr</text>
</g>
<!-- Node6 -->
<g id="Node000006" class="node">
<title>Node6</title>
<g id="a_Node000006"><a xlink:title=" ">
<polygon fill="white" stroke="transparent" points="253.5,-336 145.5,-336 145.5,-261 253.5,-261 253.5,-336"/>
<text text-anchor="start" x="150.5" y="-323.5" font-family="Helvetica,sans-Serif" font-size="10.00">std::unordered_map</text>
<text text-anchor="start" x="151" y="-312.5" font-family="Helvetica,sans-Serif" font-size="10.00">&lt; int32_t, int32_t &gt;</text>
<text text-anchor="start" x="159.5" y="-297.5" font-family="Helvetica,sans-Serif" font-size="10.00">+</text>
<text text-anchor="start" x="182.5" y="-297.5" font-family="Helvetica,sans-Serif" font-size="10.00">keys</text>
<text text-anchor="start" x="159.5" y="-282.5" font-family="Helvetica,sans-Serif" font-size="10.00">+</text>
<text text-anchor="start" x="182.5" y="-282.5" font-family="Helvetica,sans-Serif" font-size="10.00">elements</text>
<text text-anchor="start" x="197.5" y="-267.5" font-family="Helvetica,sans-Serif" font-size="10.00"> </text>
<polygon fill="#666666" stroke="#666666" points="145.5,-307.5 145.5,-307.5 253.5,-307.5 253.5,-307.5 145.5,-307.5"/>
<polygon fill="#666666" stroke="#666666" points="145.5,-277.5 145.5,-277.5 180.5,-277.5 180.5,-277.5 145.5,-277.5"/>
<polygon fill="#666666" stroke="#666666" points="180.5,-277.5 180.5,-277.5 253.5,-277.5 253.5,-277.5 180.5,-277.5"/>
<polygon fill="none" stroke="#666666" points="145.5,-261 145.5,-336 253.5,-336 253.5,-261 145.5,-261"/>
</a>
</g>
</g>
<!-- Node6&#45;&gt;Node1 -->
<g id="edge5_Node000001_Node000006" class="edge">
<title>Node6&#45;&gt;Node1</title>
<g id="a_edge5_Node000001_Node000006"><a xlink:title=" ">
<path fill="none" stroke="#63b8ff" d="M186.39,-260.96C182.6,-250.4 178.24,-238.26 173.68,-225.53"/>
<polygon fill="none" stroke="#63b8ff" points="173.67,-225.52 167.88,-221.23 169.62,-214.23 175.41,-218.52 173.67,-225.52"/>
</a>
</g>
<text text-anchor="middle" x="213.5" y="-235" font-family="Helvetica,sans-Serif" font-size="10.00" fill="grey"> #m_node_ids</text>
</g>
</g>
</svg>
