<?xml version="1.0" encoding="UTF-8" standalone="no"?>
<!DOCTYPE svg PUBLIC "-//W3C//DTD SVG 1.1//EN"
 "http://www.w3.org/Graphics/SVG/1.1/DTD/svg11.dtd">
<!-- Generated by graphviz version 2.43.0 (0)
 -->
<!-- Title: Node Pages: 1 -->
<svg width="827pt" height="856pt"
 viewBox="0.00 0.00 827.00 856.00" xmlns="http://www.w3.org/2000/svg" xmlns:xlink="http://www.w3.org/1999/xlink">
<g id="graph0" class="graph" transform="scale(1 1) rotate(0) translate(4 852)">
<title>Node</title>
<polygon fill="white" stroke="transparent" points="-4,4 -4,-852 823,-852 823,4 -4,4"/>
<!-- Node1 -->
<g id="node1" class="node">
<title>Node1</title>
<g id="a_node1"><a xlink:title=" ">
<polygon fill="#bfbfbf" stroke="black" points="488.5,-0.5 488.5,-167.5 626.5,-167.5 626.5,-0.5 488.5,-0.5"/>
<text text-anchor="middle" x="557.5" y="-155.5" font-family="Helvetica,sans-Serif" font-size="10.00">Node</text>
<polyline fill="none" stroke="black" points="488.5,-148.5 626.5,-148.5 "/>
<text text-anchor="start" x="496.5" y="-136.5" font-family="Helvetica,sans-Serif" font-size="10.00"># m_id</text>
<polyline fill="none" stroke="black" points="488.5,-129.5 626.5,-129.5 "/>
<text text-anchor="start" x="496.5" y="-117.5" font-family="Helvetica,sans-Serif" font-size="10.00">+ Node()</text>
<text text-anchor="start" x="496.5" y="-106.5" font-family="Helvetica,sans-Serif" font-size="10.00">+ centroid()</text>
<text text-anchor="start" x="496.5" y="-95.5" font-family="Helvetica,sans-Serif" font-size="10.00">+ color()</text>
<text text-anchor="start" x="496.5" y="-84.5" font-family="Helvetica,sans-Serif" font-size="10.00">+ bounding_box_xywh()</text>
<text text-anchor="start" x="496.5" y="-73.5" font-family="Helvetica,sans-Serif" font-size="10.00">+ create_binary_image()</text>
<text text-anchor="start" x="496.5" y="-62.5" font-family="Helvetica,sans-Serif" font-size="10.00">+ clear_contour()</text>
<text text-anchor="start" x="496.5" y="-51.5" font-family="Helvetica,sans-Serif" font-size="10.00">+ compute_contour()</text>
<text text-anchor="start" x="496.5" y="-40.5" font-family="Helvetica,sans-Serif" font-size="10.00">+ id()</text>
<text text-anchor="start" x="496.5" y="-29.5" font-family="Helvetica,sans-Serif" font-size="10.00">+ area()</text>
<text text-anchor="start" x="496.5" y="-18.5" font-family="Helvetica,sans-Serif" font-size="10.00">+ edges()</text>
<text text-anchor="start" x="496.5" y="-7.5" font-family="Helvetica,sans-Serif" font-size="10.00">and 10 more...</text>
</a>
</g>
</g>
<!-- Node2 -->
<g id="node2" class="node">
<title>Node2</title>
<g id="a_node2"><a xlink:title=" ">
<polygon fill="white" stroke="#bfbfbf" points="302.5,-221 302.5,-278 390.5,-278 390.5,-221 302.5,-221"/>
<text text-anchor="middle" x="346.5" y="-266" font-family="Helvetica,sans-Serif" font-size="10.00">std::set&lt; XY &gt;</text>
<polyline fill="none" stroke="#bfbfbf" points="302.5,-259 390.5,-259 "/>
<text text-anchor="middle" x="346.5" y="-247" font-family="Helvetica,sans-Serif" font-size="10.00"> </text>
<polyline fill="none" stroke="#bfbfbf" points="302.5,-240 390.5,-240 "/>
<text text-anchor="middle" x="346.5" y="-228" font-family="Helvetica,sans-Serif" font-size="10.00"> </text>
</a>
</g>
</g>
<!-- Node2&#45;&gt;Node1 -->
<g id="edge1" class="edge">
<title>Node2&#45;&gt;Node1</title>
<path fill="none" stroke="#404040" d="M380.52,-220.93C394.13,-209.97 410,-197.31 424.5,-186 441.86,-172.46 460.62,-158.06 478.43,-144.51"/>
<polygon fill="none" stroke="#404040" points="478.65,-144.34 481.01,-137.53 488.21,-137.08 485.85,-143.9 478.65,-144.34"/>
<text text-anchor="middle" x="467" y="-189" font-family="Helvetica,sans-Serif" font-size="10.00"> #m_edge_pixels</text>
</g>
<!-- Node3 -->
<g id="node3" class="node">
<title>Node3</title>
<g id="a_node3"><a xlink:href="structXY.html" target="_top" xlink:title=" ">
<polygon fill="white" stroke="black" points="221,-331.5 221,-421.5 306,-421.5 306,-331.5 221,-331.5"/>
<text text-anchor="middle" x="263.5" y="-409.5" font-family="Helvetica,sans-Serif" font-size="10.00">XY</text>
<polyline fill="none" stroke="black" points="221,-402.5 306,-402.5 "/>
<text text-anchor="start" x="229" y="-390.5" font-family="Helvetica,sans-Serif" font-size="10.00">+ x</text>
<text text-anchor="start" x="229" y="-379.5" font-family="Helvetica,sans-Serif" font-size="10.00">+ y</text>
<text text-anchor="start" x="229" y="-368.5" font-family="Helvetica,sans-Serif" font-size="10.00">+ xy</text>
<polyline fill="none" stroke="black" points="221,-361.5 306,-361.5 "/>
<text text-anchor="start" x="229" y="-349.5" font-family="Helvetica,sans-Serif" font-size="10.00">+ XY()</text>
<text text-anchor="start" x="229" y="-338.5" font-family="Helvetica,sans-Serif" font-size="10.00">+ operator&lt;()</text>
</a>
</g>
</g>
<!-- Node3&#45;&gt;Node2 -->
<g id="edge2" class="edge">
<title>Node3&#45;&gt;Node2</title>
<path fill="none" stroke="#404040" d="M292.76,-331.43C302.04,-317.45 312.22,-302.13 321.2,-288.61"/>
<polygon fill="none" stroke="#404040" points="321.46,-288.21 321.45,-281 328.1,-278.21 328.11,-285.42 321.46,-288.21"/>
<text text-anchor="middle" x="327.5" y="-305" font-family="Helvetica,sans-Serif" font-size="10.00"> +keys</text>
</g>
<!-- Node4 -->
<g id="node4" class="node">
<title>Node4</title>
<g id="a_node4"><a xlink:href="structColoredContours.html" target="_top" xlink:title=" ">
<polygon fill="white" stroke="black" points="444.5,-221 444.5,-278 542.5,-278 542.5,-221 444.5,-221"/>
<text text-anchor="middle" x="493.5" y="-266" font-family="Helvetica,sans-Serif" font-size="10.00">ColoredContours</text>
<polyline fill="none" stroke="black" points="444.5,-259 542.5,-259 "/>
<text text-anchor="middle" x="493.5" y="-247" font-family="Helvetica,sans-Serif" font-size="10.00"> </text>
<polyline fill="none" stroke="black" points="444.5,-240 542.5,-240 "/>
<text text-anchor="middle" x="493.5" y="-228" font-family="Helvetica,sans-Serif" font-size="10.00"> </text>
</a>
</g>
</g>
<!-- Node4&#45;&gt;Node1 -->
<g id="edge3" class="edge">
<title>Node4&#45;&gt;Node1</title>
<path fill="none" stroke="#404040" d="M504.36,-220.76C509.03,-208.81 514.8,-194.08 520.8,-178.76"/>
<polygon fill="none" stroke="#404040" points="520.81,-178.72 519.28,-171.67 525.19,-167.55 526.73,-174.59 520.81,-178.72"/>
<text text-anchor="middle" x="552" y="-189" font-family="Helvetica,sans-Serif" font-size="10.00"> +m_contours</text>
</g>
<!-- Node5 -->
<g id="node5" class="node">
<title>Node5</title>
<g id="a_node5"><a xlink:href="structContoursResult.html" target="_top" xlink:title=" ">
<polygon fill="white" stroke="black" points="324,-348 324,-405 415,-405 415,-348 324,-348"/>
<text text-anchor="middle" x="369.5" y="-393" font-family="Helvetica,sans-Serif" font-size="10.00">ContoursResult</text>
<polyline fill="none" stroke="black" points="324,-386 415,-386 "/>
<text text-anchor="middle" x="369.5" y="-374" font-family="Helvetica,sans-Serif" font-size="10.00"> </text>
<polyline fill="none" stroke="black" points="324,-367 415,-367 "/>
<text text-anchor="middle" x="369.5" y="-355" font-family="Helvetica,sans-Serif" font-size="10.00"> </text>
</a>
</g>
</g>
<!-- Node5&#45;&gt;Node4 -->
<g id="edge4" class="edge">
<title>Node5&#45;&gt;Node4</title>
<path fill="none" stroke="midnightblue" d="M404.27,-340.45C423.81,-320.75 447.85,-296.52 466.06,-278.16"/>
<polygon fill="none" stroke="midnightblue" points="401.58,-338.19 397.02,-347.76 406.55,-343.12 401.58,-338.19"/>
</g>
<!-- Node6 -->
<g id="node6" class="node">
<title>Node6</title>
<g id="a_node6"><a xlink:title=" ">
<polygon fill="white" stroke="#bfbfbf" points="0,-486 0,-554 131,-554 131,-486 0,-486"/>
<text text-anchor="start" x="8" y="-542" font-family="Helvetica,sans-Serif" font-size="10.00">std::vector&lt; std::vector</text>
<text text-anchor="middle" x="65.5" y="-531" font-family="Helvetica,sans-Serif" font-size="10.00">&lt; QuadBezier &gt; &gt;</text>
<polyline fill="none" stroke="#bfbfbf" points="0,-524 131,-524 "/>
<text text-anchor="start" x="8" y="-512" font-family="Helvetica,sans-Serif" font-size="10.00">+ elements</text>
<polyline fill="none" stroke="#bfbfbf" points="0,-505 131,-505 "/>
<text text-anchor="middle" x="65.5" y="-493" font-family="Helvetica,sans-Serif" font-size="10.00"> </text>
</a>
</g>
</g>
<!-- Node6&#45;&gt;Node5 -->
<g id="edge5" class="edge">
<title>Node6&#45;&gt;Node5</title>
<path fill="none" stroke="#404040" d="M110.62,-485.76C120.18,-479.63 130.43,-473.7 140.5,-469 182.05,-449.62 195.2,-451.8 239.5,-440 272.63,-431.18 283.75,-437.15 314.5,-422 320.01,-419.29 325.46,-415.94 330.67,-412.3"/>
<polygon fill="none" stroke="#404040" points="330.73,-412.25 333.13,-405.45 340.33,-405.06 337.93,-411.86 330.73,-412.25"/>
<text text-anchor="middle" x="261.5" y="-443" font-family="Helvetica,sans-Serif" font-size="10.00"> +curves</text>
</g>
<!-- Node7 -->
<g id="node7" class="node">
<title>Node7</title>
<g id="a_node7"><a xlink:title=" ">
<polygon fill="white" stroke="#bfbfbf" points="149.5,-491.5 149.5,-548.5 261.5,-548.5 261.5,-491.5 149.5,-491.5"/>
<text text-anchor="middle" x="205.5" y="-536.5" font-family="Helvetica,sans-Serif" font-size="10.00">std::vector&lt; bool &gt;</text>
<polyline fill="none" stroke="#bfbfbf" points="149.5,-529.5 261.5,-529.5 "/>
<text text-anchor="start" x="157.5" y="-517.5" font-family="Helvetica,sans-Serif" font-size="10.00">+ elements</text>
<polyline fill="none" stroke="#bfbfbf" points="149.5,-510.5 261.5,-510.5 "/>
<text text-anchor="middle" x="205.5" y="-498.5" font-family="Helvetica,sans-Serif" font-size="10.00"> </text>
</a>
</g>
</g>
<!-- Node7&#45;&gt;Node5 -->
<g id="edge6" class="edge">
<title>Node7&#45;&gt;Node5</title>
<path fill="none" stroke="#404040" d="M237.51,-491.38C263.47,-468.98 300.25,-437.25 328.39,-412.97"/>
<polygon fill="none" stroke="#404040" points="328.48,-412.89 330.41,-405.94 337.57,-405.05 335.64,-412 328.48,-412.89"/>
<text text-anchor="middle" x="315.5" y="-443" font-family="Helvetica,sans-Serif" font-size="10.00"> +is_hole</text>
</g>
<!-- Node8 -->
<g id="node8" class="node">
<title>Node8</title>
<g id="a_node8"><a xlink:title=" ">
<polygon fill="white" stroke="#bfbfbf" points="279.5,-486 279.5,-554 405.5,-554 405.5,-486 279.5,-486"/>
<text text-anchor="start" x="287.5" y="-542" font-family="Helvetica,sans-Serif" font-size="10.00">std::vector&lt; std::array</text>
<text text-anchor="middle" x="342.5" y="-531" font-family="Helvetica,sans-Serif" font-size="10.00">&lt; int, 4 &gt; &gt;</text>
<polyline fill="none" stroke="#bfbfbf" points="279.5,-524 405.5,-524 "/>
<text text-anchor="middle" x="342.5" y="-512" font-family="Helvetica,sans-Serif" font-size="10.00"> </text>
<polyline fill="none" stroke="#bfbfbf" points="279.5,-505 405.5,-505 "/>
<text text-anchor="middle" x="342.5" y="-493" font-family="Helvetica,sans-Serif" font-size="10.00"> </text>
</a>
</g>
</g>
<!-- Node8&#45;&gt;Node5 -->
<g id="edge7" class="edge">
<title>Node8&#45;&gt;Node5</title>
<path fill="none" stroke="#404040" d="M348.83,-485.82C352.74,-465.34 357.78,-438.93 361.9,-417.32"/>
<polygon fill="none" stroke="#404040" points="361.96,-417.02 359.15,-410.38 364.21,-405.23 367.01,-411.88 361.96,-417.02"/>
<text text-anchor="middle" x="386.5" y="-443" font-family="Helvetica,sans-Serif" font-size="10.00"> +hierarchy</text>
</g>
<!-- Node9 -->
<g id="node9" class="node">
<title>Node9</title>
<g id="a_node9"><a xlink:title=" ">
<polygon fill="white" stroke="#bfbfbf" points="287.5,-657 287.5,-714 397.5,-714 397.5,-657 287.5,-657"/>
<text text-anchor="middle" x="342.5" y="-702" font-family="Helvetica,sans-Serif" font-size="10.00">std::array&lt; int, 4 &gt;</text>
<polyline fill="none" stroke="#bfbfbf" points="287.5,-695 397.5,-695 "/>
<text text-anchor="start" x="295.5" y="-683" font-family="Helvetica,sans-Serif" font-size="10.00">+ elements</text>
<polyline fill="none" stroke="#bfbfbf" points="287.5,-676 397.5,-676 "/>
<text text-anchor="middle" x="342.5" y="-664" font-family="Helvetica,sans-Serif" font-size="10.00"> </text>
</a>
</g>
</g>
<!-- Node9&#45;&gt;Node8 -->
<g id="edge8" class="edge">
<title>Node9&#45;&gt;Node8</title>
<path fill="none" stroke="#404040" d="M342.5,-656.76C342.5,-632.08 342.5,-595.51 342.5,-566.54"/>
<polygon fill="none" stroke="#404040" points="342.5,-566.24 338.5,-560.24 342.5,-554.24 346.5,-560.24 342.5,-566.24"/>
<text text-anchor="middle" x="371.5" y="-592" font-family="Helvetica,sans-Serif" font-size="10.00"> +elements</text>
</g>
<!-- Node10 -->
<g id="node10" class="node">
<title>Node10</title>
<g id="a_node10"><a xlink:title=" ">
<polygon fill="white" stroke="#bfbfbf" points="424,-486 424,-554 555,-554 555,-486 424,-486"/>
<text text-anchor="start" x="432" y="-542" font-family="Helvetica,sans-Serif" font-size="10.00">std::vector&lt; std::vector</text>
<text text-anchor="middle" x="489.5" y="-531" font-family="Helvetica,sans-Serif" font-size="10.00">&lt; Point &gt; &gt;</text>
<polyline fill="none" stroke="#bfbfbf" points="424,-524 555,-524 "/>
<text text-anchor="start" x="432" y="-512" font-family="Helvetica,sans-Serif" font-size="10.00">+ elements</text>
<polyline fill="none" stroke="#bfbfbf" points="424,-505 555,-505 "/>
<text text-anchor="middle" x="489.5" y="-493" font-family="Helvetica,sans-Serif" font-size="10.00"> </text>
</a>
</g>
</g>
<!-- Node10&#45;&gt;Node5 -->
<g id="edge9" class="edge">
<title>Node10&#45;&gt;Node5</title>
<path fill="none" stroke="#404040" d="M461.37,-485.82C443.26,-464.48 419.71,-436.7 400.98,-414.62"/>
<polygon fill="none" stroke="#404040" points="400.78,-414.38 393.85,-412.39 393.02,-405.23 399.95,-407.22 400.78,-414.38"/>
<text text-anchor="middle" x="456.5" y="-443" font-family="Helvetica,sans-Serif" font-size="10.00"> +contours</text>
</g>
<!-- Node11 -->
<g id="node11" class="node">
<title>Node11</title>
<g id="a_node11"><a xlink:title=" ">
<polygon fill="white" stroke="#bfbfbf" points="463,-342.5 463,-410.5 604,-410.5 604,-342.5 463,-342.5"/>
<text text-anchor="start" x="471" y="-398.5" font-family="Helvetica,sans-Serif" font-size="10.00">std::vector&lt; ImageLib</text>
<text text-anchor="middle" x="533.5" y="-387.5" font-family="Helvetica,sans-Serif" font-size="10.00">::RGBAPixel&lt; uint8_t &gt; &gt;</text>
<polyline fill="none" stroke="#bfbfbf" points="463,-380.5 604,-380.5 "/>
<text text-anchor="middle" x="533.5" y="-368.5" font-family="Helvetica,sans-Serif" font-size="10.00"> </text>
<polyline fill="none" stroke="#bfbfbf" points="463,-361.5 604,-361.5 "/>
<text text-anchor="middle" x="533.5" y="-349.5" font-family="Helvetica,sans-Serif" font-size="10.00"> </text>
</a>
</g>
</g>
<!-- Node11&#45;&gt;Node4 -->
<g id="edge10" class="edge">
<title>Node11&#45;&gt;Node4</title>
<path fill="none" stroke="#404040" d="M522.89,-342.33C517.75,-326.27 511.54,-306.86 506.15,-290.03"/>
<polygon fill="none" stroke="#404040" points="506.06,-289.75 500.42,-285.26 502.4,-278.32 508.04,-282.82 506.06,-289.75"/>
<text text-anchor="middle" x="534" y="-305" font-family="Helvetica,sans-Serif" font-size="10.00"> +colors</text>
</g>
<!-- Node12 -->
<g id="node12" class="node">
<title>Node12</title>
<g id="a_node12"><a xlink:href="structImageLib_1_1RGBAPixel.html" target="_top" xlink:title=" ">
<polygon fill="white" stroke="black" points="573,-469.5 573,-570.5 692,-570.5 692,-469.5 573,-469.5"/>
<text text-anchor="start" x="581" y="-558.5" font-family="Helvetica,sans-Serif" font-size="10.00">ImageLib::RGBAPixel</text>
<text text-anchor="middle" x="632.5" y="-547.5" font-family="Helvetica,sans-Serif" font-size="10.00">&lt; uint8_t &gt;</text>
<polyline fill="none" stroke="black" points="573,-540.5 692,-540.5 "/>
<text text-anchor="start" x="581" y="-528.5" font-family="Helvetica,sans-Serif" font-size="10.00">+ alpha</text>
<polyline fill="none" stroke="black" points="573,-521.5 692,-521.5 "/>
<text text-anchor="start" x="581" y="-509.5" font-family="Helvetica,sans-Serif" font-size="10.00">+ RGBAPixel()</text>
<text text-anchor="start" x="581" y="-498.5" font-family="Helvetica,sans-Serif" font-size="10.00">+ operator==()</text>
<text text-anchor="start" x="581" y="-487.5" font-family="Helvetica,sans-Serif" font-size="10.00">+ operator!=()</text>
<text text-anchor="start" x="581" y="-476.5" font-family="Helvetica,sans-Serif" font-size="10.00">+ setGray()</text>
</a>
</g>
</g>
<!-- Node12&#45;&gt;Node11 -->
<g id="edge11" class="edge">
<title>Node12&#45;&gt;Node11</title>
<path fill="none" stroke="#404040" d="M597.6,-469.11C586.56,-453.34 574.46,-436.04 563.78,-420.77"/>
<polygon fill="none" stroke="#404040" points="563.51,-420.4 556.8,-417.78 556.63,-410.57 563.35,-413.19 563.51,-420.4"/>
<text text-anchor="middle" x="611.5" y="-443" font-family="Helvetica,sans-Serif" font-size="10.00"> +elements</text>
</g>
<!-- Node13 -->
<g id="node13" class="node">
<title>Node13</title>
<g id="a_node13"><a xlink:href="structImageLib_1_1RGBPixel.html" target="_top" xlink:title=" ">
<polygon fill="white" stroke="black" points="576.5,-618.5 576.5,-752.5 688.5,-752.5 688.5,-618.5 576.5,-618.5"/>
<text text-anchor="start" x="584.5" y="-740.5" font-family="Helvetica,sans-Serif" font-size="10.00">ImageLib::RGBPixel</text>
<text text-anchor="middle" x="632.5" y="-729.5" font-family="Helvetica,sans-Serif" font-size="10.00">&lt; uint8_t &gt;</text>
<polyline fill="none" stroke="black" points="576.5,-722.5 688.5,-722.5 "/>
<text text-anchor="start" x="584.5" y="-710.5" font-family="Helvetica,sans-Serif" font-size="10.00">+ red</text>
<text text-anchor="start" x="584.5" y="-699.5" font-family="Helvetica,sans-Serif" font-size="10.00">+ green</text>
<text text-anchor="start" x="584.5" y="-688.5" font-family="Helvetica,sans-Serif" font-size="10.00">+ blue</text>
<polyline fill="none" stroke="black" points="576.5,-681.5 688.5,-681.5 "/>
<text text-anchor="start" x="584.5" y="-669.5" font-family="Helvetica,sans-Serif" font-size="10.00">+ RGBPixel()</text>
<text text-anchor="start" x="584.5" y="-658.5" font-family="Helvetica,sans-Serif" font-size="10.00">+ operator==()</text>
<text text-anchor="start" x="584.5" y="-647.5" font-family="Helvetica,sans-Serif" font-size="10.00">+ operator!=()</text>
<text text-anchor="start" x="584.5" y="-636.5" font-family="Helvetica,sans-Serif" font-size="10.00">+ setGray()</text>
<text text-anchor="start" x="584.5" y="-625.5" font-family="Helvetica,sans-Serif" font-size="10.00">+ colorDistance()</text>
</a>
</g>
</g>
<!-- Node13&#45;&gt;Node12 -->
<g id="edge12" class="edge">
<title>Node13&#45;&gt;Node12</title>
<path fill="none" stroke="midnightblue" d="M632.5,-608.29C632.5,-595.51 632.5,-582.56 632.5,-570.68"/>
<polygon fill="none" stroke="midnightblue" points="629,-608.47 632.5,-618.47 636,-608.47 629,-608.47"/>
</g>
<!-- Node14 -->
<g id="node14" class="node">
<title>Node14</title>
<g id="a_node14"><a xlink:href="structImageLib_1_1Pixel.html" target="_top" xlink:title=" ">
<polygon fill="white" stroke="black" points="553.5,-790.5 553.5,-847.5 711.5,-847.5 711.5,-790.5 553.5,-790.5"/>
<text text-anchor="middle" x="632.5" y="-835.5" font-family="Helvetica,sans-Serif" font-size="10.00">ImageLib::Pixel&lt; NumberT &gt;</text>
<polyline fill="none" stroke="black" points="553.5,-828.5 711.5,-828.5 "/>
<text text-anchor="middle" x="632.5" y="-816.5" font-family="Helvetica,sans-Serif" font-size="10.00"> </text>
<polyline fill="none" stroke="black" points="553.5,-809.5 711.5,-809.5 "/>
<text text-anchor="start" x="561.5" y="-797.5" font-family="Helvetica,sans-Serif" font-size="10.00">+ ~Pixel()</text>
</a>
</g>
</g>
<!-- Node14&#45;&gt;Node13 -->
<g id="edge13" class="edge">
<title>Node14&#45;&gt;Node13</title>
<path fill="none" stroke="midnightblue" d="M632.5,-780.33C632.5,-771.68 632.5,-762.23 632.5,-752.77"/>
<polygon fill="none" stroke="midnightblue" points="629,-780.43 632.5,-790.43 636,-780.43 629,-780.43"/>
</g>
<!-- Node15 -->
<g id="node15" class="node">
<title>Node15</title>
<g id="a_node15"><a xlink:title=" ">
<polygon fill="white" stroke="#bfbfbf" points="561,-221 561,-278 680,-278 680,-221 561,-221"/>
<text text-anchor="middle" x="620.5" y="-266" font-family="Helvetica,sans-Serif" font-size="10.00">std::set&lt; Node_ptr &gt;</text>
<polyline fill="none" stroke="#bfbfbf" points="561,-259 680,-259 "/>
<text text-anchor="middle" x="620.5" y="-247" font-family="Helvetica,sans-Serif" font-size="10.00"> </text>
<polyline fill="none" stroke="#bfbfbf" points="561,-240 680,-240 "/>
<text text-anchor="middle" x="620.5" y="-228" font-family="Helvetica,sans-Serif" font-size="10.00"> </text>
</a>
</g>
</g>
<!-- Node15&#45;&gt;Node1 -->
<g id="edge14" class="edge">
<title>Node15&#45;&gt;Node1</title>
<path fill="none" stroke="#404040" d="M609.81,-220.76C605.21,-208.81 599.53,-194.08 593.63,-178.76"/>
<polygon fill="none" stroke="#404040" points="593.62,-178.74 587.73,-174.58 589.31,-167.55 595.2,-171.71 593.62,-178.74"/>
<text text-anchor="middle" x="627.5" y="-189" font-family="Helvetica,sans-Serif" font-size="10.00"> #m_edges</text>
</g>
<!-- Node16 -->
<g id="node16" class="node">
<title>Node16</title>
<g id="a_node16"><a xlink:title=" ">
<polygon fill="white" stroke="#bfbfbf" points="663.5,-348 663.5,-405 781.5,-405 781.5,-348 663.5,-348"/>
<text text-anchor="middle" x="722.5" y="-393" font-family="Helvetica,sans-Serif" font-size="10.00">std::shared_ptr&lt; T &gt;</text>
<polyline fill="none" stroke="#bfbfbf" points="663.5,-386 781.5,-386 "/>
<text text-anchor="middle" x="722.5" y="-374" font-family="Helvetica,sans-Serif" font-size="10.00"> </text>
<polyline fill="none" stroke="#bfbfbf" points="663.5,-367 781.5,-367 "/>
<text text-anchor="start" x="671.5" y="-355" font-family="Helvetica,sans-Serif" font-size="10.00">+ operator&#45;&gt;()</text>
</a>
</g>
</g>
<!-- Node16&#45;&gt;Node15 -->
<g id="edge15" class="edge">
<title>Node16&#45;&gt;Node15</title>
<path fill="none" stroke="#404040" d="M699.86,-347.76C685.4,-330.04 666.48,-306.85 650.74,-287.56"/>
<polygon fill="none" stroke="#404040" points="650.66,-287.46 643.77,-285.34 643.07,-278.16 649.97,-280.28 650.66,-287.46"/>
<text text-anchor="middle" x="688.5" y="-305" font-family="Helvetica,sans-Serif" font-size="10.00"> +keys</text>
</g>
<!-- Node17 -->
<g id="node17" class="node">
<title>Node17</title>
<g id="a_node17"><a xlink:title=" ">
<polygon fill="white" stroke="#bfbfbf" points="710,-491.5 710,-548.5 739,-548.5 739,-491.5 710,-491.5"/>
<text text-anchor="middle" x="724.5" y="-536.5" font-family="Helvetica,sans-Serif" font-size="10.00">T</text>
<polyline fill="none" stroke="#bfbfbf" points="710,-529.5 739,-529.5 "/>
<text text-anchor="middle" x="724.5" y="-517.5" font-family="Helvetica,sans-Serif" font-size="10.00"> </text>
<polyline fill="none" stroke="#bfbfbf" points="710,-510.5 739,-510.5 "/>
<text text-anchor="middle" x="724.5" y="-498.5" font-family="Helvetica,sans-Serif" font-size="10.00"> </text>
</a>
</g>
</g>
<!-- Node17&#45;&gt;Node16 -->
<g id="edge16" class="edge">
<title>Node17&#45;&gt;Node16</title>
<path fill="none" stroke="#404040" d="M724.11,-491.38C723.81,-470.25 723.39,-440.81 723.06,-417.16"/>
<polygon fill="none" stroke="#404040" points="723.06,-417.05 718.97,-411.1 722.89,-405.05 726.97,-410.99 723.06,-417.05"/>
<text text-anchor="middle" x="736" y="-443" font-family="Helvetica,sans-Serif" font-size="10.00"> +ptr</text>
</g>
<!-- Node18 -->
<g id="node18" class="node">
<title>Node18</title>
<g id="a_node18"><a xlink:title=" ">
<polygon fill="white" stroke="#bfbfbf" points="698,-215.5 698,-283.5 819,-283.5 819,-215.5 698,-215.5"/>
<text text-anchor="start" x="706" y="-271.5" font-family="Helvetica,sans-Serif" font-size="10.00">std::unique_ptr&lt; std</text>
<text text-anchor="middle" x="758.5" y="-260.5" font-family="Helvetica,sans-Serif" font-size="10.00">::vector&lt; RGBXY &gt; &gt;</text>
<polyline fill="none" stroke="#bfbfbf" points="698,-253.5 819,-253.5 "/>
<text text-anchor="start" x="706" y="-241.5" font-family="Helvetica,sans-Serif" font-size="10.00">+ ptr</text>
<polyline fill="none" stroke="#bfbfbf" points="698,-234.5 819,-234.5 "/>
<text text-anchor="start" x="706" y="-222.5" font-family="Helvetica,sans-Serif" font-size="10.00">+ operator&#45;&gt;()</text>
</a>
</g>
</g>
<!-- Node18&#45;&gt;Node1 -->
<g id="edge17" class="edge">
<title>Node18&#45;&gt;Node1</title>
<path fill="none" stroke="#404040" d="M717.82,-215.41C694.33,-196.3 663.97,-171.6 636,-148.85"/>
<polygon fill="none" stroke="#404040" points="635.93,-148.8 628.75,-148.11 626.62,-141.22 633.8,-141.91 635.93,-148.8"/>
<text text-anchor="middle" x="720" y="-189" font-family="Helvetica,sans-Serif" font-size="10.00"> #m_pixels</text>
</g>
</g>
</svg>
