<?xml version="1.0" encoding="UTF-8" standalone="no"?>
<!DOCTYPE svg PUBLIC "-//W3C//DTD SVG 1.1//EN"
 "http://www.w3.org/Graphics/SVG/1.1/DTD/svg11.dtd">
<!-- Generated by graphviz version 2.42.4 (0)
 -->
<!-- Title: Graph Pages: 1 -->
<!--zoomable 658 -->

<svg id="main" version="1.1" xmlns="http://www.w3.org/2000/svg" xmlns:xlink="http://www.w3.org/1999/xlink" xml:space="preserve" onload="init(evt)">
<style type="text/css"><![CDATA[
.node, .edge {opacity: 0.7;}
.node.selected, .edge.selected {opacity: 1;}
.edge:hover path { stroke: red; }
.edge:hover polygon { stroke: red; fill: red; }
]]></style>

<defs>
  <circle id="rim" cx="0" cy="0" r="7"/>
  <circle id="rim2" cx="0" cy="0" r="3.5"/>
  <g id="zoomPlus">
    <use xlink:href="#rim" fill="#404040"><set attributeName="fill" to="#808080" begin="zoomplus.mouseover" end="zoomplus.mouseout"/></use>
    <path d="M-4,0h8M0,-4v8" fill="none" stroke="white" stroke-width="1.5" pointer-events="none"/>
  </g>
  <g id="zoomMin">
    <use xlink:href="#rim" fill="#404040"><set attributeName="fill" to="#808080" begin="zoomminus.mouseover" end="zoomminus.mouseout"/></use>
    <path d="M-4,0h8" fill="none" stroke="white" stroke-width="1.5" pointer-events="none"/>
  </g>
  <g id="arrowUp" transform="translate(30 24)">
    <use xlink:href="#rim"/>
    <path pointer-events="none" fill="none" stroke="white" stroke-width="1.5" d="M0,-3.0v7 M-2.5,-0.5L0,-3.0L2.5,-0.5"/>
  </g>
  <g id="arrowRight" transform="rotate(90) translate(36 -43)">
    <use xlink:href="#rim"/>
    <path pointer-events="none" fill="none" stroke="white" stroke-width="1.5" d="M0,-3.0v7 M-2.5,-0.5L0,-3.0L2.5,-0.5"/>
  </g>
  <g id="arrowDown" transform="rotate(180) translate(-30 -48)">
    <use xlink:href="#rim"/>
    <path pointer-events="none" fill="none" stroke="white" stroke-width="1.5" d="M0,-3.0v7 M-2.5,-0.5L0,-3.0L2.5,-0.5"/>
  </g>
  <g id="arrowLeft" transform="rotate(270) translate(-36 17)">
    <use xlink:href="#rim"/>
    <path pointer-events="none" fill="none" stroke="white" stroke-width="1.5" d="M0,-3.0v7 M-2.5,-0.5L0,-3.0L2.5,-0.5"/>
  </g>
  <g id="resetDef">
    <use xlink:href="#rim2" fill="#404040"><set attributeName="fill" to="#808080" begin="reset.mouseover" end="reset.mouseout"/></use>
  </g>
</defs>
<script type="application/ecmascript">
var viewWidth = 262;
var viewHeight = 658;
var sectionId = 'dynsection-0';
</script>
<script type="application/ecmascript" xlink:href="svg.min.js"/>
<svg id="graph" class="graph">
<g id="viewport">
<title>Graph</title>
<!-- Node1 -->
<g id="Node000001" class="node">
<title>Node1</title>
<g id="a_Node000001"><a xlink:title=" ">
<polygon fill="#999999" stroke="transparent" points="209,-240 54,-240 54,0 209,0 209,-240"/>
<text text-anchor="start" x="117" y="-228" font-family="Helvetica,sans-Serif" font-size="10.00">Graph</text>
<text text-anchor="start" x="58.5" y="-213" font-family="Helvetica,sans-Serif" font-size="10.00">#</text>
<text text-anchor="start" x="71.5" y="-213" font-family="Helvetica,sans-Serif" font-size="10.00">m_width</text>
<text text-anchor="start" x="58.5" y="-198" font-family="Helvetica,sans-Serif" font-size="10.00">#</text>
<text text-anchor="start" x="71.5" y="-198" font-family="Helvetica,sans-Serif" font-size="10.00">m_height</text>
<text text-anchor="start" x="58.5" y="-183" font-family="Helvetica,sans-Serif" font-size="10.00">+</text>
<text text-anchor="start" x="71.5" y="-183" font-family="Helvetica,sans-Serif" font-size="10.00">Graph()</text>
<text text-anchor="start" x="58.5" y="-168" font-family="Helvetica,sans-Serif" font-size="10.00">+</text>
<text text-anchor="start" x="71.5" y="-168" font-family="Helvetica,sans-Serif" font-size="10.00">add_edge()</text>
<text text-anchor="start" x="58.5" y="-153" font-family="Helvetica,sans-Serif" font-size="10.00">+</text>
<text text-anchor="start" x="71.5" y="-153" font-family="Helvetica,sans-Serif" font-size="10.00">merge_nodes()</text>
<text text-anchor="start" x="58.5" y="-138" font-family="Helvetica,sans-Serif" font-size="10.00">+</text>
<text text-anchor="start" x="71.5" y="-138" font-family="Helvetica,sans-Serif" font-size="10.00">clear_unconnected_nodes()</text>
<text text-anchor="start" x="58.5" y="-123" font-family="Helvetica,sans-Serif" font-size="10.00">+</text>
<text text-anchor="start" x="71.5" y="-123" font-family="Helvetica,sans-Serif" font-size="10.00">get_nodes()</text>
<text text-anchor="start" x="58.5" y="-108" font-family="Helvetica,sans-Serif" font-size="10.00">+</text>
<text text-anchor="start" x="71.5" y="-108" font-family="Helvetica,sans-Serif" font-size="10.00">all_areas_bigger_than()</text>
<text text-anchor="start" x="58.5" y="-93" font-family="Helvetica,sans-Serif" font-size="10.00">+</text>
<text text-anchor="start" x="71.5" y="-93" font-family="Helvetica,sans-Serif" font-size="10.00">size()</text>
<text text-anchor="start" x="58.5" y="-78" font-family="Helvetica,sans-Serif" font-size="10.00">+</text>
<text text-anchor="start" x="71.5" y="-78" font-family="Helvetica,sans-Serif" font-size="10.00">discover_edges()</text>
<text text-anchor="start" x="58.5" y="-63" font-family="Helvetica,sans-Serif" font-size="10.00">+</text>
<text text-anchor="start" x="71.5" y="-63" font-family="Helvetica,sans-Serif" font-size="10.00">merge_small_area_nodes()</text>
<text text-anchor="start" x="58.5" y="-48" font-family="Helvetica,sans-Serif" font-size="10.00">+</text>
<text text-anchor="start" x="71.5" y="-48" font-family="Helvetica,sans-Serif" font-size="10.00">compute_contours()</text>
<text text-anchor="start" x="58.5" y="-33" font-family="Helvetica,sans-Serif" font-size="10.00">#</text>
<text text-anchor="start" x="71.5" y="-33" font-family="Helvetica,sans-Serif" font-size="10.00">hash_node_ids()</text>
<text text-anchor="start" x="58.5" y="-18" font-family="Helvetica,sans-Serif" font-size="10.00">#</text>
<text text-anchor="start" x="71.5" y="-18" font-family="Helvetica,sans-Serif" font-size="10.00">process_overlapping</text>
<text text-anchor="start" x="71.5" y="-7" font-family="Helvetica,sans-Serif" font-size="10.00">_edges()</text>
<polygon fill="#666666" stroke="#666666" points="54.5,-223 54.5,-223 209.5,-223 209.5,-223 54.5,-223"/>
<polygon fill="#666666" stroke="#666666" points="54.5,-193 54.5,-193 69.5,-193 69.5,-193 54.5,-193"/>
<polygon fill="#666666" stroke="#666666" points="69.5,-193 69.5,-193 209.5,-193 209.5,-193 69.5,-193"/>
<polygon fill="none" stroke="#666666" points="54,0 54,-240 209,-240 209,0 54,0"/>
</a>
</g>
</g>
<!-- Node2 -->
<g id="Node000002" class="node">
<title>Node2</title>
<g id="a_Node000002"><a xlink:title=" ">
<polygon fill="white" stroke="transparent" points="127,-354.5 2,-354.5 2,-294.5 127,-294.5 127,-354.5"/>
<text text-anchor="start" x="7.5" y="-342.5" font-family="Helvetica,sans-Serif" font-size="10.00">std::unique_ptr&lt; std</text>
<text text-anchor="start" x="7.5" y="-331.5" font-family="Helvetica,sans-Serif" font-size="10.00">::vector&lt; Node_ptr &gt; &gt;</text>
<text text-anchor="start" x="63" y="-316.5" font-family="Helvetica,sans-Serif" font-size="10.00"> </text>
<text text-anchor="start" x="17" y="-301.5" font-family="Helvetica,sans-Serif" font-size="10.00">+</text>
<text text-anchor="start" x="40.5" y="-301.5" font-family="Helvetica,sans-Serif" font-size="10.00">operator&#45;&gt;()</text>
<polygon fill="#666666" stroke="#666666" points="2.5,-326.5 2.5,-326.5 127.5,-326.5 127.5,-326.5 2.5,-326.5"/>
<polygon fill="#666666" stroke="#666666" points="2.5,-311.5 2.5,-311.5 127.5,-311.5 127.5,-311.5 2.5,-311.5"/>
<polygon fill="none" stroke="#666666" points="2,-294.5 2,-354.5 127,-354.5 127,-294.5 2,-294.5"/>
</a>
</g>
</g>
<!-- Node2&#45;&gt;Node1 -->
<g id="edge1_Node000001_Node000002" class="edge">
<title>Node2&#45;&gt;Node1</title>
<g id="a_edge1_Node000001_Node000002"><a xlink:title=" ">
<path fill="none" stroke="#63b8ff" d="M74.1,-294.49C78.06,-282.52 82.95,-267.74 88.19,-251.9"/>
<polygon fill="none" stroke="#63b8ff" points="88.29,-251.6 86.38,-244.64 92.06,-240.2 93.97,-247.16 88.29,-251.6"/>
</a>
</g>
<text text-anchor="middle" x="114.5" y="-261" font-family="Helvetica,sans-Serif" font-size="10.00" fill="grey"> #m_nodes</text>
</g>
<!-- Node3 -->
<g id="Node000003" class="node">
<title>Node3</title>
<g id="a_Node000003"><a xlink:title=" ">
<polygon fill="white" stroke="transparent" points="129,-458 0,-458 0,-409 129,-409 129,-458"/>
<text text-anchor="start" x="5.5" y="-445.5" font-family="Helvetica,sans-Serif" font-size="10.00">std::vector&lt; Node_ptr &gt;</text>
<text text-anchor="start" x="63" y="-430.5" font-family="Helvetica,sans-Serif" font-size="10.00"> </text>
<text text-anchor="start" x="63" y="-415.5" font-family="Helvetica,sans-Serif" font-size="10.00"> </text>
<polygon fill="#666666" stroke="#666666" points="0.5,-440.5 0.5,-440.5 129.5,-440.5 129.5,-440.5 0.5,-440.5"/>
<polygon fill="#666666" stroke="#666666" points="0.5,-425.5 0.5,-425.5 129.5,-425.5 129.5,-425.5 0.5,-425.5"/>
<polygon fill="none" stroke="#666666" points="0,-409 0,-458 129,-458 129,-409 0,-409"/>
</a>
</g>
</g>
<!-- Node3&#45;&gt;Node2 -->
<g id="edge2_Node000002_Node000003" class="edge">
<title>Node3&#45;&gt;Node2</title>
<g id="a_edge2_Node000002_Node000003"><a xlink:title=" ">
<path fill="none" stroke="#63b8ff" d="M64.5,-408.75C64.5,-396.37 64.5,-380.87 64.5,-366.62"/>
<polygon fill="none" stroke="#63b8ff" points="64.5,-366.52 60.5,-360.52 64.5,-354.52 68.5,-360.52 64.5,-366.52"/>
</a>
</g>
<text text-anchor="middle" x="77" y="-383" font-family="Helvetica,sans-Serif" font-size="10.00" fill="grey"> +ptr</text>
</g>
<!-- Node4 -->
<g id="Node000004" class="node">
<title>Node4</title>
<g id="a_Node000004"><a xlink:title=" ">
<polygon fill="white" stroke="transparent" points="120.5,-554 8.5,-554 8.5,-505 120.5,-505 120.5,-554"/>
<text text-anchor="start" x="13.5" y="-541.5" font-family="Helvetica,sans-Serif" font-size="10.00">std::shared_ptr&lt; T &gt;</text>
<text text-anchor="start" x="62.5" y="-526.5" font-family="Helvetica,sans-Serif" font-size="10.00"> </text>
<text text-anchor="start" x="20" y="-511.5" font-family="Helvetica,sans-Serif" font-size="10.00">+</text>
<text text-anchor="start" x="40.5" y="-511.5" font-family="Helvetica,sans-Serif" font-size="10.00">operator&#45;&gt;()</text>
<polygon fill="#666666" stroke="#666666" points="8.5,-536.5 8.5,-536.5 120.5,-536.5 120.5,-536.5 8.5,-536.5"/>
<polygon fill="#666666" stroke="#666666" points="8.5,-521.5 8.5,-521.5 120.5,-521.5 120.5,-521.5 8.5,-521.5"/>
<polygon fill="none" stroke="#666666" points="8.5,-505 8.5,-554 120.5,-554 120.5,-505 8.5,-505"/>
</a>
</g>
</g>
<!-- Node4&#45;&gt;Node3 -->
<g id="edge3_Node000003_Node000004" class="edge">
<title>Node4&#45;&gt;Node3</title>
<g id="a_edge3_Node000003_Node000004"><a xlink:title=" ">
<path fill="none" stroke="#63b8ff" d="M64.5,-504.78C64.5,-494.32 64.5,-481.79 64.5,-470.23"/>
<polygon fill="none" stroke="#63b8ff" points="64.5,-470.21 60.5,-464.21 64.5,-458.21 68.5,-464.21 64.5,-470.21"/>
</a>
</g>
<text text-anchor="middle" x="93.5" y="-479" font-family="Helvetica,sans-Serif" font-size="10.00" fill="grey"> +elements</text>
</g>
<!-- Node5 -->
<g id="Node000005" class="node">
<title>Node5</title>
<g id="a_Node000005"><a xlink:title=" ">
<polygon fill="white" stroke="transparent" points="73,-650 56,-650 56,-601 73,-601 73,-650"/>
<text text-anchor="start" x="61.5" y="-637.5" font-family="Helvetica,sans-Serif" font-size="10.00">T</text>
<text text-anchor="start" x="63" y="-622.5" font-family="Helvetica,sans-Serif" font-size="10.00"> </text>
<text text-anchor="start" x="63" y="-607.5" font-family="Helvetica,sans-Serif" font-size="10.00"> </text>
<polygon fill="#bfbfbf" stroke="#bfbfbf" points="56.5,-632.5 56.5,-632.5 73.5,-632.5 73.5,-632.5 56.5,-632.5"/>
<polygon fill="#bfbfbf" stroke="#bfbfbf" points="56.5,-617.5 56.5,-617.5 73.5,-617.5 73.5,-617.5 56.5,-617.5"/>
<polygon fill="none" stroke="#bfbfbf" points="56,-601 56,-650 73,-650 73,-601 56,-601"/>
</a>
</g>
</g>
<!-- Node5&#45;&gt;Node4 -->
<g id="edge4_Node000004_Node000005" class="edge">
<title>Node5&#45;&gt;Node4</title>
<g id="a_edge4_Node000004_Node000005"><a xlink:title=" ">
<path fill="none" stroke="#63b8ff" d="M64.5,-600.78C64.5,-590.32 64.5,-577.79 64.5,-566.23"/>
<polygon fill="none" stroke="#63b8ff" points="64.5,-566.21 60.5,-560.21 64.5,-554.21 68.5,-560.21 64.5,-566.21"/>
</a>
</g>
<text text-anchor="middle" x="77" y="-575" font-family="Helvetica,sans-Serif" font-size="10.00" fill="grey"> +ptr</text>
</g>
<!-- Node6 -->
<g id="Node000006" class="node">
<title>Node6</title>
<g id="a_Node000006"><a xlink:title=" ">
<polygon fill="white" stroke="transparent" points="253.5,-362 145.5,-362 145.5,-287 253.5,-287 253.5,-362"/>
<text text-anchor="start" x="150.5" y="-349.5" font-family="Helvetica,sans-Serif" font-size="10.00">std::unordered_map</text>
<text text-anchor="start" x="151" y="-338.5" font-family="Helvetica,sans-Serif" font-size="10.00">&lt; int32_t, int32_t &gt;</text>
<text text-anchor="start" x="159.5" y="-323.5" font-family="Helvetica,sans-Serif" font-size="10.00">+</text>
<text text-anchor="start" x="182.5" y="-323.5" font-family="Helvetica,sans-Serif" font-size="10.00">keys</text>
<text text-anchor="start" x="159.5" y="-308.5" font-family="Helvetica,sans-Serif" font-size="10.00">+</text>
<text text-anchor="start" x="182.5" y="-308.5" font-family="Helvetica,sans-Serif" font-size="10.00">elements</text>
<text text-anchor="start" x="197.5" y="-293.5" font-family="Helvetica,sans-Serif" font-size="10.00"> </text>
<polygon fill="#666666" stroke="#666666" points="145.5,-333.5 145.5,-333.5 253.5,-333.5 253.5,-333.5 145.5,-333.5"/>
<polygon fill="#666666" stroke="#666666" points="145.5,-303.5 145.5,-303.5 180.5,-303.5 180.5,-303.5 145.5,-303.5"/>
<polygon fill="#666666" stroke="#666666" points="180.5,-303.5 180.5,-303.5 253.5,-303.5 253.5,-303.5 180.5,-303.5"/>
<polygon fill="none" stroke="#666666" points="145.5,-287 145.5,-362 253.5,-362 253.5,-287 145.5,-287"/>
</a>
</g>
</g>
<!-- Node6&#45;&gt;Node1 -->
<g id="edge5_Node000001_Node000006" class="edge">
<title>Node6&#45;&gt;Node1</title>
<g id="a_edge5_Node000001_Node000006"><a xlink:title=" ">
<path fill="none" stroke="#63b8ff" d="M187.19,-286.83C183.7,-276.44 179.69,-264.51 175.45,-251.89"/>
<polygon fill="none" stroke="#63b8ff" points="175.33,-251.52 169.63,-247.11 171.51,-240.15 177.21,-244.56 175.33,-251.52"/>
</a>
</g>
<text text-anchor="middle" x="213.5" y="-261" font-family="Helvetica,sans-Serif" font-size="10.00" fill="grey"> #m_node_ids</text>
</g>
</g>
</svg>

<g id="navigator" transform="translate(0 0)" fill="#404254">
  <rect fill="#f2f5e9" fill-opacity="0.5" stroke="#606060" stroke-width=".5" x="0" y="0" width="60" height="60"/>
  <use id="zoomplus" xlink:href="#zoomPlus" x="17" y="9" onmousedown="handleZoom(evt,'in')"/>
  <use id="zoomminus" xlink:href="#zoomMin" x="42" y="9" onmousedown="handleZoom(evt,'out')"/>
  <use id="reset" xlink:href="#resetDef" x="30" y="36" onmousedown="handleReset()"/>
   <use id="arrowup" xlink:href="#arrowUp" x="0" y="0" onmousedown="handlePan(0,-1)"/>
  <use id="arrowright" xlink:href="#arrowRight" x="0" y="0" onmousedown="handlePan(1,0)"/>
  <use id="arrowdown" xlink:href="#arrowDown" x="0" y="0" onmousedown="handlePan(0,1)"/>
  <use id="arrowleft" xlink:href="#arrowLeft" x="0" y="0" onmousedown="handlePan(-1,0)"/>
</g>
<svg viewBox="0 0 15 15" width="100%" height="30px" preserveAspectRatio="xMaxYMin meet">
 <g id="arrow_out" transform="scale(0.3 0.3)">
  <a xlink:href="classGraph__coll__graph_org.svg" target="_base">
   <rect id="button" ry="5" rx="5" y="6" x="6" height="38" width="38"
        fill="#f2f5e9" fill-opacity="0.5" stroke="#606060" stroke-width="1.0"/>
   <path id="arrow"
     d="M 11.500037,31.436501 C 11.940474,20.09759 22.043105,11.32322 32.158766,21.979434 L 37.068811,17.246167 C 37.068811,17.246167 37.088388,32 37.088388,32 L 22.160133,31.978069 C 22.160133,31.978069 26.997745,27.140456 26.997745,27.140456 C 18.528582,18.264221 13.291696,25.230495 11.500037,31.436501 z"
     style="fill:#404040;"/>
  </a>
 </g>
</svg>

<style type='text/css'>
<![CDATA[
[data-mouse-over-selected='false'] { opacity: 0.7; }
[data-mouse-over-selected='true']  { opacity: 1.0; }
]]>
</style>
<script type="application/ecmascript"><![CDATA[
document.addEventListener('DOMContentLoaded', (event) => {
  highlightEdges();
  highlightAdjacentNodes();
});
]]></script>
</svg>
