<?xml version="1.0" encoding="UTF-8" standalone="no"?>
<!DOCTYPE svg PUBLIC "-//W3C//DTD SVG 1.1//EN"
 "http://www.w3.org/Graphics/SVG/1.1/DTD/svg11.dtd">
<!-- Generated by graphviz version 2.42.4 (0)
 -->
<!-- Title: Graph Pages: 1 -->
<svg width="262pt" height="658pt"
 viewBox="0.00 0.00 261.50 658.00" xmlns="http://www.w3.org/2000/svg" xmlns:xlink="http://www.w3.org/1999/xlink">
<g id="graph0" class="graph" transform="scale(1 1) rotate(0) translate(4 654)">
<title>Graph</title>
<!-- Node1 -->
<g id="Node000001" class="node">
<title>Node1</title>
<g id="a_Node000001"><a xlink:title=" ">
<polygon fill="#999999" stroke="transparent" points="209,-240 54,-240 54,0 209,0 209,-240"/>
<text text-anchor="start" x="117" y="-228" font-family="Helvetica,sans-Serif" font-size="10.00">Graph</text>
<text text-anchor="start" x="58.5" y="-213" font-family="Helvetica,sans-Serif" font-size="10.00">#</text>
<text text-anchor="start" x="71.5" y="-213" font-family="Helvetica,sans-Serif" font-size="10.00">m_width</text>
<text text-anchor="start" x="58.5" y="-198" font-family="Helvetica,sans-Serif" font-size="10.00">#</text>
<text text-anchor="start" x="71.5" y="-198" font-family="Helvetica,sans-Serif" font-size="10.00">m_height</text>
<text text-anchor="start" x="58.5" y="-183" font-family="Helvetica,sans-Serif" font-size="10.00">+</text>
<text text-anchor="start" x="71.5" y="-183" font-family="Helvetica,sans-Serif" font-size="10.00">Graph()</text>
<text text-anchor="start" x="58.5" y="-168" font-family="Helvetica,sans-Serif" font-size="10.00">+</text>
<text text-anchor="start" x="71.5" y="-168" font-family="Helvetica,sans-Serif" font-size="10.00">add_edge()</text>
<text text-anchor="start" x="58.5" y="-153" font-family="Helvetica,sans-Serif" font-size="10.00">+</text>
<text text-anchor="start" x="71.5" y="-153" font-family="Helvetica,sans-Serif" font-size="10.00">merge_nodes()</text>
<text text-anchor="start" x="58.5" y="-138" font-family="Helvetica,sans-Serif" font-size="10.00">+</text>
<text text-anchor="start" x="71.5" y="-138" font-family="Helvetica,sans-Serif" font-size="10.00">clear_unconnected_nodes()</text>
<text text-anchor="start" x="58.5" y="-123" font-family="Helvetica,sans-Serif" font-size="10.00">+</text>
<text text-anchor="start" x="71.5" y="-123" font-family="Helvetica,sans-Serif" font-size="10.00">get_nodes()</text>
<text text-anchor="start" x="58.5" y="-108" font-family="Helvetica,sans-Serif" font-size="10.00">+</text>
<text text-anchor="start" x="71.5" y="-108" font-family="Helvetica,sans-Serif" font-size="10.00">all_areas_bigger_than()</text>
<text text-anchor="start" x="58.5" y="-93" font-family="Helvetica,sans-Serif" font-size="10.00">+</text>
<text text-anchor="start" x="71.5" y="-93" font-family="Helvetica,sans-Serif" font-size="10.00">size()</text>
<text text-anchor="start" x="58.5" y="-78" font-family="Helvetica,sans-Serif" font-size="10.00">+</text>
<text text-anchor="start" x="71.5" y="-78" font-family="Helvetica,sans-Serif" font-size="10.00">discover_edges()</text>
<text text-anchor="start" x="58.5" y="-63" font-family="Helvetica,sans-Serif" font-size="10.00">+</text>
<text text-anchor="start" x="71.5" y="-63" font-family="Helvetica,sans-Serif" font-size="10.00">merge_small_area_nodes()</text>
<text text-anchor="start" x="58.5" y="-48" font-family="Helvetica,sans-Serif" font-size="10.00">+</text>
<text text-anchor="start" x="71.5" y="-48" font-family="Helvetica,sans-Serif" font-size="10.00">compute_contours()</text>
<text text-anchor="start" x="58.5" y="-33" font-family="Helvetica,sans-Serif" font-size="10.00">#</text>
<text text-anchor="start" x="71.5" y="-33" font-family="Helvetica,sans-Serif" font-size="10.00">hash_node_ids()</text>
<text text-anchor="start" x="58.5" y="-18" font-family="Helvetica,sans-Serif" font-size="10.00">#</text>
<text text-anchor="start" x="71.5" y="-18" font-family="Helvetica,sans-Serif" font-size="10.00">process_overlapping</text>
<text text-anchor="start" x="71.5" y="-7" font-family="Helvetica,sans-Serif" font-size="10.00">_edges()</text>
<polygon fill="#666666" stroke="#666666" points="54.5,-223 54.5,-223 209.5,-223 209.5,-223 54.5,-223"/>
<polygon fill="#666666" stroke="#666666" points="54.5,-193 54.5,-193 69.5,-193 69.5,-193 54.5,-193"/>
<polygon fill="#666666" stroke="#666666" points="69.5,-193 69.5,-193 209.5,-193 209.5,-193 69.5,-193"/>
<polygon fill="none" stroke="#666666" points="54,0 54,-240 209,-240 209,0 54,0"/>
</a>
</g>
</g>
<!-- Node2 -->
<g id="Node000002" class="node">
<title>Node2</title>
<g id="a_Node000002"><a xlink:title=" ">
<polygon fill="white" stroke="transparent" points="127,-354.5 2,-354.5 2,-294.5 127,-294.5 127,-354.5"/>
<text text-anchor="start" x="7.5" y="-342.5" font-family="Helvetica,sans-Serif" font-size="10.00">std::unique_ptr&lt; std</text>
<text text-anchor="start" x="7.5" y="-331.5" font-family="Helvetica,sans-Serif" font-size="10.00">::vector&lt; Node_ptr &gt; &gt;</text>
<text text-anchor="start" x="63" y="-316.5" font-family="Helvetica,sans-Serif" font-size="10.00"> </text>
<text text-anchor="start" x="17" y="-301.5" font-family="Helvetica,sans-Serif" font-size="10.00">+</text>
<text text-anchor="start" x="40.5" y="-301.5" font-family="Helvetica,sans-Serif" font-size="10.00">operator&#45;&gt;()</text>
<polygon fill="#666666" stroke="#666666" points="2.5,-326.5 2.5,-326.5 127.5,-326.5 127.5,-326.5 2.5,-326.5"/>
<polygon fill="#666666" stroke="#666666" points="2.5,-311.5 2.5,-311.5 127.5,-311.5 127.5,-311.5 2.5,-311.5"/>
<polygon fill="none" stroke="#666666" points="2,-294.5 2,-354.5 127,-354.5 127,-294.5 2,-294.5"/>
</a>
</g>
</g>
<!-- Node2&#45;&gt;Node1 -->
<g id="edge1_Node000001_Node000002" class="edge">
<title>Node2&#45;&gt;Node1</title>
<g id="a_edge1_Node000001_Node000002"><a xlink:title=" ">
<path fill="none" stroke="#63b8ff" d="M74.1,-294.49C78.06,-282.52 82.95,-267.74 88.19,-251.9"/>
<polygon fill="none" stroke="#63b8ff" points="88.29,-251.6 86.38,-244.64 92.06,-240.2 93.97,-247.16 88.29,-251.6"/>
</a>
</g>
<text text-anchor="middle" x="114.5" y="-261" font-family="Helvetica,sans-Serif" font-size="10.00" fill="grey"> #m_nodes</text>
</g>
<!-- Node3 -->
<g id="Node000003" class="node">
<title>Node3</title>
<g id="a_Node000003"><a xlink:title=" ">
<polygon fill="white" stroke="transparent" points="129,-458 0,-458 0,-409 129,-409 129,-458"/>
<text text-anchor="start" x="5.5" y="-445.5" font-family="Helvetica,sans-Serif" font-size="10.00">std::vector&lt; Node_ptr &gt;</text>
<text text-anchor="start" x="63" y="-430.5" font-family="Helvetica,sans-Serif" font-size="10.00"> </text>
<text text-anchor="start" x="63" y="-415.5" font-family="Helvetica,sans-Serif" font-size="10.00"> </text>
<polygon fill="#666666" stroke="#666666" points="0.5,-440.5 0.5,-440.5 129.5,-440.5 129.5,-440.5 0.5,-440.5"/>
<polygon fill="#666666" stroke="#666666" points="0.5,-425.5 0.5,-425.5 129.5,-425.5 129.5,-425.5 0.5,-425.5"/>
<polygon fill="none" stroke="#666666" points="0,-409 0,-458 129,-458 129,-409 0,-409"/>
</a>
</g>
</g>
<!-- Node3&#45;&gt;Node2 -->
<g id="edge2_Node000002_Node000003" class="edge">
<title>Node3&#45;&gt;Node2</title>
<g id="a_edge2_Node000002_Node000003"><a xlink:title=" ">
<path fill="none" stroke="#63b8ff" d="M64.5,-408.75C64.5,-396.37 64.5,-380.87 64.5,-366.62"/>
<polygon fill="none" stroke="#63b8ff" points="64.5,-366.52 60.5,-360.52 64.5,-354.52 68.5,-360.52 64.5,-366.52"/>
</a>
</g>
<text text-anchor="middle" x="77" y="-383" font-family="Helvetica,sans-Serif" font-size="10.00" fill="grey"> +ptr</text>
</g>
<!-- Node4 -->
<g id="Node000004" class="node">
<title>Node4</title>
<g id="a_Node000004"><a xlink:title=" ">
<polygon fill="white" stroke="transparent" points="120.5,-554 8.5,-554 8.5,-505 120.5,-505 120.5,-554"/>
<text text-anchor="start" x="13.5" y="-541.5" font-family="Helvetica,sans-Serif" font-size="10.00">std::shared_ptr&lt; T &gt;</text>
<text text-anchor="start" x="62.5" y="-526.5" font-family="Helvetica,sans-Serif" font-size="10.00"> </text>
<text text-anchor="start" x="20" y="-511.5" font-family="Helvetica,sans-Serif" font-size="10.00">+</text>
<text text-anchor="start" x="40.5" y="-511.5" font-family="Helvetica,sans-Serif" font-size="10.00">operator&#45;&gt;()</text>
<polygon fill="#666666" stroke="#666666" points="8.5,-536.5 8.5,-536.5 120.5,-536.5 120.5,-536.5 8.5,-536.5"/>
<polygon fill="#666666" stroke="#666666" points="8.5,-521.5 8.5,-521.5 120.5,-521.5 120.5,-521.5 8.5,-521.5"/>
<polygon fill="none" stroke="#666666" points="8.5,-505 8.5,-554 120.5,-554 120.5,-505 8.5,-505"/>
</a>
</g>
</g>
<!-- Node4&#45;&gt;Node3 -->
<g id="edge3_Node000003_Node000004" class="edge">
<title>Node4&#45;&gt;Node3</title>
<g id="a_edge3_Node000003_Node000004"><a xlink:title=" ">
<path fill="none" stroke="#63b8ff" d="M64.5,-504.78C64.5,-494.32 64.5,-481.79 64.5,-470.23"/>
<polygon fill="none" stroke="#63b8ff" points="64.5,-470.21 60.5,-464.21 64.5,-458.21 68.5,-464.21 64.5,-470.21"/>
</a>
</g>
<text text-anchor="middle" x="93.5" y="-479" font-family="Helvetica,sans-Serif" font-size="10.00" fill="grey"> +elements</text>
</g>
<!-- Node5 -->
<g id="Node000005" class="node">
<title>Node5</title>
<g id="a_Node000005"><a xlink:title=" ">
<polygon fill="white" stroke="transparent" points="73,-650 56,-650 56,-601 73,-601 73,-650"/>
<text text-anchor="start" x="61.5" y="-637.5" font-family="Helvetica,sans-Serif" font-size="10.00">T</text>
<text text-anchor="start" x="63" y="-622.5" font-family="Helvetica,sans-Serif" font-size="10.00"> </text>
<text text-anchor="start" x="63" y="-607.5" font-family="Helvetica,sans-Serif" font-size="10.00"> </text>
<polygon fill="#bfbfbf" stroke="#bfbfbf" points="56.5,-632.5 56.5,-632.5 73.5,-632.5 73.5,-632.5 56.5,-632.5"/>
<polygon fill="#bfbfbf" stroke="#bfbfbf" points="56.5,-617.5 56.5,-617.5 73.5,-617.5 73.5,-617.5 56.5,-617.5"/>
<polygon fill="none" stroke="#bfbfbf" points="56,-601 56,-650 73,-650 73,-601 56,-601"/>
</a>
</g>
</g>
<!-- Node5&#45;&gt;Node4 -->
<g id="edge4_Node000004_Node000005" class="edge">
<title>Node5&#45;&gt;Node4</title>
<g id="a_edge4_Node000004_Node000005"><a xlink:title=" ">
<path fill="none" stroke="#63b8ff" d="M64.5,-600.78C64.5,-590.32 64.5,-577.79 64.5,-566.23"/>
<polygon fill="none" stroke="#63b8ff" points="64.5,-566.21 60.5,-560.21 64.5,-554.21 68.5,-560.21 64.5,-566.21"/>
</a>
</g>
<text text-anchor="middle" x="77" y="-575" font-family="Helvetica,sans-Serif" font-size="10.00" fill="grey"> +ptr</text>
</g>
<!-- Node6 -->
<g id="Node000006" class="node">
<title>Node6</title>
<g id="a_Node000006"><a xlink:title=" ">
<polygon fill="white" stroke="transparent" points="253.5,-362 145.5,-362 145.5,-287 253.5,-287 253.5,-362"/>
<text text-anchor="start" x="150.5" y="-349.5" font-family="Helvetica,sans-Serif" font-size="10.00">std::unordered_map</text>
<text text-anchor="start" x="151" y="-338.5" font-family="Helvetica,sans-Serif" font-size="10.00">&lt; int32_t, int32_t &gt;</text>
<text text-anchor="start" x="159.5" y="-323.5" font-family="Helvetica,sans-Serif" font-size="10.00">+</text>
<text text-anchor="start" x="182.5" y="-323.5" font-family="Helvetica,sans-Serif" font-size="10.00">keys</text>
<text text-anchor="start" x="159.5" y="-308.5" font-family="Helvetica,sans-Serif" font-size="10.00">+</text>
<text text-anchor="start" x="182.5" y="-308.5" font-family="Helvetica,sans-Serif" font-size="10.00">elements</text>
<text text-anchor="start" x="197.5" y="-293.5" font-family="Helvetica,sans-Serif" font-size="10.00"> </text>
<polygon fill="#666666" stroke="#666666" points="145.5,-333.5 145.5,-333.5 253.5,-333.5 253.5,-333.5 145.5,-333.5"/>
<polygon fill="#666666" stroke="#666666" points="145.5,-303.5 145.5,-303.5 180.5,-303.5 180.5,-303.5 145.5,-303.5"/>
<polygon fill="#666666" stroke="#666666" points="180.5,-303.5 180.5,-303.5 253.5,-303.5 253.5,-303.5 180.5,-303.5"/>
<polygon fill="none" stroke="#666666" points="145.5,-287 145.5,-362 253.5,-362 253.5,-287 145.5,-287"/>
</a>
</g>
</g>
<!-- Node6&#45;&gt;Node1 -->
<g id="edge5_Node000001_Node000006" class="edge">
<title>Node6&#45;&gt;Node1</title>
<g id="a_edge5_Node000001_Node000006"><a xlink:title=" ">
<path fill="none" stroke="#63b8ff" d="M187.19,-286.83C183.7,-276.44 179.69,-264.51 175.45,-251.89"/>
<polygon fill="none" stroke="#63b8ff" points="175.33,-251.52 169.63,-247.11 171.51,-240.15 177.21,-244.56 175.33,-251.52"/>
</a>
</g>
<text text-anchor="middle" x="213.5" y="-261" font-family="Helvetica,sans-Serif" font-size="10.00" fill="grey"> #m_node_ids</text>
</g>
</g>
</svg>
