<?xml version="1.0" encoding="UTF-8" standalone="no"?>
<!DOCTYPE svg PUBLIC "-//W3C//DTD SVG 1.1//EN"
 "http://www.w3.org/Graphics/SVG/1.1/DTD/svg11.dtd">
<!-- Generated by graphviz version 2.43.0 (0)
 -->
<!-- Title: src Pages: 1 -->
<svg width="248pt" height="132pt"
 viewBox="0.00 0.00 248.00 132.00" xmlns="http://www.w3.org/2000/svg" xmlns:xlink="http://www.w3.org/1999/xlink">
<g id="graph0" class="graph" transform="scale(1 1) rotate(0) translate(4 128)">
<title>src</title>
<polygon fill="white" stroke="transparent" points="-4,4 -4,-128 244,-128 244,4 -4,4"/>
<g id="clust1" class="cluster">
<title>clusterdir_90fd98a0ba30abf7a6068a44995d2d6b</title>
<g id="a_clust1"><a xlink:href="dir_90fd98a0ba30abf7a6068a44995d2d6b.html" target="_top">
<polygon fill="#eeeeff" stroke="black" points="8,-64 8,-116 232,-116 232,-64 8,-64"/>
</a>
</g>
</g>
<!-- dir_90fd98a0ba30abf7a6068a44995d2d6b -->
<g id="node1" class="node">
<title>dir_90fd98a0ba30abf7a6068a44995d2d6b</title>
<text text-anchor="middle" x="197" y="-87.5" font-family="Helvetica,sans-Serif" font-size="10.00">src</text>
</g>
<!-- dir_7f3b8e721c91ffc84dac809b6c28fa7a -->
<g id="node2" class="node">
<title>dir_7f3b8e721c91ffc84dac809b6c28fa7a</title>
<g id="a_node2"><a xlink:href="dir_7f3b8e721c91ffc84dac809b6c28fa7a.html" target="_top" xlink:title="img2num">
<polygon fill="white" stroke="black" points="151.5,-108 88.5,-108 88.5,-72 151.5,-72 151.5,-108"/>
<text text-anchor="middle" x="120" y="-87.5" font-family="Helvetica,sans-Serif" font-size="10.00">img2num</text>
</a>
</g>
</g>
<!-- dir_f95be4dee0303231a989ea88ec0f949e -->
<g id="node3" class="node">
<title>dir_f95be4dee0303231a989ea88ec0f949e</title>
<g id="a_node3"><a xlink:href="dir_f95be4dee0303231a989ea88ec0f949e.html" target="_top" xlink:title="internal">
<polygon fill="white" stroke="black" points="70,-108 16,-108 16,-72 70,-72 70,-108"/>
<text text-anchor="middle" x="43" y="-87.5" font-family="Helvetica,sans-Serif" font-size="10.00">internal</text>
</a>
</g>
</g>
<!-- dir_24d671cfcbc5d5238a6bd565a49d198f -->
<g id="node4" class="node">
<title>dir_24d671cfcbc5d5238a6bd565a49d198f</title>
<g id="a_node4"><a xlink:href="dir_24d671cfcbc5d5238a6bd565a49d198f.html" target="_top" xlink:title="include">
<polygon fill="white" stroke="red" points="70,-36 16,-36 16,0 70,0 70,-36"/>
<text text-anchor="middle" x="43" y="-15.5" font-family="Helvetica,sans-Serif" font-size="10.00">include</text>
</a>
</g>
</g>
<!-- dir_f95be4dee0303231a989ea88ec0f949e&#45;&gt;dir_24d671cfcbc5d5238a6bd565a49d198f -->
<g id="edge1" class="edge">
<title>dir_f95be4dee0303231a989ea88ec0f949e&#45;&gt;dir_24d671cfcbc5d5238a6bd565a49d198f</title>
<path fill="none" stroke="black" d="M43,-71.7C43,-63.98 43,-54.71 43,-46.11"/>
<polygon fill="black" stroke="black" points="46.5,-46.1 43,-36.1 39.5,-46.1 46.5,-46.1"/>
<g id="a_edge1&#45;headlabel"><a xlink:href="dir_000006_000001.html" target="_top" xlink:title="4">
<text text-anchor="middle" x="49.34" y="-47.2" font-family="Helvetica,sans-Serif" font-size="10.00">4</text>
</a>
</g>
</g>
</g>
</svg>
