<?xml version="1.0" encoding="UTF-8" standalone="no"?>
<!DOCTYPE svg PUBLIC "-//W3C//DTD SVG 1.1//EN"
 "http://www.w3.org/Graphics/SVG/1.1/DTD/svg11.dtd">
<!-- Generated by graphviz version 2.43.0 (0)
 -->
<!-- Title: img2num.h Pages: 1 -->
<svg width="510pt" height="84pt"
 viewBox="0.00 0.00 509.50 84.00" xmlns="http://www.w3.org/2000/svg" xmlns:xlink="http://www.w3.org/1999/xlink">
<g id="graph0" class="graph" transform="scale(1 1) rotate(0) translate(4 80)">
<title>img2num.h</title>
<polygon fill="white" stroke="transparent" points="-4,4 -4,-80 505.5,-80 505.5,4 -4,4"/>
<!-- Node1 -->
<g id="node1" class="node">
<title>Node1</title>
<g id="a_node1"><a xlink:title="Core image processing functions for img2num project.">
<polygon fill="#bfbfbf" stroke="black" points="220,-56.5 220,-75.5 292,-75.5 292,-56.5 220,-56.5"/>
<text text-anchor="middle" x="256" y="-63.5" font-family="Helvetica,sans-Serif" font-size="10.00">img2num.h</text>
</a>
</g>
</g>
<!-- Node2 -->
<g id="node2" class="node">
<title>Node2</title>
<g id="a_node2"><a xlink:href="bilateral__filter_8cpp_source.html" target="_top" xlink:title=" ">
<polygon fill="white" stroke="black" points="0,-0.5 0,-19.5 122,-19.5 122,-0.5 0,-0.5"/>
<text text-anchor="middle" x="61" y="-7.5" font-family="Helvetica,sans-Serif" font-size="10.00">src/bilateral_filter.cpp</text>
</a>
</g>
</g>
<!-- Node1&#45;&gt;Node2 -->
<g id="edge1" class="edge">
<title>Node1&#45;&gt;Node2</title>
<path fill="none" stroke="midnightblue" d="M215.19,-53.7C178.39,-43.51 125.07,-28.74 91.75,-19.52"/>
<polygon fill="midnightblue" stroke="midnightblue" points="214.53,-57.15 225.1,-56.44 216.4,-50.4 214.53,-57.15"/>
</g>
<!-- Node3 -->
<g id="node3" class="node">
<title>Node3</title>
<g id="a_node3"><a xlink:href="image__utils_8cpp_source.html" target="_top" xlink:title=" ">
<polygon fill="white" stroke="black" points="140.5,-0.5 140.5,-19.5 251.5,-19.5 251.5,-0.5 140.5,-0.5"/>
<text text-anchor="middle" x="196" y="-7.5" font-family="Helvetica,sans-Serif" font-size="10.00">src/image_utils.cpp</text>
</a>
</g>
</g>
<!-- Node1&#45;&gt;Node3 -->
<g id="edge2" class="edge">
<title>Node1&#45;&gt;Node3</title>
<path fill="none" stroke="midnightblue" d="M238.82,-49.54C228.12,-39.91 214.74,-27.87 205.82,-19.83"/>
<polygon fill="midnightblue" stroke="midnightblue" points="236.59,-52.24 246.36,-56.32 241.27,-47.03 236.59,-52.24"/>
</g>
<!-- Node4 -->
<g id="node4" class="node">
<title>Node4</title>
<g id="a_node4"><a xlink:href="kmeans_8cpp_source.html" target="_top" xlink:title=" ">
<polygon fill="white" stroke="black" points="269.5,-0.5 269.5,-19.5 362.5,-19.5 362.5,-0.5 269.5,-0.5"/>
<text text-anchor="middle" x="316" y="-7.5" font-family="Helvetica,sans-Serif" font-size="10.00">src/kmeans.cpp</text>
</a>
</g>
</g>
<!-- Node1&#45;&gt;Node4 -->
<g id="edge3" class="edge">
<title>Node1&#45;&gt;Node4</title>
<path fill="none" stroke="midnightblue" d="M273.18,-49.54C283.88,-39.91 297.26,-27.87 306.18,-19.83"/>
<polygon fill="midnightblue" stroke="midnightblue" points="270.73,-47.03 265.64,-56.32 275.41,-52.24 270.73,-47.03"/>
</g>
<!-- Node5 -->
<g id="node5" class="node">
<title>Node5</title>
<g id="a_node5"><a xlink:href="labels__to__svg_8cpp_source.html" target="_top" xlink:title=" ">
<polygon fill="white" stroke="black" points="380.5,-0.5 380.5,-19.5 501.5,-19.5 501.5,-0.5 380.5,-0.5"/>
<text text-anchor="middle" x="441" y="-7.5" font-family="Helvetica,sans-Serif" font-size="10.00">src/labels_to_svg.cpp</text>
</a>
</g>
</g>
<!-- Node1&#45;&gt;Node5 -->
<g id="edge4" class="edge">
<title>Node1&#45;&gt;Node5</title>
<path fill="none" stroke="midnightblue" d="M295.17,-53.57C330.07,-43.38 380.35,-28.7 411.82,-19.52"/>
<polygon fill="midnightblue" stroke="midnightblue" points="293.93,-50.28 285.31,-56.44 295.89,-57 293.93,-50.28"/>
</g>
</g>
</svg>
