<?xml version="1.0" encoding="UTF-8" standalone="no"?>
<!DOCTYPE svg PUBLIC "-//W3C//DTD SVG 1.1//EN"
 "http://www.w3.org/Graphics/SVG/1.1/DTD/svg11.dtd">
<!-- Generated by graphviz version 2.42.4 (0)
 -->
<!-- Title: include/img2num.h Pages: 1 -->
<svg width="521pt" height="93pt"
 viewBox="0.00 0.00 520.50 93.00" xmlns="http://www.w3.org/2000/svg" xmlns:xlink="http://www.w3.org/1999/xlink">
<g id="graph0" class="graph" transform="scale(1 1) rotate(0) translate(4 89)">
<title>include/img2num.h</title>
<!-- Node1 -->
<g id="Node000001" class="node">
<title>Node1</title>
<g id="a_Node000001"><a xlink:title="Core image processing functions for img2num project.">
<polygon fill="#999999" stroke="#666666" points="309.5,-85 199.5,-85 199.5,-66 309.5,-66 309.5,-85"/>
<text text-anchor="middle" x="254.5" y="-73" font-family="Helvetica,sans-Serif" font-size="10.00">include/img2num.h</text>
</a>
</g>
</g>
<!-- Node2 -->
<g id="Node000002" class="node">
<title>Node2</title>
<g id="a_Node000002"><a xlink:href="bilateral__filter_8cpp_source.html" target="_top" xlink:title=" ">
<polygon fill="white" stroke="#666666" points="115,-30 0,-30 0,0 115,0 115,-30"/>
<text text-anchor="start" x="8" y="-18" font-family="Helvetica,sans-Serif" font-size="10.00">src/internal/bilateral</text>
<text text-anchor="middle" x="57.5" y="-7" font-family="Helvetica,sans-Serif" font-size="10.00">_filter.cpp</text>
</a>
</g>
</g>
<!-- Node1&#45;&gt;Node2 -->
<g id="edge1_Node000001_Node000002" class="edge">
<title>Node1&#45;&gt;Node2</title>
<g id="a_edge1_Node000001_Node000002"><a xlink:title=" ">
<path fill="none" stroke="#63b8ff" d="M216.03,-63.08C184.22,-53.63 138.9,-40.17 104.86,-30.06"/>
<polygon fill="#63b8ff" stroke="#63b8ff" points="215.27,-66.5 225.85,-65.99 217.26,-59.79 215.27,-66.5"/>
</a>
</g>
</g>
<!-- Node3 -->
<g id="Node000003" class="node">
<title>Node3</title>
<g id="a_Node000003"><a xlink:href="image__utils_8cpp_source.html" target="_top" xlink:title=" ">
<polygon fill="white" stroke="#666666" points="238,-30 133,-30 133,0 238,0 238,-30"/>
<text text-anchor="start" x="141" y="-18" font-family="Helvetica,sans-Serif" font-size="10.00">src/internal/image</text>
<text text-anchor="middle" x="185.5" y="-7" font-family="Helvetica,sans-Serif" font-size="10.00">_utils.cpp</text>
</a>
</g>
</g>
<!-- Node1&#45;&gt;Node3 -->
<g id="edge2_Node000001_Node000003" class="edge">
<title>Node1&#45;&gt;Node3</title>
<g id="a_edge2_Node000001_Node000003"><a xlink:title=" ">
<path fill="none" stroke="#63b8ff" d="M236.49,-59.23C225.87,-50.23 212.52,-38.91 202.15,-30.11"/>
<polygon fill="#63b8ff" stroke="#63b8ff" points="234.43,-62.07 244.32,-65.87 238.95,-56.73 234.43,-62.07"/>
</a>
</g>
</g>
<!-- Node4 -->
<g id="Node000004" class="node">
<title>Node4</title>
<g id="a_Node000004"><a xlink:href="kmeans_8cpp_source.html" target="_top" xlink:title=" ">
<polygon fill="white" stroke="#666666" points="390.5,-24.5 256.5,-24.5 256.5,-5.5 390.5,-5.5 390.5,-24.5"/>
<text text-anchor="middle" x="323.5" y="-12.5" font-family="Helvetica,sans-Serif" font-size="10.00">src/internal/kmeans.cpp</text>
</a>
</g>
</g>
<!-- Node1&#45;&gt;Node4 -->
<g id="edge3_Node000001_Node000004" class="edge">
<title>Node1&#45;&gt;Node4</title>
<g id="a_edge3_Node000001_Node000004"><a xlink:title=" ">
<path fill="none" stroke="#63b8ff" d="M272.52,-59.22C285.5,-48.21 302.56,-33.75 313.28,-24.67"/>
<polygon fill="#63b8ff" stroke="#63b8ff" points="270.05,-56.73 264.68,-65.87 274.57,-62.07 270.05,-56.73"/>
</a>
</g>
</g>
<!-- Node5 -->
<g id="Node000005" class="node">
<title>Node5</title>
<g id="a_Node000005"><a xlink:href="labels__to__svg_8cpp_source.html" target="_top" xlink:title=" ">
<polygon fill="white" stroke="#666666" points="512.5,-30 408.5,-30 408.5,0 512.5,0 512.5,-30"/>
<text text-anchor="start" x="416.5" y="-18" font-family="Helvetica,sans-Serif" font-size="10.00">src/internal/labels</text>
<text text-anchor="middle" x="460.5" y="-7" font-family="Helvetica,sans-Serif" font-size="10.00">_to_svg.cpp</text>
</a>
</g>
</g>
<!-- Node1&#45;&gt;Node5 -->
<g id="edge4_Node000001_Node000005" class="edge">
<title>Node1&#45;&gt;Node5</title>
<g id="a_edge4_Node000001_Node000005"><a xlink:title=" ">
<path fill="none" stroke="#63b8ff" d="M294.29,-63.2C327.58,-53.75 375.22,-40.22 410.97,-30.06"/>
<polygon fill="#63b8ff" stroke="#63b8ff" points="293.12,-59.89 284.45,-65.99 295.03,-66.63 293.12,-59.89"/>
</a>
</g>
</g>
</g>
</svg>
