<?xml version="1.0" encoding="UTF-8" standalone="no"?>
<!DOCTYPE svg PUBLIC "-//W3C//DTD SVG 1.1//EN"
 "http://www.w3.org/Graphics/SVG/1.1/DTD/svg11.dtd">
<!-- Generated by graphviz version 2.42.4 (0)
 -->
<!-- Title: include/img2num.h Pages: 1 -->
<svg width="786pt" height="93pt"
 viewBox="0.00 0.00 785.50 93.00" xmlns="http://www.w3.org/2000/svg" xmlns:xlink="http://www.w3.org/1999/xlink">
<g id="graph0" class="graph" transform="scale(1 1) rotate(0) translate(4 89)">
<title>include/img2num.h</title>
<!-- Node1 -->
<g id="Node000001" class="node">
<title>Node1</title>
<g id="a_Node000001"><a xlink:title="Core image processing functions for img2num project.">
<polygon fill="#999999" stroke="#666666" points="442.5,-85 332.5,-85 332.5,-66 442.5,-66 442.5,-85"/>
<text text-anchor="middle" x="387.5" y="-73" font-family="Helvetica,sans-Serif" font-size="10.00">include/img2num.h</text>
</a>
</g>
</g>
<!-- Node2 -->
<g id="Node000002" class="node">
<title>Node2</title>
<g id="a_Node000002"><a xlink:href="bilateral__filter_8cpp_source.html" target="_top" xlink:title=" ">
<polygon fill="white" stroke="#666666" points="115,-30 0,-30 0,0 115,0 115,-30"/>
<text text-anchor="start" x="8" y="-18" font-family="Helvetica,sans-Serif" font-size="10.00">src/internal/bilateral</text>
<text text-anchor="middle" x="57.5" y="-7" font-family="Helvetica,sans-Serif" font-size="10.00">_filter.cpp</text>
</a>
</g>
</g>
<!-- Node1&#45;&gt;Node2 -->
<g id="edge1_Node000001_Node000002" class="edge">
<title>Node1&#45;&gt;Node2</title>
<g id="a_edge1_Node000001_Node000002"><a xlink:title=" ">
<path fill="none" stroke="#63b8ff" d="M322.74,-64.36C269.21,-55.8 191.28,-42.89 123.5,-30 120.74,-29.47 117.91,-28.92 115.06,-28.36"/>
<polygon fill="#63b8ff" stroke="#63b8ff" points="322.35,-67.84 332.77,-65.96 323.45,-60.93 322.35,-67.84"/>
</a>
</g>
</g>
<!-- Node3 -->
<g id="Node000003" class="node">
<title>Node3</title>
<g id="a_Node000003"><a xlink:href="bilateral__filter__gpu_8cpp_source.html" target="_top" xlink:title=" ">
<polygon fill="white" stroke="#666666" points="248,-30 133,-30 133,0 248,0 248,-30"/>
<text text-anchor="start" x="141" y="-18" font-family="Helvetica,sans-Serif" font-size="10.00">src/internal/bilateral</text>
<text text-anchor="middle" x="190.5" y="-7" font-family="Helvetica,sans-Serif" font-size="10.00">_filter_gpu.cpp</text>
</a>
</g>
</g>
<!-- Node1&#45;&gt;Node3 -->
<g id="edge2_Node000001_Node000003" class="edge">
<title>Node1&#45;&gt;Node3</title>
<g id="a_edge2_Node000001_Node000003"><a xlink:title=" ">
<path fill="none" stroke="#63b8ff" d="M349.03,-63.08C317.22,-53.63 271.9,-40.17 237.86,-30.06"/>
<polygon fill="#63b8ff" stroke="#63b8ff" points="348.27,-66.5 358.85,-65.99 350.26,-59.79 348.27,-66.5"/>
</a>
</g>
</g>
<!-- Node4 -->
<g id="Node000004" class="node">
<title>Node4</title>
<g id="a_Node000004"><a xlink:href="image__utils_8cpp_source.html" target="_top" xlink:title=" ">
<polygon fill="white" stroke="#666666" points="371,-30 266,-30 266,0 371,0 371,-30"/>
<text text-anchor="start" x="274" y="-18" font-family="Helvetica,sans-Serif" font-size="10.00">src/internal/image</text>
<text text-anchor="middle" x="318.5" y="-7" font-family="Helvetica,sans-Serif" font-size="10.00">_utils.cpp</text>
</a>
</g>
</g>
<!-- Node1&#45;&gt;Node4 -->
<g id="edge3_Node000001_Node000004" class="edge">
<title>Node1&#45;&gt;Node4</title>
<g id="a_edge3_Node000001_Node000004"><a xlink:title=" ">
<path fill="none" stroke="#63b8ff" d="M369.49,-59.23C358.87,-50.23 345.52,-38.91 335.15,-30.11"/>
<polygon fill="#63b8ff" stroke="#63b8ff" points="367.43,-62.07 377.32,-65.87 371.95,-56.73 367.43,-62.07"/>
</a>
</g>
</g>
<!-- Node5 -->
<g id="Node000005" class="node">
<title>Node5</title>
<g id="a_Node000005"><a xlink:href="kmeans_8cpp_source.html" target="_top" xlink:title=" ">
<polygon fill="white" stroke="#666666" points="523.5,-24.5 389.5,-24.5 389.5,-5.5 523.5,-5.5 523.5,-24.5"/>
<text text-anchor="middle" x="456.5" y="-12.5" font-family="Helvetica,sans-Serif" font-size="10.00">src/internal/kmeans.cpp</text>
</a>
</g>
</g>
<!-- Node1&#45;&gt;Node5 -->
<g id="edge4_Node000001_Node000005" class="edge">
<title>Node1&#45;&gt;Node5</title>
<g id="a_edge4_Node000001_Node000005"><a xlink:title=" ">
<path fill="none" stroke="#63b8ff" d="M405.52,-59.22C418.5,-48.21 435.56,-33.75 446.28,-24.67"/>
<polygon fill="#63b8ff" stroke="#63b8ff" points="403.05,-56.73 397.68,-65.87 407.57,-62.07 403.05,-56.73"/>
</a>
</g>
</g>
<!-- Node6 -->
<g id="Node000006" class="node">
<title>Node6</title>
<g id="a_Node000006"><a xlink:href="kmeans__gpu_8cpp_source.html" target="_top" xlink:title=" ">
<polygon fill="white" stroke="#666666" points="655,-30 542,-30 542,0 655,0 655,-30"/>
<text text-anchor="start" x="550" y="-18" font-family="Helvetica,sans-Serif" font-size="10.00">src/internal/kmeans</text>
<text text-anchor="middle" x="598.5" y="-7" font-family="Helvetica,sans-Serif" font-size="10.00">_gpu.cpp</text>
</a>
</g>
</g>
<!-- Node1&#45;&gt;Node6 -->
<g id="edge5_Node000001_Node000006" class="edge">
<title>Node1&#45;&gt;Node6</title>
<g id="a_edge5_Node000001_Node000006"><a xlink:title=" ">
<path fill="none" stroke="#63b8ff" d="M427.82,-63.32C461.93,-53.86 511,-40.26 547.77,-30.06"/>
<polygon fill="#63b8ff" stroke="#63b8ff" points="426.88,-59.95 418.18,-65.99 428.75,-66.69 426.88,-59.95"/>
</a>
</g>
</g>
<!-- Node7 -->
<g id="Node000007" class="node">
<title>Node7</title>
<g id="a_Node000007"><a xlink:href="labels__to__svg_8cpp_source.html" target="_top" xlink:title=" ">
<polygon fill="white" stroke="#666666" points="777.5,-30 673.5,-30 673.5,0 777.5,0 777.5,-30"/>
<text text-anchor="start" x="681.5" y="-18" font-family="Helvetica,sans-Serif" font-size="10.00">src/internal/labels</text>
<text text-anchor="middle" x="725.5" y="-7" font-family="Helvetica,sans-Serif" font-size="10.00">_to_svg.cpp</text>
</a>
</g>
</g>
<!-- Node1&#45;&gt;Node7 -->
<g id="edge6_Node000001_Node000007" class="edge">
<title>Node1&#45;&gt;Node7</title>
<g id="a_edge6_Node000001_Node000007"><a xlink:title=" ">
<path fill="none" stroke="#63b8ff" d="M452.79,-65.26C509.06,-57 592.38,-44.05 664.5,-30 667.38,-29.44 670.33,-28.84 673.31,-28.22"/>
<polygon fill="#63b8ff" stroke="#63b8ff" points="452,-61.84 442.61,-66.75 453.01,-68.76 452,-61.84"/>
</a>
</g>
</g>
</g>
</svg>
