<?xml version="1.0" encoding="UTF-8" standalone="no"?>
<!DOCTYPE svg PUBLIC "-//W3C//DTD SVG 1.1//EN"
 "http://www.w3.org/Graphics/SVG/1.1/DTD/svg11.dtd">
<!-- Generated by graphviz version 2.43.0 (0)
 -->
<!-- Title: include/img2num.h Pages: 1 -->
<svg width="521pt" height="95pt"
 viewBox="0.00 0.00 520.50 95.00" xmlns="http://www.w3.org/2000/svg" xmlns:xlink="http://www.w3.org/1999/xlink">
<g id="graph0" class="graph" transform="scale(1 1) rotate(0) translate(4 91)">
<title>include/img2num.h</title>
<polygon fill="white" stroke="transparent" points="-4,4 -4,-91 516.5,-91 516.5,4 -4,4"/>
<!-- Node1 -->
<g id="node1" class="node">
<title>Node1</title>
<g id="a_node1"><a xlink:title="Core image processing functions for img2num project.">
<polygon fill="#bfbfbf" stroke="black" points="199.5,-67.5 199.5,-86.5 309.5,-86.5 309.5,-67.5 199.5,-67.5"/>
<text text-anchor="middle" x="254.5" y="-74.5" font-family="Helvetica,sans-Serif" font-size="10.00">include/img2num.h</text>
</a>
</g>
</g>
<!-- Node2 -->
<g id="node2" class="node">
<title>Node2</title>
<g id="a_node2"><a xlink:href="bilateral__filter_8cpp_source.html" target="_top" xlink:title=" ">
<polygon fill="white" stroke="black" points="0,-0.5 0,-30.5 115,-30.5 115,-0.5 0,-0.5"/>
<text text-anchor="start" x="8" y="-18.5" font-family="Helvetica,sans-Serif" font-size="10.00">src/internal/bilateral</text>
<text text-anchor="middle" x="57.5" y="-7.5" font-family="Helvetica,sans-Serif" font-size="10.00">_filter.cpp</text>
</a>
</g>
</g>
<!-- Node1&#45;&gt;Node2 -->
<g id="edge1" class="edge">
<title>Node1&#45;&gt;Node2</title>
<path fill="none" stroke="midnightblue" d="M216.37,-64.48C184.25,-54.78 138.19,-40.87 103.93,-30.52"/>
<polygon fill="midnightblue" stroke="midnightblue" points="215.69,-67.93 226.27,-67.48 217.71,-61.23 215.69,-67.93"/>
</g>
<!-- Node3 -->
<g id="node3" class="node">
<title>Node3</title>
<g id="a_node3"><a xlink:href="image__utils_8cpp_source.html" target="_top" xlink:title=" ">
<polygon fill="white" stroke="black" points="133,-0.5 133,-30.5 238,-30.5 238,-0.5 133,-0.5"/>
<text text-anchor="start" x="141" y="-18.5" font-family="Helvetica,sans-Serif" font-size="10.00">src/internal/image</text>
<text text-anchor="middle" x="185.5" y="-7.5" font-family="Helvetica,sans-Serif" font-size="10.00">_utils.cpp</text>
</a>
</g>
</g>
<!-- Node1&#45;&gt;Node3 -->
<g id="edge2" class="edge">
<title>Node1&#45;&gt;Node3</title>
<path fill="none" stroke="midnightblue" d="M237.01,-60.92C226.18,-51.58 212.36,-39.66 201.76,-30.52"/>
<polygon fill="midnightblue" stroke="midnightblue" points="234.76,-63.6 244.61,-67.48 239.33,-58.29 234.76,-63.6"/>
</g>
<!-- Node4 -->
<g id="node4" class="node">
<title>Node4</title>
<g id="a_node4"><a xlink:href="kmeans_8cpp_source.html" target="_top" xlink:title=" ">
<polygon fill="white" stroke="black" points="256.5,-6 256.5,-25 390.5,-25 390.5,-6 256.5,-6"/>
<text text-anchor="middle" x="323.5" y="-13" font-family="Helvetica,sans-Serif" font-size="10.00">src/internal/kmeans.cpp</text>
</a>
</g>
</g>
<!-- Node1&#45;&gt;Node4 -->
<g id="edge3" class="edge">
<title>Node1&#45;&gt;Node4</title>
<path fill="none" stroke="midnightblue" d="M272.3,-60.65C285.46,-49.31 302.88,-34.28 313.63,-25.01"/>
<polygon fill="midnightblue" stroke="midnightblue" points="269.67,-58.29 264.39,-67.48 274.24,-63.6 269.67,-58.29"/>
</g>
<!-- Node5 -->
<g id="node5" class="node">
<title>Node5</title>
<g id="a_node5"><a xlink:href="labels__to__svg_8cpp_source.html" target="_top" xlink:title=" ">
<polygon fill="white" stroke="black" points="408.5,-0.5 408.5,-30.5 512.5,-30.5 512.5,-0.5 408.5,-0.5"/>
<text text-anchor="start" x="416.5" y="-18.5" font-family="Helvetica,sans-Serif" font-size="10.00">src/internal/labels</text>
<text text-anchor="middle" x="460.5" y="-7.5" font-family="Helvetica,sans-Serif" font-size="10.00">_to_svg.cpp</text>
</a>
</g>
</g>
<!-- Node1&#45;&gt;Node5 -->
<g id="edge4" class="edge">
<title>Node1&#45;&gt;Node5</title>
<path fill="none" stroke="midnightblue" d="M293.94,-64.61C327.54,-54.9 375.97,-40.92 411.95,-30.52"/>
<polygon fill="midnightblue" stroke="midnightblue" points="292.65,-61.34 284.01,-67.48 294.59,-68.06 292.65,-61.34"/>
</g>
</g>
</svg>
