<?xml version="1.0" encoding="UTF-8" standalone="no"?>
<!DOCTYPE svg PUBLIC "-//W3C//DTD SVG 1.1//EN"
 "http://www.w3.org/Graphics/SVG/1.1/DTD/svg11.dtd">
<!-- Generated by graphviz version 2.43.0 (0)
 -->
<!-- Title: Graphical Class Hierarchy Pages: 1 -->
<svg width="469pt" height="137pt"
 viewBox="0.00 0.00 469.00 137.00" xmlns="http://www.w3.org/2000/svg" xmlns:xlink="http://www.w3.org/1999/xlink">
<g id="graph0" class="graph" transform="scale(1 1) rotate(0) translate(4 133)">
<title>Graphical Class Hierarchy</title>
<polygon fill="white" stroke="transparent" points="-4,4 -4,-133 465,-133 465,4 -4,4"/>
<!-- Node0 -->
<g id="node1" class="node">
<title>Node0</title>
<g id="a_node1"><a xlink:href="structImageLib_1_1Pixel.html" target="_top" xlink:title=" ">
<polygon fill="white" stroke="black" points="0,-55 0,-74 158,-74 158,-55 0,-55"/>
<text text-anchor="middle" x="79" y="-62" font-family="Helvetica,sans-Serif" font-size="10.00">ImageLib::Pixel&lt; NumberT &gt;</text>
</a>
</g>
</g>
<!-- Node1 -->
<g id="node2" class="node">
<title>Node1</title>
<g id="a_node2"><a xlink:href="structImageLib_1_1RGBPixel.html" target="_top" xlink:title=" ">
<polygon fill="white" stroke="black" points="194,-98.5 194,-128.5 306,-128.5 306,-98.5 194,-98.5"/>
<text text-anchor="start" x="202" y="-116.5" font-family="Helvetica,sans-Serif" font-size="10.00">ImageLib::RGBPixel</text>
<text text-anchor="middle" x="250" y="-105.5" font-family="Helvetica,sans-Serif" font-size="10.00">&lt; uint8_t &gt;</text>
</a>
</g>
</g>
<!-- Node0&#45;&gt;Node1 -->
<g id="edge1" class="edge">
<title>Node0&#45;&gt;Node1</title>
<path fill="none" stroke="midnightblue" d="M122.65,-76.87C145.28,-83.43 173.26,-91.54 197.14,-98.46"/>
<polygon fill="midnightblue" stroke="midnightblue" points="123.57,-73.49 112.99,-74.06 121.62,-80.21 123.57,-73.49"/>
</g>
<!-- Node3 -->
<g id="node4" class="node">
<title>Node3</title>
<g id="a_node4"><a xlink:href="structImageLib_1_1LABPixel.html" target="_top" xlink:title=" ">
<polygon fill="white" stroke="black" points="195,-49.5 195,-79.5 305,-79.5 305,-49.5 195,-49.5"/>
<text text-anchor="start" x="203" y="-67.5" font-family="Helvetica,sans-Serif" font-size="10.00">ImageLib::LABPixel</text>
<text text-anchor="middle" x="250" y="-56.5" font-family="Helvetica,sans-Serif" font-size="10.00">&lt; NumberT &gt;</text>
</a>
</g>
</g>
<!-- Node0&#45;&gt;Node3 -->
<g id="edge3" class="edge">
<title>Node0&#45;&gt;Node3</title>
<path fill="none" stroke="midnightblue" d="M168.3,-64.5C177.37,-64.5 186.37,-64.5 194.9,-64.5"/>
<polygon fill="midnightblue" stroke="midnightblue" points="168.07,-61 158.07,-64.5 168.07,-68 168.07,-61"/>
</g>
<!-- Node5 -->
<g id="node6" class="node">
<title>Node5</title>
<g id="a_node6"><a xlink:href="structImageLib_1_1RGBPixel.html" target="_top" xlink:title=" ">
<polygon fill="white" stroke="black" points="194,-0.5 194,-30.5 306,-30.5 306,-0.5 194,-0.5"/>
<text text-anchor="start" x="202" y="-18.5" font-family="Helvetica,sans-Serif" font-size="10.00">ImageLib::RGBPixel</text>
<text text-anchor="middle" x="250" y="-7.5" font-family="Helvetica,sans-Serif" font-size="10.00">&lt; NumberT &gt;</text>
</a>
</g>
</g>
<!-- Node0&#45;&gt;Node5 -->
<g id="edge5" class="edge">
<title>Node0&#45;&gt;Node5</title>
<path fill="none" stroke="midnightblue" d="M122.65,-52.13C145.28,-45.57 173.26,-37.46 197.14,-30.54"/>
<polygon fill="midnightblue" stroke="midnightblue" points="121.62,-48.79 112.99,-54.94 123.57,-55.51 121.62,-48.79"/>
</g>
<!-- Node2 -->
<g id="node3" class="node">
<title>Node2</title>
<g id="a_node3"><a xlink:href="structImageLib_1_1RGBAPixel.html" target="_top" xlink:title=" ">
<polygon fill="white" stroke="black" points="342,-98.5 342,-128.5 461,-128.5 461,-98.5 342,-98.5"/>
<text text-anchor="start" x="350" y="-116.5" font-family="Helvetica,sans-Serif" font-size="10.00">ImageLib::RGBAPixel</text>
<text text-anchor="middle" x="401.5" y="-105.5" font-family="Helvetica,sans-Serif" font-size="10.00">&lt; uint8_t &gt;</text>
</a>
</g>
</g>
<!-- Node1&#45;&gt;Node2 -->
<g id="edge2" class="edge">
<title>Node1&#45;&gt;Node2</title>
<path fill="none" stroke="midnightblue" d="M316.48,-113.5C324.97,-113.5 333.61,-113.5 341.97,-113.5"/>
<polygon fill="midnightblue" stroke="midnightblue" points="316.24,-110 306.24,-113.5 316.24,-117 316.24,-110"/>
</g>
<!-- Node4 -->
<g id="node5" class="node">
<title>Node4</title>
<g id="a_node5"><a xlink:href="structImageLib_1_1LABAPixel.html" target="_top" xlink:title=" ">
<polygon fill="white" stroke="black" points="343,-49.5 343,-79.5 460,-79.5 460,-49.5 343,-49.5"/>
<text text-anchor="start" x="351" y="-67.5" font-family="Helvetica,sans-Serif" font-size="10.00">ImageLib::LABAPixel</text>
<text text-anchor="middle" x="401.5" y="-56.5" font-family="Helvetica,sans-Serif" font-size="10.00">&lt; NumberT &gt;</text>
</a>
</g>
</g>
<!-- Node3&#45;&gt;Node4 -->
<g id="edge4" class="edge">
<title>Node3&#45;&gt;Node4</title>
<path fill="none" stroke="midnightblue" d="M315.54,-64.5C324.63,-64.5 333.92,-64.5 342.87,-64.5"/>
<polygon fill="midnightblue" stroke="midnightblue" points="315.4,-61 305.4,-64.5 315.4,-68 315.4,-61"/>
</g>
<!-- Node6 -->
<g id="node7" class="node">
<title>Node6</title>
<g id="a_node7"><a xlink:href="structImageLib_1_1RGBAPixel.html" target="_top" xlink:title=" ">
<polygon fill="white" stroke="black" points="342,-0.5 342,-30.5 461,-30.5 461,-0.5 342,-0.5"/>
<text text-anchor="start" x="350" y="-18.5" font-family="Helvetica,sans-Serif" font-size="10.00">ImageLib::RGBAPixel</text>
<text text-anchor="middle" x="401.5" y="-7.5" font-family="Helvetica,sans-Serif" font-size="10.00">&lt; NumberT &gt;</text>
</a>
</g>
</g>
<!-- Node5&#45;&gt;Node6 -->
<g id="edge6" class="edge">
<title>Node5&#45;&gt;Node6</title>
<path fill="none" stroke="midnightblue" d="M316.48,-15.5C324.97,-15.5 333.61,-15.5 341.97,-15.5"/>
<polygon fill="midnightblue" stroke="midnightblue" points="316.24,-12 306.24,-15.5 316.24,-19 316.24,-12"/>
</g>
</g>
</svg>
