<?xml version="1.0" encoding="UTF-8" standalone="no"?>
<!DOCTYPE svg PUBLIC "-//W3C//DTD SVG 1.1//EN"
 "http://www.w3.org/Graphics/SVG/1.1/DTD/svg11.dtd">
<!-- Generated by graphviz version 2.43.0 (0)
 -->
<!-- Title: RGBXY Pages: 1 -->
<svg width="247pt" height="343pt"
 viewBox="0.00 0.00 246.50 343.00" xmlns="http://www.w3.org/2000/svg" xmlns:xlink="http://www.w3.org/1999/xlink">
<g id="graph0" class="graph" transform="scale(1 1) rotate(0) translate(4 339)">
<title>RGBXY</title>
<polygon fill="white" stroke="transparent" points="-4,4 -4,-339 242.5,-339 242.5,4 -4,4"/>
<!-- Node1 -->
<g id="node1" class="node">
<title>Node1</title>
<g id="a_node1"><a xlink:title=" ">
<polygon fill="#bfbfbf" stroke="black" points="45,-0.5 45,-57.5 114,-57.5 114,-0.5 45,-0.5"/>
<text text-anchor="middle" x="79.5" y="-45.5" font-family="Helvetica,sans-Serif" font-size="10.00">RGBXY</text>
<polyline fill="none" stroke="black" points="45,-38.5 114,-38.5 "/>
<text text-anchor="middle" x="79.5" y="-26.5" font-family="Helvetica,sans-Serif" font-size="10.00"> </text>
<polyline fill="none" stroke="black" points="45,-19.5 114,-19.5 "/>
<text text-anchor="start" x="53" y="-7.5" font-family="Helvetica,sans-Serif" font-size="10.00">+ RGBXY()</text>
</a>
</g>
</g>
<!-- Node2 -->
<g id="node2" class="node">
<title>Node2</title>
<g id="a_node2"><a xlink:href="structXY.html" target="_top" xlink:title=" ">
<polygon fill="white" stroke="black" points="0,-127.5 0,-217.5 85,-217.5 85,-127.5 0,-127.5"/>
<text text-anchor="middle" x="42.5" y="-205.5" font-family="Helvetica,sans-Serif" font-size="10.00">XY</text>
<polyline fill="none" stroke="black" points="0,-198.5 85,-198.5 "/>
<text text-anchor="start" x="8" y="-186.5" font-family="Helvetica,sans-Serif" font-size="10.00">+ x</text>
<text text-anchor="start" x="8" y="-175.5" font-family="Helvetica,sans-Serif" font-size="10.00">+ y</text>
<text text-anchor="start" x="8" y="-164.5" font-family="Helvetica,sans-Serif" font-size="10.00">+ xy</text>
<polyline fill="none" stroke="black" points="0,-157.5 85,-157.5 "/>
<text text-anchor="start" x="8" y="-145.5" font-family="Helvetica,sans-Serif" font-size="10.00">+ XY()</text>
<text text-anchor="start" x="8" y="-134.5" font-family="Helvetica,sans-Serif" font-size="10.00">+ operator&lt;()</text>
</a>
</g>
</g>
<!-- Node2&#45;&gt;Node1 -->
<g id="edge1" class="edge">
<title>Node2&#45;&gt;Node1</title>
<path fill="none" stroke="#404040" d="M51.87,-127.08C55.51,-110.92 59.9,-92.56 64.5,-76 65.12,-73.75 65.79,-71.45 66.48,-69.14"/>
<polygon fill="none" stroke="#404040" points="66.5,-69.07 64.46,-62.15 70.06,-57.61 72.1,-64.53 66.5,-69.07"/>
<text text-anchor="middle" x="90" y="-79" font-family="Helvetica,sans-Serif" font-size="10.00"> +position</text>
</g>
<!-- Node3 -->
<g id="node3" class="node">
<title>Node3</title>
<g id="a_node3"><a xlink:href="structImageLib_1_1RGBPixel.html" target="_top" xlink:title=" ">
<polygon fill="white" stroke="black" points="103.5,-105.5 103.5,-239.5 215.5,-239.5 215.5,-105.5 103.5,-105.5"/>
<text text-anchor="start" x="111.5" y="-227.5" font-family="Helvetica,sans-Serif" font-size="10.00">ImageLib::RGBPixel</text>
<text text-anchor="middle" x="159.5" y="-216.5" font-family="Helvetica,sans-Serif" font-size="10.00">&lt; uint8_t &gt;</text>
<polyline fill="none" stroke="black" points="103.5,-209.5 215.5,-209.5 "/>
<text text-anchor="start" x="111.5" y="-197.5" font-family="Helvetica,sans-Serif" font-size="10.00">+ red</text>
<text text-anchor="start" x="111.5" y="-186.5" font-family="Helvetica,sans-Serif" font-size="10.00">+ green</text>
<text text-anchor="start" x="111.5" y="-175.5" font-family="Helvetica,sans-Serif" font-size="10.00">+ blue</text>
<polyline fill="none" stroke="black" points="103.5,-168.5 215.5,-168.5 "/>
<text text-anchor="start" x="111.5" y="-156.5" font-family="Helvetica,sans-Serif" font-size="10.00">+ RGBPixel()</text>
<text text-anchor="start" x="111.5" y="-145.5" font-family="Helvetica,sans-Serif" font-size="10.00">+ operator==()</text>
<text text-anchor="start" x="111.5" y="-134.5" font-family="Helvetica,sans-Serif" font-size="10.00">+ operator!=()</text>
<text text-anchor="start" x="111.5" y="-123.5" font-family="Helvetica,sans-Serif" font-size="10.00">+ setGray()</text>
<text text-anchor="start" x="111.5" y="-112.5" font-family="Helvetica,sans-Serif" font-size="10.00">+ colorDistance()</text>
</a>
</g>
</g>
<!-- Node3&#45;&gt;Node1 -->
<g id="edge2" class="edge">
<title>Node3&#45;&gt;Node1</title>
<path fill="none" stroke="#404040" d="M131.53,-105.47C126.56,-95.39 121.16,-85.27 115.5,-76 113.82,-73.25 112.01,-70.48 110.12,-67.73"/>
<polygon fill="none" stroke="#404040" points="110.08,-67.68 103.32,-65.17 103.04,-57.97 109.8,-60.48 110.08,-67.68"/>
<text text-anchor="middle" x="138.5" y="-79" font-family="Helvetica,sans-Serif" font-size="10.00"> +color</text>
</g>
<!-- Node4 -->
<g id="node4" class="node">
<title>Node4</title>
<g id="a_node4"><a xlink:href="structImageLib_1_1Pixel.html" target="_top" xlink:title=" ">
<polygon fill="white" stroke="black" points="80.5,-277.5 80.5,-334.5 238.5,-334.5 238.5,-277.5 80.5,-277.5"/>
<text text-anchor="middle" x="159.5" y="-322.5" font-family="Helvetica,sans-Serif" font-size="10.00">ImageLib::Pixel&lt; NumberT &gt;</text>
<polyline fill="none" stroke="black" points="80.5,-315.5 238.5,-315.5 "/>
<text text-anchor="middle" x="159.5" y="-303.5" font-family="Helvetica,sans-Serif" font-size="10.00"> </text>
<polyline fill="none" stroke="black" points="80.5,-296.5 238.5,-296.5 "/>
<text text-anchor="start" x="88.5" y="-284.5" font-family="Helvetica,sans-Serif" font-size="10.00">+ ~Pixel()</text>
</a>
</g>
</g>
<!-- Node4&#45;&gt;Node3 -->
<g id="edge3" class="edge">
<title>Node4&#45;&gt;Node3</title>
<path fill="none" stroke="midnightblue" d="M159.5,-267.33C159.5,-258.68 159.5,-249.23 159.5,-239.77"/>
<polygon fill="none" stroke="midnightblue" points="156,-267.43 159.5,-277.43 163,-267.43 156,-267.43"/>
</g>
</g>
</svg>
