<?xml version="1.0" encoding="UTF-8" standalone="no"?>
<!DOCTYPE svg PUBLIC "-//W3C//DTD SVG 1.1//EN"
 "http://www.w3.org/Graphics/SVG/1.1/DTD/svg11.dtd">
<!-- Generated by graphviz version 2.43.0 (0)
 -->
<!-- Title: ImageLib::RGBAPixel&lt; NumberT &gt; Pages: 1 -->
<svg width="166pt" height="375pt"
 viewBox="0.00 0.00 166.00 375.00" xmlns="http://www.w3.org/2000/svg" xmlns:xlink="http://www.w3.org/1999/xlink">
<g id="graph0" class="graph" transform="scale(1 1) rotate(0) translate(4 371)">
<title>ImageLib::RGBAPixel&lt; NumberT &gt;</title>
<polygon fill="white" stroke="transparent" points="-4,4 -4,-371 162,-371 162,4 -4,4"/>
<!-- Node1 -->
<g id="node1" class="node">
<title>Node1</title>
<g id="a_node1"><a xlink:title=" ">
<polygon fill="#bfbfbf" stroke="black" points="19.5,-0.5 19.5,-101.5 138.5,-101.5 138.5,-0.5 19.5,-0.5"/>
<text text-anchor="start" x="27.5" y="-89.5" font-family="Helvetica,sans-Serif" font-size="10.00">ImageLib::RGBAPixel</text>
<text text-anchor="middle" x="79" y="-78.5" font-family="Helvetica,sans-Serif" font-size="10.00">&lt; NumberT &gt;</text>
<polyline fill="none" stroke="black" points="19.5,-71.5 138.5,-71.5 "/>
<text text-anchor="start" x="27.5" y="-59.5" font-family="Helvetica,sans-Serif" font-size="10.00">+ alpha</text>
<polyline fill="none" stroke="black" points="19.5,-52.5 138.5,-52.5 "/>
<text text-anchor="start" x="27.5" y="-40.5" font-family="Helvetica,sans-Serif" font-size="10.00">+ RGBAPixel()</text>
<text text-anchor="start" x="27.5" y="-29.5" font-family="Helvetica,sans-Serif" font-size="10.00">+ operator==()</text>
<text text-anchor="start" x="27.5" y="-18.5" font-family="Helvetica,sans-Serif" font-size="10.00">+ operator!=()</text>
<text text-anchor="start" x="27.5" y="-7.5" font-family="Helvetica,sans-Serif" font-size="10.00">+ setGray()</text>
</a>
</g>
</g>
<!-- Node2 -->
<g id="node2" class="node">
<title>Node2</title>
<g id="a_node2"><a xlink:href="structImageLib_1_1RGBPixel.html" target="_top" xlink:title=" ">
<polygon fill="white" stroke="black" points="23,-138.5 23,-272.5 135,-272.5 135,-138.5 23,-138.5"/>
<text text-anchor="start" x="31" y="-260.5" font-family="Helvetica,sans-Serif" font-size="10.00">ImageLib::RGBPixel</text>
<text text-anchor="middle" x="79" y="-249.5" font-family="Helvetica,sans-Serif" font-size="10.00">&lt; NumberT &gt;</text>
<polyline fill="none" stroke="black" points="23,-242.5 135,-242.5 "/>
<text text-anchor="start" x="31" y="-230.5" font-family="Helvetica,sans-Serif" font-size="10.00">+ red</text>
<text text-anchor="start" x="31" y="-219.5" font-family="Helvetica,sans-Serif" font-size="10.00">+ green</text>
<text text-anchor="start" x="31" y="-208.5" font-family="Helvetica,sans-Serif" font-size="10.00">+ blue</text>
<polyline fill="none" stroke="black" points="23,-201.5 135,-201.5 "/>
<text text-anchor="start" x="31" y="-189.5" font-family="Helvetica,sans-Serif" font-size="10.00">+ RGBPixel()</text>
<text text-anchor="start" x="31" y="-178.5" font-family="Helvetica,sans-Serif" font-size="10.00">+ operator==()</text>
<text text-anchor="start" x="31" y="-167.5" font-family="Helvetica,sans-Serif" font-size="10.00">+ operator!=()</text>
<text text-anchor="start" x="31" y="-156.5" font-family="Helvetica,sans-Serif" font-size="10.00">+ setGray()</text>
<text text-anchor="start" x="31" y="-145.5" font-family="Helvetica,sans-Serif" font-size="10.00">+ colorDistance()</text>
</a>
</g>
</g>
<!-- Node2&#45;&gt;Node1 -->
<g id="edge1" class="edge">
<title>Node2&#45;&gt;Node1</title>
<path fill="none" stroke="midnightblue" d="M79,-128.27C79,-119.19 79,-110.11 79,-101.55"/>
<polygon fill="none" stroke="midnightblue" points="75.5,-128.5 79,-138.5 82.5,-128.5 75.5,-128.5"/>
</g>
<!-- Node3 -->
<g id="node3" class="node">
<title>Node3</title>
<g id="a_node3"><a xlink:href="structImageLib_1_1Pixel.html" target="_top" xlink:title=" ">
<polygon fill="white" stroke="black" points="0,-309.5 0,-366.5 158,-366.5 158,-309.5 0,-309.5"/>
<text text-anchor="middle" x="79" y="-354.5" font-family="Helvetica,sans-Serif" font-size="10.00">ImageLib::Pixel&lt; NumberT &gt;</text>
<polyline fill="none" stroke="black" points="0,-347.5 158,-347.5 "/>
<text text-anchor="middle" x="79" y="-335.5" font-family="Helvetica,sans-Serif" font-size="10.00"> </text>
<polyline fill="none" stroke="black" points="0,-328.5 158,-328.5 "/>
<text text-anchor="start" x="8" y="-316.5" font-family="Helvetica,sans-Serif" font-size="10.00">+ ~Pixel()</text>
</a>
</g>
</g>
<!-- Node3&#45;&gt;Node2 -->
<g id="edge2" class="edge">
<title>Node3&#45;&gt;Node2</title>
<path fill="none" stroke="midnightblue" d="M79,-299.16C79,-290.78 79,-281.67 79,-272.53"/>
<polygon fill="none" stroke="midnightblue" points="75.5,-299.32 79,-309.32 82.5,-299.32 75.5,-299.32"/>
</g>
</g>
</svg>
