<?xml version="1.0" encoding="UTF-8" standalone="no"?>
<!DOCTYPE svg PUBLIC "-//W3C//DTD SVG 1.1//EN"
 "http://www.w3.org/Graphics/SVG/1.1/DTD/svg11.dtd">
<!-- Generated by graphviz version 2.43.0 (0)
 -->
<!-- Title: QuadBezier Pages: 1 -->
<svg width="101pt" height="259pt"
 viewBox="0.00 0.00 101.00 259.00" xmlns="http://www.w3.org/2000/svg" xmlns:xlink="http://www.w3.org/1999/xlink">
<g id="graph0" class="graph" transform="scale(1 1) rotate(0) translate(4 255)">
<title>QuadBezier</title>
<polygon fill="white" stroke="transparent" points="-4,4 -4,-255 97,-255 97,4 -4,4"/>
<!-- Node1 -->
<g id="node1" class="node">
<title>Node1</title>
<g id="a_node1"><a xlink:title=" ">
<polygon fill="#bfbfbf" stroke="black" points="10,-0.5 10,-57.5 83,-57.5 83,-0.5 10,-0.5"/>
<text text-anchor="middle" x="46.5" y="-45.5" font-family="Helvetica,sans-Serif" font-size="10.00">QuadBezier</text>
<polyline fill="none" stroke="black" points="10,-38.5 83,-38.5 "/>
<text text-anchor="middle" x="46.5" y="-26.5" font-family="Helvetica,sans-Serif" font-size="10.00"> </text>
<polyline fill="none" stroke="black" points="10,-19.5 83,-19.5 "/>
<text text-anchor="middle" x="46.5" y="-7.5" font-family="Helvetica,sans-Serif" font-size="10.00"> </text>
</a>
</g>
</g>
<!-- Node2 -->
<g id="node2" class="node">
<title>Node2</title>
<g id="a_node2"><a xlink:href="structPoint.html" target="_top" xlink:title=" ">
<polygon fill="white" stroke="black" points="0,-127.5 0,-250.5 93,-250.5 93,-127.5 0,-127.5"/>
<text text-anchor="middle" x="46.5" y="-238.5" font-family="Helvetica,sans-Serif" font-size="10.00">Point</text>
<polyline fill="none" stroke="black" points="0,-231.5 93,-231.5 "/>
<text text-anchor="start" x="8" y="-219.5" font-family="Helvetica,sans-Serif" font-size="10.00">+ x</text>
<text text-anchor="start" x="8" y="-208.5" font-family="Helvetica,sans-Serif" font-size="10.00">+ y</text>
<polyline fill="none" stroke="black" points="0,-201.5 93,-201.5 "/>
<text text-anchor="start" x="8" y="-189.5" font-family="Helvetica,sans-Serif" font-size="10.00">+ operator+()</text>
<text text-anchor="start" x="8" y="-178.5" font-family="Helvetica,sans-Serif" font-size="10.00">+ operator&#45;()</text>
<text text-anchor="start" x="8" y="-167.5" font-family="Helvetica,sans-Serif" font-size="10.00">+ operator*()</text>
<text text-anchor="start" x="8" y="-156.5" font-family="Helvetica,sans-Serif" font-size="10.00">+ operator/()</text>
<text text-anchor="start" x="8" y="-145.5" font-family="Helvetica,sans-Serif" font-size="10.00">+ operator+=()</text>
<text text-anchor="start" x="8" y="-134.5" font-family="Helvetica,sans-Serif" font-size="10.00">+ distSq()</text>
</a>
</g>
</g>
<!-- Node2&#45;&gt;Node1 -->
<g id="edge1" class="edge">
<title>Node2&#45;&gt;Node1</title>
<path fill="none" stroke="#404040" d="M46.5,-127.36C46.5,-108.04 46.5,-87.16 46.5,-69.71"/>
<polygon fill="none" stroke="#404040" points="46.5,-69.68 42.5,-63.68 46.5,-57.68 50.5,-63.68 46.5,-69.68"/>
<text text-anchor="middle" x="58.5" y="-101" font-family="Helvetica,sans-Serif" font-size="10.00"> +p0</text>
<text text-anchor="middle" x="58.5" y="-90" font-family="Helvetica,sans-Serif" font-size="10.00">+p1</text>
<text text-anchor="middle" x="58.5" y="-79" font-family="Helvetica,sans-Serif" font-size="10.00">+p2</text>
</g>
</g>
</svg>
