<?xml version="1.0" encoding="UTF-8" standalone="no"?>
<!DOCTYPE svg PUBLIC "-//W3C//DTD SVG 1.1//EN"
 "http://www.w3.org/Graphics/SVG/1.1/DTD/svg11.dtd">
<!-- Generated by graphviz version 2.43.0 (0)
 -->
<!-- Title: ContoursResult Pages: 1 -->
<svg width="106pt" height="193pt"
 viewBox="0.00 0.00 106.00 193.00" xmlns="http://www.w3.org/2000/svg" xmlns:xlink="http://www.w3.org/1999/xlink">
<g id="graph0" class="graph" transform="scale(1 1) rotate(0) translate(4 189)">
<title>ContoursResult</title>
<polygon fill="white" stroke="transparent" points="-4,4 -4,-189 102,-189 102,4 -4,4"/>
<!-- Node1 -->
<g id="node1" class="node">
<title>Node1</title>
<g id="a_node1"><a xlink:title=" ">
<polygon fill="#bfbfbf" stroke="black" points="3.5,-94.5 3.5,-184.5 94.5,-184.5 94.5,-94.5 3.5,-94.5"/>
<text text-anchor="middle" x="49" y="-172.5" font-family="Helvetica,sans-Serif" font-size="10.00">ContoursResult</text>
<polyline fill="none" stroke="black" points="3.5,-165.5 94.5,-165.5 "/>
<text text-anchor="start" x="11.5" y="-153.5" font-family="Helvetica,sans-Serif" font-size="10.00">+ contours</text>
<text text-anchor="start" x="11.5" y="-142.5" font-family="Helvetica,sans-Serif" font-size="10.00">+ curves</text>
<text text-anchor="start" x="11.5" y="-131.5" font-family="Helvetica,sans-Serif" font-size="10.00">+ hierarchy</text>
<text text-anchor="start" x="11.5" y="-120.5" font-family="Helvetica,sans-Serif" font-size="10.00">+ is_hole</text>
<polyline fill="none" stroke="black" points="3.5,-113.5 94.5,-113.5 "/>
<text text-anchor="middle" x="49" y="-101.5" font-family="Helvetica,sans-Serif" font-size="10.00"> </text>
</a>
</g>
</g>
<!-- Node2 -->
<g id="node2" class="node">
<title>Node2</title>
<g id="a_node2"><a xlink:href="structColoredContours.html" target="_top" xlink:title=" ">
<polygon fill="white" stroke="black" points="0,-0.5 0,-57.5 98,-57.5 98,-0.5 0,-0.5"/>
<text text-anchor="middle" x="49" y="-45.5" font-family="Helvetica,sans-Serif" font-size="10.00">ColoredContours</text>
<polyline fill="none" stroke="black" points="0,-38.5 98,-38.5 "/>
<text text-anchor="start" x="8" y="-26.5" font-family="Helvetica,sans-Serif" font-size="10.00">+ colors</text>
<polyline fill="none" stroke="black" points="0,-19.5 98,-19.5 "/>
<text text-anchor="middle" x="49" y="-7.5" font-family="Helvetica,sans-Serif" font-size="10.00"> </text>
</a>
</g>
</g>
<!-- Node1&#45;&gt;Node2 -->
<g id="edge1" class="edge">
<title>Node1&#45;&gt;Node2</title>
<path fill="none" stroke="midnightblue" d="M49,-84.35C49,-75.07 49,-65.79 49,-57.59"/>
<polygon fill="none" stroke="midnightblue" points="45.5,-84.37 49,-94.37 52.5,-84.37 45.5,-84.37"/>
</g>
</g>
</svg>
