<?xml version="1.0" encoding="UTF-8" standalone="no"?>
<!DOCTYPE svg PUBLIC "-//W3C//DTD SVG 1.1//EN"
 "http://www.w3.org/Graphics/SVG/1.1/DTD/svg11.dtd">
<!-- Generated by graphviz version 2.43.0 (0)
 -->
<!-- Title: ContoursResult Pages: 1 -->
<svg width="563pt" height="287pt"
 viewBox="0.00 0.00 563.00 287.00" xmlns="http://www.w3.org/2000/svg" xmlns:xlink="http://www.w3.org/1999/xlink">
<g id="graph0" class="graph" transform="scale(1 1) rotate(0) translate(4 283)">
<title>ContoursResult</title>
<polygon fill="white" stroke="transparent" points="-4,4 -4,-283 559,-283 559,4 -4,4"/>
<!-- Node1 -->
<g id="node1" class="node">
<title>Node1</title>
<g id="a_node1"><a xlink:title=" ">
<polygon fill="#bfbfbf" stroke="black" points="211,-0.5 211,-57.5 302,-57.5 302,-0.5 211,-0.5"/>
<text text-anchor="middle" x="256.5" y="-45.5" font-family="Helvetica,sans-Serif" font-size="10.00">ContoursResult</text>
<polyline fill="none" stroke="black" points="211,-38.5 302,-38.5 "/>
<text text-anchor="middle" x="256.5" y="-26.5" font-family="Helvetica,sans-Serif" font-size="10.00"> </text>
<polyline fill="none" stroke="black" points="211,-19.5 302,-19.5 "/>
<text text-anchor="middle" x="256.5" y="-7.5" font-family="Helvetica,sans-Serif" font-size="10.00"> </text>
</a>
</g>
</g>
<!-- Node2 -->
<g id="node2" class="node">
<title>Node2</title>
<g id="a_node2"><a xlink:title=" ">
<polygon fill="white" stroke="#bfbfbf" points="0,-105.5 0,-173.5 131,-173.5 131,-105.5 0,-105.5"/>
<text text-anchor="start" x="8" y="-161.5" font-family="Helvetica,sans-Serif" font-size="10.00">std::vector&lt; std::vector</text>
<text text-anchor="middle" x="65.5" y="-150.5" font-family="Helvetica,sans-Serif" font-size="10.00">&lt; QuadBezier &gt; &gt;</text>
<polyline fill="none" stroke="#bfbfbf" points="0,-143.5 131,-143.5 "/>
<text text-anchor="start" x="8" y="-131.5" font-family="Helvetica,sans-Serif" font-size="10.00">+ elements</text>
<polyline fill="none" stroke="#bfbfbf" points="0,-124.5 131,-124.5 "/>
<text text-anchor="middle" x="65.5" y="-112.5" font-family="Helvetica,sans-Serif" font-size="10.00"> </text>
</a>
</g>
</g>
<!-- Node2&#45;&gt;Node1 -->
<g id="edge1" class="edge">
<title>Node2&#45;&gt;Node1</title>
<path fill="none" stroke="#404040" d="M123.84,-105.36C148.1,-91.58 176.15,-75.64 200.19,-61.99"/>
<polygon fill="none" stroke="#404040" points="200.49,-61.81 203.74,-55.37 210.93,-55.89 207.69,-62.33 200.49,-61.81"/>
<text text-anchor="middle" x="194.5" y="-79" font-family="Helvetica,sans-Serif" font-size="10.00"> +curves</text>
</g>
<!-- Node3 -->
<g id="node3" class="node">
<title>Node3</title>
<g id="a_node3"><a xlink:title=" ">
<polygon fill="white" stroke="#bfbfbf" points="149.5,-111 149.5,-168 261.5,-168 261.5,-111 149.5,-111"/>
<text text-anchor="middle" x="205.5" y="-156" font-family="Helvetica,sans-Serif" font-size="10.00">std::vector&lt; bool &gt;</text>
<polyline fill="none" stroke="#bfbfbf" points="149.5,-149 261.5,-149 "/>
<text text-anchor="start" x="157.5" y="-137" font-family="Helvetica,sans-Serif" font-size="10.00">+ elements</text>
<polyline fill="none" stroke="#bfbfbf" points="149.5,-130 261.5,-130 "/>
<text text-anchor="middle" x="205.5" y="-118" font-family="Helvetica,sans-Serif" font-size="10.00"> </text>
</a>
</g>
</g>
<!-- Node3&#45;&gt;Node1 -->
<g id="edge2" class="edge">
<title>Node3&#45;&gt;Node1</title>
<path fill="none" stroke="#404040" d="M218.5,-110.84C224.5,-98.09 231.71,-82.73 238.24,-68.84"/>
<polygon fill="none" stroke="#404040" points="238.42,-68.47 237.35,-61.34 243.52,-57.61 244.59,-64.74 238.42,-68.47"/>
<text text-anchor="middle" x="257.5" y="-79" font-family="Helvetica,sans-Serif" font-size="10.00"> +is_hole</text>
</g>
<!-- Node4 -->
<g id="node4" class="node">
<title>Node4</title>
<g id="a_node4"><a xlink:title=" ">
<polygon fill="white" stroke="#bfbfbf" points="279.5,-105.5 279.5,-173.5 405.5,-173.5 405.5,-105.5 279.5,-105.5"/>
<text text-anchor="start" x="287.5" y="-161.5" font-family="Helvetica,sans-Serif" font-size="10.00">std::vector&lt; std::array</text>
<text text-anchor="middle" x="342.5" y="-150.5" font-family="Helvetica,sans-Serif" font-size="10.00">&lt; int, 4 &gt; &gt;</text>
<polyline fill="none" stroke="#bfbfbf" points="279.5,-143.5 405.5,-143.5 "/>
<text text-anchor="middle" x="342.5" y="-131.5" font-family="Helvetica,sans-Serif" font-size="10.00"> </text>
<polyline fill="none" stroke="#bfbfbf" points="279.5,-124.5 405.5,-124.5 "/>
<text text-anchor="middle" x="342.5" y="-112.5" font-family="Helvetica,sans-Serif" font-size="10.00"> </text>
</a>
</g>
</g>
<!-- Node4&#45;&gt;Node1 -->
<g id="edge3" class="edge">
<title>Node4&#45;&gt;Node1</title>
<path fill="none" stroke="#404040" d="M316.23,-105.36C306.72,-93.36 295.92,-79.73 286.14,-67.39"/>
<polygon fill="none" stroke="#404040" points="286.01,-67.23 279.15,-65.01 278.56,-57.83 285.42,-60.04 286.01,-67.23"/>
<text text-anchor="middle" x="328.5" y="-79" font-family="Helvetica,sans-Serif" font-size="10.00"> +hierarchy</text>
</g>
<!-- Node5 -->
<g id="node5" class="node">
<title>Node5</title>
<g id="a_node5"><a xlink:title=" ">
<polygon fill="white" stroke="#bfbfbf" points="287.5,-221.5 287.5,-278.5 397.5,-278.5 397.5,-221.5 287.5,-221.5"/>
<text text-anchor="middle" x="342.5" y="-266.5" font-family="Helvetica,sans-Serif" font-size="10.00">std::array&lt; int, 4 &gt;</text>
<polyline fill="none" stroke="#bfbfbf" points="287.5,-259.5 397.5,-259.5 "/>
<text text-anchor="start" x="295.5" y="-247.5" font-family="Helvetica,sans-Serif" font-size="10.00">+ elements</text>
<polyline fill="none" stroke="#bfbfbf" points="287.5,-240.5 397.5,-240.5 "/>
<text text-anchor="middle" x="342.5" y="-228.5" font-family="Helvetica,sans-Serif" font-size="10.00"> </text>
</a>
</g>
</g>
<!-- Node5&#45;&gt;Node4 -->
<g id="edge4" class="edge">
<title>Node5&#45;&gt;Node4</title>
<path fill="none" stroke="#404040" d="M342.5,-221.34C342.5,-210.53 342.5,-197.85 342.5,-185.77"/>
<polygon fill="none" stroke="#404040" points="342.5,-185.52 338.5,-179.52 342.5,-173.52 346.5,-179.52 342.5,-185.52"/>
<text text-anchor="middle" x="371.5" y="-195" font-family="Helvetica,sans-Serif" font-size="10.00"> +elements</text>
</g>
<!-- Node6 -->
<g id="node6" class="node">
<title>Node6</title>
<g id="a_node6"><a xlink:title=" ">
<polygon fill="white" stroke="#bfbfbf" points="424,-105.5 424,-173.5 555,-173.5 555,-105.5 424,-105.5"/>
<text text-anchor="start" x="432" y="-161.5" font-family="Helvetica,sans-Serif" font-size="10.00">std::vector&lt; std::vector</text>
<text text-anchor="middle" x="489.5" y="-150.5" font-family="Helvetica,sans-Serif" font-size="10.00">&lt; Point &gt; &gt;</text>
<polyline fill="none" stroke="#bfbfbf" points="424,-143.5 555,-143.5 "/>
<text text-anchor="start" x="432" y="-131.5" font-family="Helvetica,sans-Serif" font-size="10.00">+ elements</text>
<polyline fill="none" stroke="#bfbfbf" points="424,-124.5 555,-124.5 "/>
<text text-anchor="middle" x="489.5" y="-112.5" font-family="Helvetica,sans-Serif" font-size="10.00"> </text>
</a>
</g>
</g>
<!-- Node6&#45;&gt;Node1 -->
<g id="edge5" class="edge">
<title>Node6&#45;&gt;Node1</title>
<path fill="none" stroke="#404040" d="M423.97,-105.86C404,-96.08 381.92,-85.45 361.5,-76 345.95,-68.8 328.98,-61.24 313.31,-54.38"/>
<polygon fill="none" stroke="#404040" points="313.16,-54.31 306.07,-55.58 302.16,-49.52 309.26,-48.25 313.16,-54.31"/>
<text text-anchor="middle" x="409.5" y="-79" font-family="Helvetica,sans-Serif" font-size="10.00"> +contours</text>
</g>
</g>
</svg>
