<?xml version="1.0" encoding="UTF-8" standalone="no"?>
<!DOCTYPE svg PUBLIC "-//W3C//DTD SVG 1.1//EN"
 "http://www.w3.org/Graphics/SVG/1.1/DTD/svg11.dtd">
<!-- Generated by graphviz version 2.43.0 (0)
 -->
<!-- Title: ColoredContours Pages: 1 -->
<!--zoomable 608 -->
<svg id="main" version="1.1" xmlns="http://www.w3.org/2000/svg" xmlns:xlink="http://www.w3.org/1999/xlink" xml:space="preserve" onload="init(evt)">
<style type="text/css"><![CDATA[
.edge:hover path { stroke: red; }
.edge:hover polygon { stroke: red; fill: red; }
]]></style>
<script type="text/javascript"><![CDATA[
var edges = document.getElementsByTagName('g');
if (edges && edges.length) {
  for (var i=0;i<edges.length;i++) {
    if (edges[i].id.substr(0,4)=='edge') {
      edges[i].setAttribute('class','edge');
    }
  }
}
]]></script>
        <defs>
                <circle id="rim" cx="0" cy="0" r="7"/>
                <circle id="rim2" cx="0" cy="0" r="3.5"/>
                <g id="zoomPlus">
                        <use xlink:href="#rim" fill="#404040">
                                <set attributeName="fill" to="#808080" begin="zoomplus.mouseover" end="zoomplus.mouseout"/>
                        </use>
                        <path d="M-4,0h8M0,-4v8" fill="none" stroke="white" stroke-width="1.5" pointer-events="none"/>
                </g>
                <g id="zoomMin">
                        <use xlink:href="#rim" fill="#404040">
                                <set attributeName="fill" to="#808080" begin="zoomminus.mouseover" end="zoomminus.mouseout"/>
                        </use>
                        <path d="M-4,0h8" fill="none" stroke="white" stroke-width="1.5" pointer-events="none"/>
                </g>
                <g id="dirArrow">
                        <path fill="none" stroke="white" stroke-width="1.5" d="M0,-3.0v7 M-2.5,-0.5L0,-3.0L2.5,-0.5"/>
                </g>
               <g id="resetDef">
                       <use xlink:href="#rim2" fill="#404040">
                               <set attributeName="fill" to="#808080" begin="reset.mouseover" end="reset.mouseout"/>
                       </use>
               </g>
        </defs>

<script type="text/javascript">
var viewWidth = 720;
var viewHeight = 608;
var sectionId = 'dynsection-1';
</script>
<script xlink:href="svgpan.js"/>
<svg id="graph" class="graph">
<g id="viewport">
<title>ColoredContours</title>
<polygon fill="white" stroke="transparent" points="-4,4 -4,-604 715.5,-604 715.5,4 -4,4"/>
<!-- Node1 -->
<g id="node1" class="node">
<title>Node1</title>
<g id="a_node1"><a xlink:title=" ">
<polygon fill="#bfbfbf" stroke="black" points="359.5,-0.5 359.5,-57.5 457.5,-57.5 457.5,-0.5 359.5,-0.5"/>
<text text-anchor="middle" x="408.5" y="-45.5" font-family="Helvetica,sans-Serif" font-size="10.00">ColoredContours</text>
<polyline fill="none" stroke="black" points="359.5,-38.5 457.5,-38.5 "/>
<text text-anchor="middle" x="408.5" y="-26.5" font-family="Helvetica,sans-Serif" font-size="10.00"> </text>
<polyline fill="none" stroke="black" points="359.5,-19.5 457.5,-19.5 "/>
<text text-anchor="middle" x="408.5" y="-7.5" font-family="Helvetica,sans-Serif" font-size="10.00"> </text>
</a>
</g>
</g>
<!-- Node2 -->
<g id="node2" class="node">
<title>Node2</title>
<g id="a_node2"><a xlink:href="structContoursResult.html" target="_top" xlink:title=" ">
<polygon fill="white" stroke="black" points="297,-111 297,-168 388,-168 388,-111 297,-111"/>
<text text-anchor="middle" x="342.5" y="-156" font-family="Helvetica,sans-Serif" font-size="10.00">ContoursResult</text>
<polyline fill="none" stroke="black" points="297,-149 388,-149 "/>
<text text-anchor="middle" x="342.5" y="-137" font-family="Helvetica,sans-Serif" font-size="10.00"> </text>
<polyline fill="none" stroke="black" points="297,-130 388,-130 "/>
<text text-anchor="middle" x="342.5" y="-118" font-family="Helvetica,sans-Serif" font-size="10.00"> </text>
</a>
</g>
</g>
<!-- Node2&#45;&gt;Node1 -->
<g id="edge1" class="edge">
<title>Node2&#45;&gt;Node1</title>
<path fill="none" stroke="midnightblue" d="M364.65,-102.09C373.48,-87.56 383.49,-71.12 391.71,-57.61"/>
<polygon fill="none" stroke="midnightblue" points="361.53,-100.48 359.33,-110.84 367.51,-104.12 361.53,-100.48"/>
</g>
<!-- Node3 -->
<g id="node3" class="node">
<title>Node3</title>
<g id="a_node3"><a xlink:title=" ">
<polygon fill="white" stroke="#bfbfbf" points="0,-238 0,-306 131,-306 131,-238 0,-238"/>
<text text-anchor="start" x="8" y="-294" font-family="Helvetica,sans-Serif" font-size="10.00">std::vector&lt; std::vector</text>
<text text-anchor="middle" x="65.5" y="-283" font-family="Helvetica,sans-Serif" font-size="10.00">&lt; QuadBezier &gt; &gt;</text>
<polyline fill="none" stroke="#bfbfbf" points="0,-276 131,-276 "/>
<text text-anchor="start" x="8" y="-264" font-family="Helvetica,sans-Serif" font-size="10.00">+ elements</text>
<polyline fill="none" stroke="#bfbfbf" points="0,-257 131,-257 "/>
<text text-anchor="middle" x="65.5" y="-245" font-family="Helvetica,sans-Serif" font-size="10.00"> </text>
</a>
</g>
</g>
<!-- Node3&#45;&gt;Node2 -->
<g id="edge2" class="edge">
<title>Node3&#45;&gt;Node2</title>
<path fill="none" stroke="#404040" d="M111.79,-237.98C121.09,-231.97 130.94,-226.02 140.5,-221 187.6,-196.26 244.05,-174.37 285.29,-159.68"/>
<polygon fill="none" stroke="#404040" points="285.45,-159.62 289.78,-153.86 296.77,-155.64 292.44,-161.4 285.45,-159.62"/>
<text text-anchor="middle" x="222.5" y="-195" font-family="Helvetica,sans-Serif" font-size="10.00"> +curves</text>
</g>
<!-- Node4 -->
<g id="node4" class="node">
<title>Node4</title>
<g id="a_node4"><a xlink:title=" ">
<polygon fill="white" stroke="#bfbfbf" points="149.5,-243.5 149.5,-300.5 261.5,-300.5 261.5,-243.5 149.5,-243.5"/>
<text text-anchor="middle" x="205.5" y="-288.5" font-family="Helvetica,sans-Serif" font-size="10.00">std::vector&lt; bool &gt;</text>
<polyline fill="none" stroke="#bfbfbf" points="149.5,-281.5 261.5,-281.5 "/>
<text text-anchor="start" x="157.5" y="-269.5" font-family="Helvetica,sans-Serif" font-size="10.00">+ elements</text>
<polyline fill="none" stroke="#bfbfbf" points="149.5,-262.5 261.5,-262.5 "/>
<text text-anchor="middle" x="205.5" y="-250.5" font-family="Helvetica,sans-Serif" font-size="10.00"> </text>
</a>
</g>
</g>
<!-- Node4&#45;&gt;Node2 -->
<g id="edge3" class="edge">
<title>Node4&#45;&gt;Node2</title>
<path fill="none" stroke="#404040" d="M234.55,-243.32C254.99,-223.86 282.53,-197.63 304.67,-176.53"/>
<polygon fill="none" stroke="#404040" points="304.8,-176.41 306.38,-169.38 313.49,-168.14 311.9,-175.17 304.8,-176.41"/>
<text text-anchor="middle" x="309.5" y="-195" font-family="Helvetica,sans-Serif" font-size="10.00"> +is_hole</text>
</g>
<!-- Node5 -->
<g id="node5" class="node">
<title>Node5</title>
<g id="a_node5"><a xlink:title=" ">
<polygon fill="white" stroke="#bfbfbf" points="279.5,-238 279.5,-306 405.5,-306 405.5,-238 279.5,-238"/>
<text text-anchor="start" x="287.5" y="-294" font-family="Helvetica,sans-Serif" font-size="10.00">std::vector&lt; std::array</text>
<text text-anchor="middle" x="342.5" y="-283" font-family="Helvetica,sans-Serif" font-size="10.00">&lt; int, 4 &gt; &gt;</text>
<polyline fill="none" stroke="#bfbfbf" points="279.5,-276 405.5,-276 "/>
<text text-anchor="middle" x="342.5" y="-264" font-family="Helvetica,sans-Serif" font-size="10.00"> </text>
<polyline fill="none" stroke="#bfbfbf" points="279.5,-257 405.5,-257 "/>
<text text-anchor="middle" x="342.5" y="-245" font-family="Helvetica,sans-Serif" font-size="10.00"> </text>
</a>
</g>
</g>
<!-- Node5&#45;&gt;Node2 -->
<g id="edge4" class="edge">
<title>Node5&#45;&gt;Node2</title>
<path fill="none" stroke="#404040" d="M342.5,-237.73C342.5,-220.31 342.5,-198.84 342.5,-180.51"/>
<polygon fill="none" stroke="#404040" points="342.5,-180.41 338.5,-174.41 342.5,-168.41 346.5,-174.41 342.5,-180.41"/>
<text text-anchor="middle" x="371.5" y="-195" font-family="Helvetica,sans-Serif" font-size="10.00"> +hierarchy</text>
</g>
<!-- Node6 -->
<g id="node6" class="node">
<title>Node6</title>
<g id="a_node6"><a xlink:title=" ">
<polygon fill="white" stroke="#bfbfbf" points="287.5,-409 287.5,-466 397.5,-466 397.5,-409 287.5,-409"/>
<text text-anchor="middle" x="342.5" y="-454" font-family="Helvetica,sans-Serif" font-size="10.00">std::array&lt; int, 4 &gt;</text>
<polyline fill="none" stroke="#bfbfbf" points="287.5,-447 397.5,-447 "/>
<text text-anchor="start" x="295.5" y="-435" font-family="Helvetica,sans-Serif" font-size="10.00">+ elements</text>
<polyline fill="none" stroke="#bfbfbf" points="287.5,-428 397.5,-428 "/>
<text text-anchor="middle" x="342.5" y="-416" font-family="Helvetica,sans-Serif" font-size="10.00"> </text>
</a>
</g>
</g>
<!-- Node6&#45;&gt;Node5 -->
<g id="edge5" class="edge">
<title>Node6&#45;&gt;Node5</title>
<path fill="none" stroke="#404040" d="M342.5,-408.76C342.5,-384.08 342.5,-347.51 342.5,-318.54"/>
<polygon fill="none" stroke="#404040" points="342.5,-318.24 338.5,-312.24 342.5,-306.24 346.5,-312.24 342.5,-318.24"/>
<text text-anchor="middle" x="371.5" y="-344" font-family="Helvetica,sans-Serif" font-size="10.00"> +elements</text>
</g>
<!-- Node7 -->
<g id="node7" class="node">
<title>Node7</title>
<g id="a_node7"><a xlink:title=" ">
<polygon fill="white" stroke="#bfbfbf" points="424,-238 424,-306 555,-306 555,-238 424,-238"/>
<text text-anchor="start" x="432" y="-294" font-family="Helvetica,sans-Serif" font-size="10.00">std::vector&lt; std::vector</text>
<text text-anchor="middle" x="489.5" y="-283" font-family="Helvetica,sans-Serif" font-size="10.00">&lt; Point &gt; &gt;</text>
<polyline fill="none" stroke="#bfbfbf" points="424,-276 555,-276 "/>
<text text-anchor="start" x="432" y="-264" font-family="Helvetica,sans-Serif" font-size="10.00">+ elements</text>
<polyline fill="none" stroke="#bfbfbf" points="424,-257 555,-257 "/>
<text text-anchor="middle" x="489.5" y="-245" font-family="Helvetica,sans-Serif" font-size="10.00"> </text>
</a>
</g>
</g>
<!-- Node7&#45;&gt;Node2 -->
<g id="edge6" class="edge">
<title>Node7&#45;&gt;Node2</title>
<path fill="none" stroke="#404040" d="M454.75,-237.88C439.51,-223.57 421.3,-206.76 404.5,-192 398.64,-186.85 392.39,-181.5 386.19,-176.27"/>
<polygon fill="none" stroke="#404040" points="385.78,-175.93 378.61,-175.15 376.57,-168.23 383.74,-169.01 385.78,-175.93"/>
<text text-anchor="middle" x="443.5" y="-195" font-family="Helvetica,sans-Serif" font-size="10.00"> +contours</text>
</g>
<!-- Node8 -->
<g id="node8" class="node">
<title>Node8</title>
<g id="a_node8"><a xlink:title=" ">
<polygon fill="white" stroke="#bfbfbf" points="467,-105.5 467,-173.5 608,-173.5 608,-105.5 467,-105.5"/>
<text text-anchor="start" x="475" y="-161.5" font-family="Helvetica,sans-Serif" font-size="10.00">std::vector&lt; ImageLib</text>
<text text-anchor="middle" x="537.5" y="-150.5" font-family="Helvetica,sans-Serif" font-size="10.00">::RGBAPixel&lt; uint8_t &gt; &gt;</text>
<polyline fill="none" stroke="#bfbfbf" points="467,-143.5 608,-143.5 "/>
<text text-anchor="middle" x="537.5" y="-131.5" font-family="Helvetica,sans-Serif" font-size="10.00"> </text>
<polyline fill="none" stroke="#bfbfbf" points="467,-124.5 608,-124.5 "/>
<text text-anchor="middle" x="537.5" y="-112.5" font-family="Helvetica,sans-Serif" font-size="10.00"> </text>
</a>
</g>
</g>
<!-- Node8&#45;&gt;Node1 -->
<g id="edge7" class="edge">
<title>Node8&#45;&gt;Node1</title>
<path fill="none" stroke="#404040" d="M498.09,-105.36C483.12,-92.76 466.01,-78.37 450.79,-65.57"/>
<polygon fill="none" stroke="#404040" points="450.77,-65.55 443.6,-64.75 441.58,-57.83 448.75,-58.63 450.77,-65.55"/>
<text text-anchor="middle" x="494" y="-79" font-family="Helvetica,sans-Serif" font-size="10.00"> +colors</text>
</g>
<!-- Node9 -->
<g id="node9" class="node">
<title>Node9</title>
<g id="a_node9"><a xlink:href="structImageLib_1_1RGBAPixel.html" target="_top" xlink:title=" ">
<polygon fill="white" stroke="black" points="573,-221.5 573,-322.5 692,-322.5 692,-221.5 573,-221.5"/>
<text text-anchor="start" x="581" y="-310.5" font-family="Helvetica,sans-Serif" font-size="10.00">ImageLib::RGBAPixel</text>
<text text-anchor="middle" x="632.5" y="-299.5" font-family="Helvetica,sans-Serif" font-size="10.00">&lt; uint8_t &gt;</text>
<polyline fill="none" stroke="black" points="573,-292.5 692,-292.5 "/>
<text text-anchor="start" x="581" y="-280.5" font-family="Helvetica,sans-Serif" font-size="10.00">+ alpha</text>
<polyline fill="none" stroke="black" points="573,-273.5 692,-273.5 "/>
<text text-anchor="start" x="581" y="-261.5" font-family="Helvetica,sans-Serif" font-size="10.00">+ RGBAPixel()</text>
<text text-anchor="start" x="581" y="-250.5" font-family="Helvetica,sans-Serif" font-size="10.00">+ operator==()</text>
<text text-anchor="start" x="581" y="-239.5" font-family="Helvetica,sans-Serif" font-size="10.00">+ operator!=()</text>
<text text-anchor="start" x="581" y="-228.5" font-family="Helvetica,sans-Serif" font-size="10.00">+ setGray()</text>
</a>
</g>
</g>
<!-- Node9&#45;&gt;Node8 -->
<g id="edge8" class="edge">
<title>Node9&#45;&gt;Node8</title>
<path fill="none" stroke="#404040" d="M596.31,-221.29C587.22,-208.8 577.54,-195.5 568.71,-183.37"/>
<polygon fill="none" stroke="#404040" points="568.59,-183.21 561.82,-180.71 561.53,-173.51 568.29,-176 568.59,-183.21"/>
<text text-anchor="middle" x="610.5" y="-195" font-family="Helvetica,sans-Serif" font-size="10.00"> +elements</text>
</g>
<!-- Node10 -->
<g id="node10" class="node">
<title>Node10</title>
<g id="a_node10"><a xlink:href="structImageLib_1_1RGBPixel.html" target="_top" xlink:title=" ">
<polygon fill="white" stroke="black" points="576.5,-370.5 576.5,-504.5 688.5,-504.5 688.5,-370.5 576.5,-370.5"/>
<text text-anchor="start" x="584.5" y="-492.5" font-family="Helvetica,sans-Serif" font-size="10.00">ImageLib::RGBPixel</text>
<text text-anchor="middle" x="632.5" y="-481.5" font-family="Helvetica,sans-Serif" font-size="10.00">&lt; uint8_t &gt;</text>
<polyline fill="none" stroke="black" points="576.5,-474.5 688.5,-474.5 "/>
<text text-anchor="start" x="584.5" y="-462.5" font-family="Helvetica,sans-Serif" font-size="10.00">+ red</text>
<text text-anchor="start" x="584.5" y="-451.5" font-family="Helvetica,sans-Serif" font-size="10.00">+ green</text>
<text text-anchor="start" x="584.5" y="-440.5" font-family="Helvetica,sans-Serif" font-size="10.00">+ blue</text>
<polyline fill="none" stroke="black" points="576.5,-433.5 688.5,-433.5 "/>
<text text-anchor="start" x="584.5" y="-421.5" font-family="Helvetica,sans-Serif" font-size="10.00">+ RGBPixel()</text>
<text text-anchor="start" x="584.5" y="-410.5" font-family="Helvetica,sans-Serif" font-size="10.00">+ operator==()</text>
<text text-anchor="start" x="584.5" y="-399.5" font-family="Helvetica,sans-Serif" font-size="10.00">+ operator!=()</text>
<text text-anchor="start" x="584.5" y="-388.5" font-family="Helvetica,sans-Serif" font-size="10.00">+ setGray()</text>
<text text-anchor="start" x="584.5" y="-377.5" font-family="Helvetica,sans-Serif" font-size="10.00">+ colorDistance()</text>
</a>
</g>
</g>
<!-- Node10&#45;&gt;Node9 -->
<g id="edge9" class="edge">
<title>Node10&#45;&gt;Node9</title>
<path fill="none" stroke="midnightblue" d="M632.5,-360.29C632.5,-347.51 632.5,-334.56 632.5,-322.68"/>
<polygon fill="none" stroke="midnightblue" points="629,-360.47 632.5,-370.47 636,-360.47 629,-360.47"/>
</g>
<!-- Node11 -->
<g id="node11" class="node">
<title>Node11</title>
<g id="a_node11"><a xlink:href="structImageLib_1_1Pixel.html" target="_top" xlink:title=" ">
<polygon fill="white" stroke="black" points="553.5,-542.5 553.5,-599.5 711.5,-599.5 711.5,-542.5 553.5,-542.5"/>
<text text-anchor="middle" x="632.5" y="-587.5" font-family="Helvetica,sans-Serif" font-size="10.00">ImageLib::Pixel&lt; NumberT &gt;</text>
<polyline fill="none" stroke="black" points="553.5,-580.5 711.5,-580.5 "/>
<text text-anchor="middle" x="632.5" y="-568.5" font-family="Helvetica,sans-Serif" font-size="10.00"> </text>
<polyline fill="none" stroke="black" points="553.5,-561.5 711.5,-561.5 "/>
<text text-anchor="start" x="561.5" y="-549.5" font-family="Helvetica,sans-Serif" font-size="10.00">+ ~Pixel()</text>
</a>
</g>
</g>
<!-- Node11&#45;&gt;Node10 -->
<g id="edge10" class="edge">
<title>Node11&#45;&gt;Node10</title>
<path fill="none" stroke="midnightblue" d="M632.5,-532.33C632.5,-523.68 632.5,-514.23 632.5,-504.77"/>
<polygon fill="none" stroke="midnightblue" points="629,-532.43 632.5,-542.43 636,-532.43 629,-532.43"/>
</g>
</g>
</svg>
        <g id="navigator" transform="translate(0 0)" fill="#404254">
                <rect fill="#f2f5e9" fill-opacity="0.5" stroke="#606060" stroke-width=".5" x="0" y="0" width="60" height="60"/>
                <use id="zoomplus" xlink:href="#zoomPlus" x="17" y="9" onmousedown="handleZoom(evt,'in')"/>
                <use id="zoomminus" xlink:href="#zoomMin" x="42" y="9" onmousedown="handleZoom(evt,'out')"/>
                <use id="reset" xlink:href="#resetDef" x="30" y="36" onmousedown="handleReset()"/>
                <g id="arrowUp" xlink:href="#dirArrow" transform="translate(30 24)" onmousedown="handlePan(0,-1)">
                  <use xlink:href="#rim" fill="#404040">
                        <set attributeName="fill" to="#808080" begin="arrowUp.mouseover" end="arrowUp.mouseout"/>
                  </use>
                  <path fill="none" stroke="white" stroke-width="1.5" d="M0,-3.0v7 M-2.5,-0.5L0,-3.0L2.5,-0.5"/>
                </g>
                <g id="arrowRight" xlink:href="#dirArrow" transform="rotate(90) translate(36 -43)" onmousedown="handlePan(1,0)">
                  <use xlink:href="#rim" fill="#404040">
                        <set attributeName="fill" to="#808080" begin="arrowRight.mouseover" end="arrowRight.mouseout"/>
                  </use>
                  <path fill="none" stroke="white" stroke-width="1.5" d="M0,-3.0v7 M-2.5,-0.5L0,-3.0L2.5,-0.5"/>
                </g>
                <g id="arrowDown" xlink:href="#dirArrow" transform="rotate(180) translate(-30 -48)" onmousedown="handlePan(0,1)">
                  <use xlink:href="#rim" fill="#404040">
                        <set attributeName="fill" to="#808080" begin="arrowDown.mouseover" end="arrowDown.mouseout"/>
                  </use>
                  <path fill="none" stroke="white" stroke-width="1.5" d="M0,-3.0v7 M-2.5,-0.5L0,-3.0L2.5,-0.5"/>
                </g>
                <g id="arrowLeft" xlink:href="#dirArrow" transform="rotate(270) translate(-36 17)" onmousedown="handlePan(-1,0)">
                  <use xlink:href="#rim" fill="#404040">
                        <set attributeName="fill" to="#808080" begin="arrowLeft.mouseover" end="arrowLeft.mouseout"/>
                  </use>
                  <path fill="none" stroke="white" stroke-width="1.5" d="M0,-3.0v7 M-2.5,-0.5L0,-3.0L2.5,-0.5"/>
                </g>
        </g>
        <svg viewBox="0 0 15 15" width="100%" height="30px" preserveAspectRatio="xMaxYMin meet">
         <g id="arrow_out" transform="scale(0.3 0.3)">
          <a xlink:href="structColoredContours__coll__graph_org.svg" target="_base">
           <rect id="button" ry="5" rx="5" y="6" x="6" height="38" width="38"
                fill="#f2f5e9" fill-opacity="0.5" stroke="#606060" stroke-width="1.0"/>
           <path id="arrow"
             d="M 11.500037,31.436501 C 11.940474,20.09759 22.043105,11.32322 32.158766,21.979434 L 37.068811,17.246167 C 37.068811,17.246167 37.088388,32 37.088388,32 L 22.160133,31.978069 C 22.160133,31.978069 26.997745,27.140456 26.997745,27.140456 C 18.528582,18.264221 13.291696,25.230495 11.500037,31.436501 z"
             style="fill:#404040;"/>
          </a>
         </g>
        </svg>
</svg>
