<?xml version="1.0" encoding="UTF-8" standalone="no"?>
<!DOCTYPE svg PUBLIC "-//W3C//DTD SVG 1.1//EN"
 "http://www.w3.org/Graphics/SVG/1.1/DTD/svg11.dtd">
<!-- Generated by graphviz version 2.43.0 (0)
 -->
<!-- Title: ImageLib::Pixel&lt; NumberT &gt; Pages: 1 -->
<svg width="399pt" height="375pt"
 viewBox="0.00 0.00 399.00 375.00" xmlns="http://www.w3.org/2000/svg" xmlns:xlink="http://www.w3.org/1999/xlink">
<g id="graph0" class="graph" transform="scale(1 1) rotate(0) translate(4 371)">
<title>ImageLib::Pixel&lt; NumberT &gt;</title>
<polygon fill="white" stroke="transparent" points="-4,4 -4,-371 395,-371 395,4 -4,4"/>
<!-- Node1 -->
<g id="node1" class="node">
<title>Node1</title>
<g id="a_node1"><a xlink:title=" ">
<polygon fill="#bfbfbf" stroke="black" points="116.5,-309.5 116.5,-366.5 274.5,-366.5 274.5,-309.5 116.5,-309.5"/>
<text text-anchor="middle" x="195.5" y="-354.5" font-family="Helvetica,sans-Serif" font-size="10.00">ImageLib::Pixel&lt; NumberT &gt;</text>
<polyline fill="none" stroke="black" points="116.5,-347.5 274.5,-347.5 "/>
<text text-anchor="middle" x="195.5" y="-335.5" font-family="Helvetica,sans-Serif" font-size="10.00"> </text>
<polyline fill="none" stroke="black" points="116.5,-328.5 274.5,-328.5 "/>
<text text-anchor="start" x="124.5" y="-316.5" font-family="Helvetica,sans-Serif" font-size="10.00">+ ~Pixel()</text>
</a>
</g>
</g>
<!-- Node2 -->
<g id="node2" class="node">
<title>Node2</title>
<g id="a_node2"><a xlink:href="structImageLib_1_1RGBPixel.html" target="_top" xlink:title=" ">
<polygon fill="white" stroke="black" points="6.5,-138.5 6.5,-272.5 118.5,-272.5 118.5,-138.5 6.5,-138.5"/>
<text text-anchor="start" x="14.5" y="-260.5" font-family="Helvetica,sans-Serif" font-size="10.00">ImageLib::RGBPixel</text>
<text text-anchor="middle" x="62.5" y="-249.5" font-family="Helvetica,sans-Serif" font-size="10.00">&lt; uint8_t &gt;</text>
<polyline fill="none" stroke="black" points="6.5,-242.5 118.5,-242.5 "/>
<text text-anchor="start" x="14.5" y="-230.5" font-family="Helvetica,sans-Serif" font-size="10.00">+ red</text>
<text text-anchor="start" x="14.5" y="-219.5" font-family="Helvetica,sans-Serif" font-size="10.00">+ green</text>
<text text-anchor="start" x="14.5" y="-208.5" font-family="Helvetica,sans-Serif" font-size="10.00">+ blue</text>
<polyline fill="none" stroke="black" points="6.5,-201.5 118.5,-201.5 "/>
<text text-anchor="start" x="14.5" y="-189.5" font-family="Helvetica,sans-Serif" font-size="10.00">+ RGBPixel()</text>
<text text-anchor="start" x="14.5" y="-178.5" font-family="Helvetica,sans-Serif" font-size="10.00">+ operator==()</text>
<text text-anchor="start" x="14.5" y="-167.5" font-family="Helvetica,sans-Serif" font-size="10.00">+ operator!=()</text>
<text text-anchor="start" x="14.5" y="-156.5" font-family="Helvetica,sans-Serif" font-size="10.00">+ setGray()</text>
<text text-anchor="start" x="14.5" y="-145.5" font-family="Helvetica,sans-Serif" font-size="10.00">+ colorDistance()</text>
</a>
</g>
</g>
<!-- Node1&#45;&gt;Node2 -->
<g id="edge1" class="edge">
<title>Node1&#45;&gt;Node2</title>
<path fill="none" stroke="midnightblue" d="M160.05,-302.21C147.33,-289.73 132.65,-275.33 118.6,-261.55"/>
<polygon fill="none" stroke="midnightblue" points="157.7,-304.82 167.29,-309.32 162.61,-299.82 157.7,-304.82"/>
</g>
<!-- Node4 -->
<g id="node4" class="node">
<title>Node4</title>
<g id="a_node4"><a xlink:href="structImageLib_1_1LABPixel.html" target="_top" xlink:title=" ">
<polygon fill="white" stroke="black" points="140.5,-138.5 140.5,-272.5 250.5,-272.5 250.5,-138.5 140.5,-138.5"/>
<text text-anchor="start" x="148.5" y="-260.5" font-family="Helvetica,sans-Serif" font-size="10.00">ImageLib::LABPixel</text>
<text text-anchor="middle" x="195.5" y="-249.5" font-family="Helvetica,sans-Serif" font-size="10.00">&lt; NumberT &gt;</text>
<polyline fill="none" stroke="black" points="140.5,-242.5 250.5,-242.5 "/>
<text text-anchor="start" x="148.5" y="-230.5" font-family="Helvetica,sans-Serif" font-size="10.00">+ l</text>
<text text-anchor="start" x="148.5" y="-219.5" font-family="Helvetica,sans-Serif" font-size="10.00">+ a</text>
<text text-anchor="start" x="148.5" y="-208.5" font-family="Helvetica,sans-Serif" font-size="10.00">+ b</text>
<polyline fill="none" stroke="black" points="140.5,-201.5 250.5,-201.5 "/>
<text text-anchor="start" x="148.5" y="-189.5" font-family="Helvetica,sans-Serif" font-size="10.00">+ LABPixel()</text>
<text text-anchor="start" x="148.5" y="-178.5" font-family="Helvetica,sans-Serif" font-size="10.00">+ operator==()</text>
<text text-anchor="start" x="148.5" y="-167.5" font-family="Helvetica,sans-Serif" font-size="10.00">+ operator!=()</text>
<text text-anchor="start" x="148.5" y="-156.5" font-family="Helvetica,sans-Serif" font-size="10.00">+ setGray()</text>
<text text-anchor="start" x="148.5" y="-145.5" font-family="Helvetica,sans-Serif" font-size="10.00">+ colorDistance()</text>
</a>
</g>
</g>
<!-- Node1&#45;&gt;Node4 -->
<g id="edge3" class="edge">
<title>Node1&#45;&gt;Node4</title>
<path fill="none" stroke="midnightblue" d="M195.5,-299.16C195.5,-290.78 195.5,-281.67 195.5,-272.53"/>
<polygon fill="none" stroke="midnightblue" points="192,-299.32 195.5,-309.32 199,-299.32 192,-299.32"/>
</g>
<!-- Node6 -->
<g id="node6" class="node">
<title>Node6</title>
<g id="a_node6"><a xlink:href="structImageLib_1_1RGBPixel.html" target="_top" xlink:title=" ">
<polygon fill="white" stroke="black" points="271.5,-138.5 271.5,-272.5 383.5,-272.5 383.5,-138.5 271.5,-138.5"/>
<text text-anchor="start" x="279.5" y="-260.5" font-family="Helvetica,sans-Serif" font-size="10.00">ImageLib::RGBPixel</text>
<text text-anchor="middle" x="327.5" y="-249.5" font-family="Helvetica,sans-Serif" font-size="10.00">&lt; NumberT &gt;</text>
<polyline fill="none" stroke="black" points="271.5,-242.5 383.5,-242.5 "/>
<text text-anchor="start" x="279.5" y="-230.5" font-family="Helvetica,sans-Serif" font-size="10.00">+ red</text>
<text text-anchor="start" x="279.5" y="-219.5" font-family="Helvetica,sans-Serif" font-size="10.00">+ green</text>
<text text-anchor="start" x="279.5" y="-208.5" font-family="Helvetica,sans-Serif" font-size="10.00">+ blue</text>
<polyline fill="none" stroke="black" points="271.5,-201.5 383.5,-201.5 "/>
<text text-anchor="start" x="279.5" y="-189.5" font-family="Helvetica,sans-Serif" font-size="10.00">+ RGBPixel()</text>
<text text-anchor="start" x="279.5" y="-178.5" font-family="Helvetica,sans-Serif" font-size="10.00">+ operator==()</text>
<text text-anchor="start" x="279.5" y="-167.5" font-family="Helvetica,sans-Serif" font-size="10.00">+ operator!=()</text>
<text text-anchor="start" x="279.5" y="-156.5" font-family="Helvetica,sans-Serif" font-size="10.00">+ setGray()</text>
<text text-anchor="start" x="279.5" y="-145.5" font-family="Helvetica,sans-Serif" font-size="10.00">+ colorDistance()</text>
</a>
</g>
</g>
<!-- Node1&#45;&gt;Node6 -->
<g id="edge5" class="edge">
<title>Node1&#45;&gt;Node6</title>
<path fill="none" stroke="midnightblue" d="M230.96,-301.95C243.36,-289.69 257.61,-275.6 271.28,-262.08"/>
<polygon fill="none" stroke="midnightblue" points="228.14,-299.8 223.49,-309.32 233.07,-304.78 228.14,-299.8"/>
</g>
<!-- Node3 -->
<g id="node3" class="node">
<title>Node3</title>
<g id="a_node3"><a xlink:href="structImageLib_1_1RGBAPixel.html" target="_top" xlink:title=" ">
<polygon fill="white" stroke="black" points="0,-0.5 0,-101.5 119,-101.5 119,-0.5 0,-0.5"/>
<text text-anchor="start" x="8" y="-89.5" font-family="Helvetica,sans-Serif" font-size="10.00">ImageLib::RGBAPixel</text>
<text text-anchor="middle" x="59.5" y="-78.5" font-family="Helvetica,sans-Serif" font-size="10.00">&lt; uint8_t &gt;</text>
<polyline fill="none" stroke="black" points="0,-71.5 119,-71.5 "/>
<text text-anchor="start" x="8" y="-59.5" font-family="Helvetica,sans-Serif" font-size="10.00">+ alpha</text>
<polyline fill="none" stroke="black" points="0,-52.5 119,-52.5 "/>
<text text-anchor="start" x="8" y="-40.5" font-family="Helvetica,sans-Serif" font-size="10.00">+ RGBAPixel()</text>
<text text-anchor="start" x="8" y="-29.5" font-family="Helvetica,sans-Serif" font-size="10.00">+ operator==()</text>
<text text-anchor="start" x="8" y="-18.5" font-family="Helvetica,sans-Serif" font-size="10.00">+ operator!=()</text>
<text text-anchor="start" x="8" y="-7.5" font-family="Helvetica,sans-Serif" font-size="10.00">+ setGray()</text>
</a>
</g>
</g>
<!-- Node2&#45;&gt;Node3 -->
<g id="edge2" class="edge">
<title>Node2&#45;&gt;Node3</title>
<path fill="none" stroke="midnightblue" d="M61,-128.27C60.82,-119.19 60.64,-110.11 60.47,-101.55"/>
<polygon fill="none" stroke="midnightblue" points="57.51,-128.57 61.2,-138.5 64.5,-128.43 57.51,-128.57"/>
</g>
<!-- Node5 -->
<g id="node5" class="node">
<title>Node5</title>
<g id="a_node5"><a xlink:href="structImageLib_1_1LABAPixel.html" target="_top" xlink:title=" ">
<polygon fill="white" stroke="black" points="137,-0.5 137,-101.5 254,-101.5 254,-0.5 137,-0.5"/>
<text text-anchor="start" x="145" y="-89.5" font-family="Helvetica,sans-Serif" font-size="10.00">ImageLib::LABAPixel</text>
<text text-anchor="middle" x="195.5" y="-78.5" font-family="Helvetica,sans-Serif" font-size="10.00">&lt; NumberT &gt;</text>
<polyline fill="none" stroke="black" points="137,-71.5 254,-71.5 "/>
<text text-anchor="start" x="145" y="-59.5" font-family="Helvetica,sans-Serif" font-size="10.00">+ alpha</text>
<polyline fill="none" stroke="black" points="137,-52.5 254,-52.5 "/>
<text text-anchor="start" x="145" y="-40.5" font-family="Helvetica,sans-Serif" font-size="10.00">+ LABAPixel()</text>
<text text-anchor="start" x="145" y="-29.5" font-family="Helvetica,sans-Serif" font-size="10.00">+ operator==()</text>
<text text-anchor="start" x="145" y="-18.5" font-family="Helvetica,sans-Serif" font-size="10.00">+ operator!=()</text>
<text text-anchor="start" x="145" y="-7.5" font-family="Helvetica,sans-Serif" font-size="10.00">+ setGray()</text>
</a>
</g>
</g>
<!-- Node4&#45;&gt;Node5 -->
<g id="edge4" class="edge">
<title>Node4&#45;&gt;Node5</title>
<path fill="none" stroke="midnightblue" d="M195.5,-128.27C195.5,-119.19 195.5,-110.11 195.5,-101.55"/>
<polygon fill="none" stroke="midnightblue" points="192,-128.5 195.5,-138.5 199,-128.5 192,-128.5"/>
</g>
<!-- Node7 -->
<g id="node7" class="node">
<title>Node7</title>
<g id="a_node7"><a xlink:href="structImageLib_1_1RGBAPixel.html" target="_top" xlink:title=" ">
<polygon fill="white" stroke="black" points="272,-0.5 272,-101.5 391,-101.5 391,-0.5 272,-0.5"/>
<text text-anchor="start" x="280" y="-89.5" font-family="Helvetica,sans-Serif" font-size="10.00">ImageLib::RGBAPixel</text>
<text text-anchor="middle" x="331.5" y="-78.5" font-family="Helvetica,sans-Serif" font-size="10.00">&lt; NumberT &gt;</text>
<polyline fill="none" stroke="black" points="272,-71.5 391,-71.5 "/>
<text text-anchor="start" x="280" y="-59.5" font-family="Helvetica,sans-Serif" font-size="10.00">+ alpha</text>
<polyline fill="none" stroke="black" points="272,-52.5 391,-52.5 "/>
<text text-anchor="start" x="280" y="-40.5" font-family="Helvetica,sans-Serif" font-size="10.00">+ RGBAPixel()</text>
<text text-anchor="start" x="280" y="-29.5" font-family="Helvetica,sans-Serif" font-size="10.00">+ operator==()</text>
<text text-anchor="start" x="280" y="-18.5" font-family="Helvetica,sans-Serif" font-size="10.00">+ operator!=()</text>
<text text-anchor="start" x="280" y="-7.5" font-family="Helvetica,sans-Serif" font-size="10.00">+ setGray()</text>
</a>
</g>
</g>
<!-- Node6&#45;&gt;Node7 -->
<g id="edge6" class="edge">
<title>Node6&#45;&gt;Node7</title>
<path fill="none" stroke="midnightblue" d="M329.5,-128.27C329.74,-119.19 329.98,-110.11 330.2,-101.55"/>
<polygon fill="none" stroke="midnightblue" points="325.99,-128.41 329.23,-138.5 332.99,-128.59 325.99,-128.41"/>
</g>
</g>
</svg>
