<svg width="1280" height="720" xmlns="http://www.w3.org/2000/svg" xmlns:xlink="http://www.w3.org/1999/xlink" overflow="hidden"><g><rect x="0" y="0" width="1280" height="720" fill="#FFFFFF"/><rect x="366" y="1" width="450" height="212" stroke="#042433" stroke-width="2" stroke-miterlimit="8" fill="none"/><path d="M367 94C405.791 79.6742 444.581 65.3485 453.379 49.8485 462.177 34.3485 432.904 8.20202 419.787 1" stroke="#042433" stroke-width="2" stroke-miterlimit="8" fill="none" fill-rule="evenodd"/><path d="M455 45.3653C477.724 68.1702 500.448 90.9752 523.615 83.5809 546.781 76.1867 570.391 38.5934 594 1" stroke="#042433" stroke-width="2" stroke-miterlimit="8" fill="none" fill-rule="evenodd"/><path d="M424 71C460.02 85.5381 496.039 100.076 508.5 123.743 520.962 147.41 509.865 180.205 498.767 213" stroke="#042433" stroke-width="2" stroke-miterlimit="8" fill="none" fill-rule="evenodd"/><path d="M515 147C579.07 145.458 643.14 143.916 666.579 119.416 690.018 94.9165 672.826 47.4582 655.633 0" stroke="#042433" stroke-width="2" stroke-miterlimit="8" fill="none" fill-rule="evenodd"/><path d="M675 105.799C706.268 122.062 737.536 138.325 761.202 129.525 784.869 120.726 800.934 86.8627 817 53" stroke="#042433" stroke-width="2" stroke-miterlimit="8" fill="none" fill-rule="evenodd"/><path d="M631 138C658.173 146.446 685.346 154.892 716.18 157.257 747.013 159.622 781.507 155.906 816 152.19" stroke="#042433" stroke-width="2" stroke-miterlimit="8" fill="none" fill-rule="evenodd"/><path d="M668 149C631.081 162.318 594.162 175.637 581.054 186.137 567.946 196.637 578.648 204.318 589.35 212" stroke="#042433" stroke-width="2" stroke-miterlimit="8" fill="none" fill-rule="evenodd"/><text font-family="Aptos,Aptos_MSFontService,sans-serif" font-weight="400" font-size="24" transform="translate(394.917 50)">0</text><text font-family="Aptos,Aptos_MSFontService,sans-serif" font-weight="400" font-size="24" transform="translate(498.44 36)">1</text><text font-family="Aptos,Aptos_MSFontService,sans-serif" font-weight="400" font-size="24" transform="translate(410.424 146)">2</text><text font-family="Aptos,Aptos_MSFontService,sans-serif" font-weight="400" font-size="24" transform="translate(567.805 107)">3</text><text font-family="Aptos,Aptos_MSFontService,sans-serif" font-weight="400" font-size="24" transform="translate(723.051 60)">4</text><text font-family="Aptos,Aptos_MSFontService,sans-serif" font-weight="400" font-size="24" transform="translate(538.113 186)">5</text><text font-family="Aptos,Aptos_MSFontService,sans-serif" font-weight="400" font-size="24" transform="translate(681.517 144)">6</text><text font-family="Aptos,Aptos_MSFontService,sans-serif" font-weight="400" font-size="24" transform="translate(681.517 198)">7</text><rect x="208" y="367" width="50" height="51" stroke="#042433" stroke-width="2" stroke-miterlimit="8" fill="#156082"/><rect x="284" y="367" width="50" height="51" stroke="#042433" stroke-width="2" stroke-miterlimit="8" fill="#156082"/><rect x="360" y="367" width="51" height="51" stroke="#042433" stroke-width="2" stroke-miterlimit="8" fill="#156082"/><rect x="438" y="367" width="51" height="51" stroke="#042433" stroke-width="2" stroke-miterlimit="8" fill="#156082"/><rect x="515" y="367" width="51" height="51" stroke="#042433" stroke-width="2" stroke-miterlimit="8" fill="#156082"/><rect x="591" y="367" width="51" height="51" stroke="#042433" stroke-width="2" stroke-miterlimit="8" fill="#156082"/><rect x="668" y="367" width="51" height="51" stroke="#042433" stroke-width="2" stroke-miterlimit="8" fill="#156082"/><rect x="746" y="367" width="50" height="51" stroke="#042433" stroke-width="2" stroke-miterlimit="8" fill="#156082"/><path d="M217 291.5C217 282.94 224.163 276 233 276 241.837 276 249 282.94 249 291.5 249 300.06 241.837 307 233 307 224.163 307 217 300.06 217 291.5Z" stroke="#042433" stroke-width="2" stroke-miterlimit="8" fill="#156082" fill-rule="evenodd"/><path d="M293 291.5C293 282.94 299.94 276 308.5 276 317.06 276 324 282.94 324 291.5 324 300.06 317.06 307 308.5 307 299.94 307 293 300.06 293 291.5Z" stroke="#042433" stroke-width="2" stroke-miterlimit="8" fill="#156082" fill-rule="evenodd"/><path d="M369 291.5C369 282.94 375.94 276 384.5 276 393.06 276 400 282.94 400 291.5 400 300.06 393.06 307 384.5 307 375.94 307 369 300.06 369 291.5Z" stroke="#042433" stroke-width="2" stroke-miterlimit="8" fill="#156082" fill-rule="evenodd"/><path d="M448 293.5C448 284.94 454.94 278 463.5 278 472.06 278 479 284.94 479 293.5 479 302.06 472.06 309 463.5 309 454.94 309 448 302.06 448 293.5Z" stroke="#042433" stroke-width="2" stroke-miterlimit="8" fill="#156082" fill-rule="evenodd"/><path d="M526 291.5C526 282.94 532.94 276 541.5 276 550.06 276 557 282.94 557 291.5 557 300.06 550.06 307 541.5 307 532.94 307 526 300.06 526 291.5Z" stroke="#042433" stroke-width="2" stroke-miterlimit="8" fill="#156082" fill-rule="evenodd"/><path d="M602 291.5C602 282.94 608.94 276 617.5 276 626.06 276 633 282.94 633 291.5 633 300.06 626.06 307 617.5 307 608.94 307 602 300.06 602 291.5Z" stroke="#042433" stroke-width="2" stroke-miterlimit="8" fill="#156082" fill-rule="evenodd"/><path d="M678 291.5C678 282.94 684.94 276 693.5 276 702.06 276 709 282.94 709 291.5 709 300.06 702.06 307 693.5 307 684.94 307 678 300.06 678 291.5Z" stroke="#042433" stroke-width="2" stroke-miterlimit="8" fill="#156082" fill-rule="evenodd"/><path d="M757 293.5C757 284.94 763.94 278 772.5 278 781.06 278 788 284.94 788 293.5 788 302.06 781.06 309 772.5 309 763.94 309 757 302.06 757 293.5Z" stroke="#042433" stroke-width="2" stroke-miterlimit="8" fill="#156082" fill-rule="evenodd"/><path d="M0.0474082-0.998876 7.22843-0.658053 14.4387 0.356147 21.615 2.0187 28.7428 4.30677 35.8079 7.19759 42.7965 10.6686 49.695 14.6974 56.49 19.2618 63.1682 24.34 69.7161 29.9101 76.1205 35.9505 82.3679 42.4397 88.4447 49.3562 94.3375 56.6786 100.033 64.3856 105.522 72.4635 115.796 89.6002 125.066 107.943 133.215 127.312 140.133 147.538 145.706 168.443 147.957 179.112 149.829 189.88 151.309 200.735 152.384 211.656 153.039 222.62 153.125 226.921 151.126 226.961 151.04 222.68 151.041 222.72 150.388 211.794 150.391 211.832 149.32 200.95 149.325 200.987 147.849 190.169 147.855 190.205 145.989 179.472 145.996 179.507 143.754 168.881 143.766 168.932 138.209 148.087 138.229 148.153 131.333 127.992 131.358 128.056 123.236 108.75 123.265 108.813 114.027 90.5344 114.062 90.5976 103.821 73.5163 103.852 73.5641 98.3896 65.526 98.4125 65.5583 92.7413 57.8838 92.7665 57.9165 86.9002 50.627 86.928 50.66 80.8804 43.7769 80.9113 43.8104 74.6964 37.355 74.7307 37.3889 68.3625 31.3826 68.4007 31.4169 61.8931 25.8811 61.9358 25.9154 55.3027 20.8716 55.3504 20.9057 48.6059 16.3751 48.6592 16.4085 41.817 12.4127 41.8765 12.4448 34.9508 9.00498 35.0169 9.03488 28.0214 6.17254 28.0945 6.19917 21.0432 3.93568 21.1232 3.95773 14.0301 2.31447 14.1165 2.33052 6.99559 1.32888 7.08747 1.33751-0.0474082 0.998876ZM156.098 225.528 152.26 233.607 148.1 225.689Z" fill="#156082" transform="matrix(-1 1.22465e-16 1.22465e-16 1 385.26 43)"/><path d="M704.079 189.003 710.517 189.512 716.97 191.009 723.305 193.418 729.472 196.669 735.425 200.695 741.115 205.429 746.496 210.806 751.519 216.762 756.137 223.233 760.301 230.154 763.961 237.463 767.069 245.096 769.574 252.99 771.427 261.082 772.576 269.308 772.651 270.897 770.653 270.992 770.58 269.449 770.589 269.539 769.452 261.402 769.467 261.486 767.634 253.477 767.656 253.556 765.175 245.739 765.202 245.814 762.123 238.253 762.156 238.324 758.53 231.084 758.567 231.152 754.443 224.297 754.486 224.363 749.915 217.957 749.964 218.021 744.994 212.128 745.052 212.191 739.734 206.876 739.801 206.938 734.184 202.265 734.263 202.324 728.397 198.357 728.491 198.413 722.426 195.216 722.537 195.266 716.322 192.902 716.452 192.942 710.138 191.477 710.285 191.499 703.921 190.997ZM775.584 269.422 771.969 277.603 767.594 269.802Z" fill="#156082"/><text font-family="Aptos,Aptos_MSFontService,sans-serif" font-weight="400" font-size="24" transform="translate(840.635 302)">Node</text><text font-family="Aptos,Aptos_MSFontService,sans-serif" font-weight="400" font-size="24" transform="translate(840.635 377)">s</text><text font-family="Aptos,Aptos_MSFontService,sans-serif" font-weight="400" font-size="24" transform="translate(852.162 377)">td::vector&lt;</text><text font-family="Aptos,Aptos_MSFontService,sans-serif" font-weight="400" font-size="24" transform="translate(964.688 377)">Node_ptr</text><text font-family="Aptos,Aptos_MSFontService,sans-serif" font-weight="400" font-size="24" transform="translate(1061.35 377)">&gt;</text><text font-family="Aptos,Aptos_MSFontService,sans-serif" font-weight="400" font-size="24" transform="translate(840.635 406)">Node_ptr</text><text font-family="Aptos,Aptos_MSFontService,sans-serif" font-weight="400" font-size="24" transform="translate(942.135 406)">= std::</text><text font-family="Aptos,Aptos_MSFontService,sans-serif" font-weight="400" font-size="24" transform="translate(1006.21 406)">shared_ptr</text><text font-family="Aptos,Aptos_MSFontService,sans-serif" font-weight="400" font-size="24" transform="translate(1118.05 406)">&lt;Node&gt;</text><rect x="185" y="349" width="632" height="88" stroke="#042433" stroke-width="2" stroke-miterlimit="8" stroke-dasharray="8 6" fill="none"/><path d="M453 574C453 541.415 479.415 515 512 515 544.585 515 571 541.415 571 574 571 606.585 544.585 633 512 633 479.415 633 453 606.585 453 574Z" stroke="#042433" stroke-width="2" stroke-miterlimit="8" fill="#156082" fill-rule="evenodd"/><text fill="#FFFFFF" font-family="Aptos,Aptos_MSFontService,sans-serif" font-weight="400" font-size="24" transform="translate(480.081 582)">Graph</text><path d="M831 442C831 460.778 828.463 476 825.334 476L517.666 476C514.537 476 512 491.223 512 510.001 512 491.223 509.463 476 506.334 476L198.666 476C195.537 476 193 460.778 193 442" stroke="#156082" stroke-width="2" stroke-miterlimit="8" fill="none" fill-rule="evenodd"/><text font-family="Aptos,Aptos_MSFontService,sans-serif" font-weight="400" font-size="24" transform="translate(595.718 566)">Graph ownership via</text><text font-family="Aptos,Aptos_MSFontService,sans-serif" font-weight="400" font-size="24" transform="translate(595.718 595)">std::</text><text font-family="Aptos,Aptos_MSFontService,sans-serif" font-weight="400" font-size="24" transform="translate(642.125 595)">unique_ptr</text><text font-family="Aptos,Aptos_MSFontService,sans-serif" font-weight="400" font-size="24" transform="translate(754.125 595)">&lt;</text><text font-family="Aptos,Aptos_MSFontService,sans-serif" font-weight="400" font-size="24" transform="translate(766.958 595)">std::vector&lt;</text><text font-family="Aptos,Aptos_MSFontService,sans-serif" font-weight="400" font-size="24" transform="translate(891.011 595)">Node_ptr</text><text font-family="Aptos,Aptos_MSFontService,sans-serif" font-weight="400" font-size="24" transform="translate(987.678 595)">&gt;&gt;</text></g></svg>