<svg xmlns="http://www.w3.org/2000/svg" viewBox="0 0 750 450"><style>.text{fill:#fff;font-family:sans-serif}.node-buf,.node-tex{fill:#2d2d2d;stroke-width:2}.node-tex{stroke:#4caf50}.node-buf{stroke:#ff9800}.arrow,.node-shader{stroke-width:2}.node-shader{fill:#1a237e;stroke:#4fc3f7}.arrow{stroke:#fff;marker-end:url(#arrow);fill:none}</style><defs><marker id="arrow" viewBox="0 0 10 10" refX="9" refY="5" markerWidth="6" markerHeight="6" orient="auto-start-reverse"><path d="m0 0 10 5-10 5z" fill="#fff"/></marker></defs><rect width="100%" height="100%" style="fill:#1e1e1e"/><text x="20" y="30" style="fill:#fff;font-family:sans-serif;font-size:18px;font-weight:700">K-Means Iterative Pipeline</text><rect x="230" y="50" width="500" height="360" rx="10" style="fill:none;stroke:#9e9e9e;stroke-width:2;stroke-dasharray:5,5"/><text x="240" y="70" class="text" font-size="14" fill="#9e9e9e">Iterative Loop (max_iter)</text><rect x="30" y="100" width="140" height="50" rx="5" class="node-tex"/><text x="40" y="120" class="text" font-size="14">Input Image</text><text x="40" y="140" class="text" font-size="12">Read-Only</text><rect x="30" y="180" width="140" height="50" rx="5" class="node-buf"/><text x="40" y="200" class="text" font-size="14">Params</text><text x="40" y="220" class="text" font-size="12">numPoints, K</text><rect x="260" y="110" width="180" height="70" rx="10" class="node-shader"/><text x="275" y="140" class="text" font-size="14">Pass 1: Assign/Update</text><text x="275" y="160" class="text" font-size="12">assign_update_shader</text><rect x="490" y="90" width="140" height="50" rx="5" class="node-tex"/><text x="500" y="110" class="text" font-size="14">Clusters (Labels)</text><text x="500" y="130" class="text" font-size="12">rgba32uint (Write)</text><rect x="490" y="170" width="140" height="50" rx="5" class="node-buf"/><text x="500" y="190" class="text" font-size="14">Accumulators</text><text x="500" y="210" class="text" font-size="12">Storage (Atomics)</text><rect x="260" y="280" width="180" height="70" rx="10" class="node-shader"/><text x="280" y="310" class="text" font-size="14">Pass 2: Resolve</text><text x="280" y="330" class="text" font-size="12">resolve_shader</text><rect x="490" y="320" width="140" height="50" rx="5" class="node-tex"/><text x="500" y="340" class="text" font-size="14">Centroids</text><text x="500" y="360" class="text" font-size="12">rgba32float (R/W)</text><path d="M170 125h80" class="arrow"/><path d="M170 205h40v-50h40" class="arrow"/><path d="M440 125h40" class="arrow"/><path d="m440 160 40 25" class="arrow"/><path d="M490 205h-30v90h-20" class="arrow"/><path d="m440 315 40 30" class="arrow"/><path d="M560 370v30H220V170h30" class="arrow"/></svg>