<?xml version="1.0" encoding="UTF-8" standalone="no"?>
<!DOCTYPE svg PUBLIC "-//W3C//DTD SVG 1.1//EN"
 "http://www.w3.org/Graphics/SVG/1.1/DTD/svg11.dtd">
<!-- Generated by graphviz version 2.42.4 (0)
 -->
<!-- Title: img2num::ImageToSvgConfig Pages: 1 -->
<svg width="332pt" height="209pt"
 viewBox="0.00 0.00 332.00 209.00" xmlns="http://www.w3.org/2000/svg" xmlns:xlink="http://www.w3.org/1999/xlink">

<svg id="main" version="1.1" xmlns="http://www.w3.org/2000/svg" xmlns:xlink="http://www.w3.org/1999/xlink" xml:space="preserve" onload="init(evt)">
<style type="text/css"><![CDATA[
.node, .edge {opacity: 0.7;}
.node.selected, .edge.selected {opacity: 1;}
.edge:hover path { stroke: red; }
.edge:hover polygon { stroke: red; fill: red; }
]]></style>
<script type="application/ecmascript" xlink:href="svg.min.js"/>
<svg id="graph" class="graph">
<g id="graph0" class="graph" transform="scale(1 1) rotate(0) translate(4 205)">
<title>img2num::ImageToSvgConfig</title>
<!-- Node1 -->
<g id="Node000001" class="node">
<title>Node1</title>
<g id="a_Node000001"><a xlink:title="Configuration options for image_to_svg.">
<polygon fill="#999999" stroke="transparent" points="238,-79 85,-79 85,0 238,0 238,-79"/>
<text text-anchor="start" x="90.5" y="-66.5" font-family="Helvetica,sans-Serif" font-size="10.00">img2num::ImageToSvgConfig</text>
<text text-anchor="start" x="101" y="-51.5" font-family="Helvetica,sans-Serif" font-size="10.00">+</text>
<text text-anchor="start" x="125.5" y="-51.5" font-family="Helvetica,sans-Serif" font-size="10.00">min_cluster_area</text>
<text text-anchor="start" x="101" y="-36.5" font-family="Helvetica,sans-Serif" font-size="10.00">+</text>
<text text-anchor="start" x="125.5" y="-36.5" font-family="Helvetica,sans-Serif" font-size="10.00">min_thickness</text>
<text text-anchor="start" x="101" y="-21.5" font-family="Helvetica,sans-Serif" font-size="10.00">+</text>
<text text-anchor="start" x="125.5" y="-21.5" font-family="Helvetica,sans-Serif" font-size="10.00">color_space</text>
<text text-anchor="start" x="160" y="-6.5" font-family="Helvetica,sans-Serif" font-size="10.00"> </text>
<polygon fill="#666666" stroke="#666666" points="85.5,-61.5 85.5,-61.5 238.5,-61.5 238.5,-61.5 85.5,-61.5"/>
<polygon fill="#666666" stroke="#666666" points="85.5,-16.5 85.5,-16.5 123.5,-16.5 123.5,-16.5 85.5,-16.5"/>
<polygon fill="#666666" stroke="#666666" points="123.5,-16.5 123.5,-16.5 238.5,-16.5 238.5,-16.5 123.5,-16.5"/>
<polygon fill="none" stroke="#666666" points="85,0 85,-79 238,-79 238,0 85,0"/>
</a>
</g>
</g>
<!-- Node2 -->
<g id="Node000002" class="node">
<title>Node2</title>
<g id="a_Node000002"><a xlink:href="structimg2num_1_1ImageToSvgConfig_1_1BilateralFilterConfig.html" target="_top" xlink:title="Configuration settings for the bilateral filter in image_to_svg.">
<polygon fill="white" stroke="transparent" points="153,-201 0,-201 0,-126 153,-126 153,-201"/>
<text text-anchor="start" x="5.5" y="-188.5" font-family="Helvetica,sans-Serif" font-size="10.00">img2num::ImageToSvgConfig</text>
<text text-anchor="start" x="25.5" y="-177.5" font-family="Helvetica,sans-Serif" font-size="10.00">::BilateralFilterConfig</text>
<text text-anchor="start" x="20" y="-162.5" font-family="Helvetica,sans-Serif" font-size="10.00">+</text>
<text text-anchor="start" x="48.5" y="-162.5" font-family="Helvetica,sans-Serif" font-size="10.00">sigma_spatial</text>
<text text-anchor="start" x="20" y="-147.5" font-family="Helvetica,sans-Serif" font-size="10.00">+</text>
<text text-anchor="start" x="48.5" y="-147.5" font-family="Helvetica,sans-Serif" font-size="10.00">sigma_range</text>
<text text-anchor="start" x="75" y="-132.5" font-family="Helvetica,sans-Serif" font-size="10.00"> </text>
<polygon fill="#666666" stroke="#666666" points="0.5,-172.5 0.5,-172.5 153.5,-172.5 153.5,-172.5 0.5,-172.5"/>
<polygon fill="#666666" stroke="#666666" points="0.5,-142.5 0.5,-142.5 46.5,-142.5 46.5,-142.5 0.5,-142.5"/>
<polygon fill="#666666" stroke="#666666" points="46.5,-142.5 46.5,-142.5 153.5,-142.5 153.5,-142.5 46.5,-142.5"/>
<polygon fill="none" stroke="#666666" points="0,-126 0,-201 153,-201 153,-126 0,-126"/>
</a>
</g>
</g>
<!-- Node2&#45;&gt;Node1 -->
<g id="edge1_Node000001_Node000002" class="edge">
<title>Node2&#45;&gt;Node1</title>
<g id="a_edge1_Node000001_Node000002"><a xlink:title=" ">
<path fill="none" stroke="#63b8ff" d="M102,-125.9C110.03,-114.38 119.02,-101.48 127.53,-89.26"/>
<polygon fill="none" stroke="#63b8ff" points="127.68,-89.04 127.83,-81.83 134.54,-79.2 134.39,-86.41 127.68,-89.04"/>
</a>
</g>
<text text-anchor="middle" x="162.5" y="-100" font-family="Helvetica,sans-Serif" font-size="10.00" fill="grey"> +bilateral_filter</text>
</g>
<!-- Node3 -->
<g id="Node000003" class="node">
<title>Node3</title>
<g id="a_Node000003"><a xlink:href="structimg2num_1_1ImageToSvgConfig_1_1KMeansConfig.html" target="_top" xlink:title="Configuration settings for K&#45;Means in image_to_svg.">
<polygon fill="white" stroke="transparent" points="324,-201 171,-201 171,-126 324,-126 324,-201"/>
<text text-anchor="start" x="176.5" y="-188.5" font-family="Helvetica,sans-Serif" font-size="10.00">img2num::ImageToSvgConfig</text>
<text text-anchor="start" x="210" y="-177.5" font-family="Helvetica,sans-Serif" font-size="10.00">::KMeansConfig</text>
<text text-anchor="start" x="197.5" y="-162.5" font-family="Helvetica,sans-Serif" font-size="10.00">+</text>
<text text-anchor="start" x="232.5" y="-162.5" font-family="Helvetica,sans-Serif" font-size="10.00">k</text>
<text text-anchor="start" x="197.5" y="-147.5" font-family="Helvetica,sans-Serif" font-size="10.00">+</text>
<text text-anchor="start" x="232.5" y="-147.5" font-family="Helvetica,sans-Serif" font-size="10.00">max_iter</text>
<text text-anchor="start" x="246" y="-132.5" font-family="Helvetica,sans-Serif" font-size="10.00"> </text>
<polygon fill="#666666" stroke="#666666" points="171.5,-172.5 171.5,-172.5 324.5,-172.5 324.5,-172.5 171.5,-172.5"/>
<polygon fill="#666666" stroke="#666666" points="171.5,-142.5 171.5,-142.5 230.5,-142.5 230.5,-142.5 171.5,-142.5"/>
<polygon fill="#666666" stroke="#666666" points="230.5,-142.5 230.5,-142.5 324.5,-142.5 324.5,-142.5 230.5,-142.5"/>
<polygon fill="none" stroke="#666666" points="171,-126 171,-201 324,-201 324,-126 171,-126"/>
</a>
</g>
</g>
<!-- Node3&#45;&gt;Node1 -->
<g id="edge2_Node000001_Node000003" class="edge">
<title>Node3&#45;&gt;Node1</title>
<g id="a_edge2_Node000001_Node000003"><a xlink:title=" ">
<path fill="none" stroke="#63b8ff" d="M225.66,-125.99C219.66,-116.41 213.01,-106.2 206.5,-97 204.63,-94.36 202.68,-91.67 200.68,-88.98"/>
<polygon fill="none" stroke="#63b8ff" points="200.57,-88.83 193.75,-86.47 193.31,-79.27 200.13,-81.63 200.57,-88.83"/>
</a>
</g>
<text text-anchor="middle" x="239" y="-100" font-family="Helvetica,sans-Serif" font-size="10.00" fill="grey"> +kmeans</text>
</g>
</g>
</svg>
</svg>

<style type='text/css'>
<![CDATA[
[data-mouse-over-selected='false'] { opacity: 0.7; }
[data-mouse-over-selected='true']  { opacity: 1.0; }
]]>
</style>
<script type="application/ecmascript"><![CDATA[
document.addEventListener('DOMContentLoaded', (event) => {
  highlightEdges();
  highlightAdjacentNodes();
});
]]></script>
</svg>
